{"glyphs":{"0":{"ha":798,"x_min":77,"x_max":720,"o":"m 380 -15 q 152 77 227 -15 q 77 351 77 169 l 77 422 q 163 803 77 673 q 406 932 249 932 q 644 843 567 932 q 720 566 720 754 l 720 496 q 639 113 720 240 q 380 -15 558 -15 m 589 530 q 546 768 589 692 q 399 845 503 845 q 253 759 296 845 q 209 483 209 673 l 209 388 q 254 150 209 227 q 397 73 300 73 q 546 163 503 73 q 589 435 589 253 l 589 530 z "},"1":{"ha":494,"x_min":36,"x_max":462,"o":"m 85 66 l 210 90 l 210 791 l 43 791 l 36 861 l 263 918 l 338 918 l 338 90 l 462 66 l 448 0 l 99 0 l 85 66 z "},"2":{"ha":666,"x_min":46,"x_max":625,"o":"m 475 677 q 433 801 475 758 q 317 845 391 845 q 244 835 279 845 q 183 813 209 825 l 144 677 l 71 684 l 71 861 q 195 911 123 890 q 333 932 266 932 q 533 874 461 932 q 604 703 604 815 q 570 568 604 637 q 479 426 536 498 q 350 277 423 353 q 200 122 277 201 l 203 115 l 499 115 l 555 246 l 625 231 l 610 0 l 46 0 l 46 98 q 217 278 138 195 q 353 432 296 361 q 443 564 410 503 q 475 677 475 624 z "},"3":{"ha":671,"x_min":58,"x_max":610,"o":"m 302 -15 q 170 4 237 -15 q 58 49 103 24 l 58 224 l 130 232 l 165 101 q 236 80 199 88 q 311 73 273 73 q 433 122 385 73 q 482 256 482 172 q 432 394 482 343 q 304 446 382 446 l 234 446 l 234 533 l 297 533 q 409 576 368 533 q 450 696 450 618 q 412 808 450 772 q 298 845 375 845 q 238 839 267 845 q 183 823 208 833 l 147 692 l 76 701 l 76 882 q 196 920 135 907 q 317 932 257 932 q 510 876 441 932 q 578 713 578 819 q 541 580 578 634 q 448 497 504 526 q 567 414 524 473 q 610 275 610 355 q 526 62 610 139 q 302 -15 442 -15 z "},"4":{"ha":696,"x_min":16,"x_max":652,"o":"m 287 66 l 418 90 l 418 218 l 32 218 l 16 277 l 409 918 l 541 918 l 156 313 l 159 306 l 418 306 l 418 554 l 547 554 l 547 306 l 636 306 l 652 238 l 547 215 l 547 90 l 650 66 l 636 0 l 300 0 l 287 66 z "},"5":{"ha":707,"x_min":75,"x_max":650,"o":"m 322 -15 q 189 4 258 -15 q 75 45 119 22 l 75 219 l 153 224 l 194 93 q 252 79 214 85 q 331 73 290 73 q 466 128 410 73 q 522 277 522 184 q 468 415 522 366 q 324 465 415 465 q 240 458 281 465 q 153 435 199 452 l 87 494 l 111 918 l 595 918 l 595 802 l 199 802 l 181 528 q 255 549 212 541 q 337 557 298 557 q 568 490 485 557 q 650 292 650 422 q 555 71 650 157 q 322 -15 460 -15 z "},"6":{"ha":713,"x_min":71,"x_max":667,"o":"m 71 388 q 195 780 71 627 q 496 932 320 932 q 553 929 527 932 q 606 918 578 925 l 606 839 q 545 844 562 843 q 508 845 527 845 q 291 735 379 845 q 203 469 203 625 l 210 466 q 296 515 248 496 q 399 534 344 534 q 594 463 522 534 q 667 290 667 393 l 667 270 q 584 61 667 136 q 370 -15 502 -15 q 148 78 226 -15 q 71 339 71 171 l 71 388 m 538 263 q 489 397 538 347 q 359 446 441 446 q 276 436 315 446 q 203 412 237 426 l 203 353 q 254 146 203 220 q 381 73 304 73 q 496 121 454 73 q 538 252 538 170 l 538 263 z "},"7":{"ha":628,"x_min":34,"x_max":636,"o":"m 112 665 l 34 670 l 34 918 l 636 918 l 636 854 l 287 0 l 165 0 l 510 795 l 506 802 l 148 802 l 112 665 z "},"8":{"ha":690,"x_min":57,"x_max":640,"o":"m 57 206 q 108 355 57 290 q 245 455 159 421 q 132 547 172 494 q 92 683 92 600 q 167 860 92 787 q 365 932 242 932 q 543 881 480 932 q 606 736 606 829 q 557 601 606 662 q 435 507 509 539 q 586 402 532 465 q 640 255 640 340 q 556 60 640 134 q 329 -15 473 -15 q 129 42 201 -15 q 57 206 57 100 m 336 412 q 317 419 327 416 q 298 428 308 423 q 216 348 246 397 q 186 235 186 300 q 227 116 186 159 q 340 73 268 73 q 462 118 413 73 q 511 235 511 164 q 471 329 511 287 q 336 412 431 372 m 220 700 q 261 593 220 631 q 378 529 302 556 q 451 600 425 555 q 477 711 477 645 q 446 810 477 775 q 355 845 414 845 q 257 804 294 845 q 220 700 220 762 z "},"9":{"ha":718,"x_min":64,"x_max":647,"o":"m 193 638 q 239 507 193 558 q 359 456 285 456 q 442 466 399 456 q 517 492 484 477 l 517 541 q 473 766 517 687 q 345 845 429 845 q 231 794 269 845 q 193 649 193 743 l 193 638 m 220 -15 q 157 -11 189 -15 q 100 1 125 -6 l 100 79 q 146 74 121 76 q 200 73 170 73 q 429 173 340 73 q 517 435 517 274 l 511 438 q 428 389 481 410 q 319 368 375 368 q 137 437 210 368 q 64 612 64 507 l 64 631 q 140 850 64 768 q 355 932 217 932 q 572 844 498 932 q 647 572 647 755 l 647 519 q 533 121 647 257 q 220 -15 419 -15 z "}," ":{"ha":373,"x_min":0,"x_max":0,"o":""},"n":{"ha":913,"x_min":72,"x_max":871,"o":"m 72 66 l 176 90 l 176 646 l 72 669 l 85 736 l 245 751 l 284 630 q 397 719 334 687 q 530 751 460 751 q 709 687 652 751 q 767 492 767 624 l 767 90 l 871 66 l 857 0 l 555 0 l 541 66 l 645 90 l 645 463 q 611 618 645 566 q 490 669 578 669 q 395 647 445 669 q 298 582 345 625 l 298 90 l 401 66 l 388 0 l 85 0 l 72 66 z "},"m":{"ha":1379,"x_min":71,"x_max":1339,"o":"m 71 66 l 174 90 l 174 646 l 71 669 l 84 736 l 243 751 l 283 630 q 396 720 332 688 q 529 751 461 751 q 670 719 618 751 q 745 630 723 688 q 870 723 807 695 q 998 751 933 751 q 1177 687 1119 751 q 1235 492 1235 623 l 1235 90 l 1339 66 l 1325 0 l 1023 0 l 1009 66 l 1113 90 l 1113 463 q 1075 618 1113 568 q 949 669 1038 669 q 862 647 909 669 q 766 582 814 625 l 766 90 l 869 66 l 856 0 l 553 0 l 540 66 l 644 90 l 644 463 q 607 619 644 568 q 479 669 571 669 q 390 645 439 669 q 296 582 341 621 l 296 90 l 400 66 l 387 0 l 84 0 l 71 66 z "},"e":{"ha":701,"x_min":65,"x_max":647,"o":"m 187 355 l 187 303 q 250 128 187 189 q 399 66 313 66 q 510 79 456 66 q 611 111 564 91 l 611 45 q 487 0 552 14 q 359 -15 422 -15 q 142 61 219 -15 q 65 281 65 137 l 65 337 q 152 641 65 532 q 387 751 238 751 q 586 681 525 751 q 647 436 647 610 l 647 355 l 187 355 m 228 629 q 202 536 213 591 q 189 436 192 482 l 518 436 q 483 614 518 559 q 368 669 447 669 q 290 657 328 669 q 228 629 251 645 z "},"h":{"ha":898,"x_min":56,"x_max":855,"o":"m 56 66 l 160 90 l 160 955 l 56 978 l 70 1044 l 282 1059 l 282 642 l 292 638 q 391 721 334 692 q 516 751 448 751 q 694 687 637 751 q 751 492 751 623 l 751 90 l 855 66 l 842 0 l 539 0 l 526 66 l 629 90 l 629 469 q 593 623 629 577 q 476 669 557 669 q 372 640 425 669 q 282 568 319 611 l 282 90 l 386 66 l 372 0 l 70 0 l 56 66 z "},"i":{"ha":448,"x_min":72,"x_max":401,"o":"m 176 646 l 72 669 l 85 736 l 298 751 l 298 90 l 401 66 l 388 0 l 85 0 l 72 66 l 176 90 l 176 646 m 144 950 q 164 1016 144 988 q 210 1044 184 1044 q 276 1025 249 1044 q 304 977 304 1005 q 284 911 304 939 q 237 884 264 884 q 172 903 199 884 q 144 950 144 923 z "},"o":{"ha":755,"x_min":65,"x_max":690,"o":"m 371 -15 q 144 64 223 -15 q 65 284 65 143 l 65 347 q 151 643 65 534 q 378 751 237 751 q 608 672 526 751 q 690 445 690 593 l 690 381 q 605 93 690 201 q 371 -15 519 -15 m 568 422 q 515 603 568 538 q 364 669 462 667 q 290 657 327 669 q 228 629 252 646 q 199 525 210 589 q 187 388 187 461 l 187 307 q 246 130 187 193 q 391 66 304 66 q 461 77 425 66 q 528 107 497 88 q 558 212 549 151 q 568 341 568 273 l 568 422 z "},"l":{"ha":435,"x_min":63,"x_max":393,"o":"m 167 955 l 63 978 l 77 1044 l 289 1059 l 289 90 l 393 66 l 379 0 l 77 0 l 63 66 l 167 90 l 167 955 z "},"g":{"ha":729,"x_min":62,"x_max":717,"o":"m 559 663 l 556 656 q 607 597 585 637 q 629 515 629 558 l 629 498 q 554 317 629 385 q 357 250 480 250 q 277 258 313 250 q 217 194 240 224 q 195 145 195 163 q 207 118 195 127 q 243 109 220 109 l 395 109 q 636 62 556 109 q 717 -85 717 15 q 623 -253 717 -195 q 356 -310 529 -310 q 134 -278 205 -310 q 62 -176 62 -246 q 99 -84 62 -130 q 204 6 136 -38 q 127 41 155 16 q 100 109 100 67 q 132 193 100 149 q 217 277 164 237 q 129 353 159 305 q 100 454 100 400 l 100 472 q 174 678 100 605 q 371 751 248 751 q 421 746 391 751 q 475 736 451 742 l 688 736 l 700 663 l 559 663 m 279 0 q 201 -74 231 -35 q 171 -146 171 -113 q 221 -211 171 -194 q 397 -229 271 -229 q 502 -220 449 -229 q 597 -194 555 -212 q 615 -155 608 -178 q 622 -109 622 -132 q 573 -24 622 -47 q 403 0 524 0 l 279 0 m 507 518 q 462 629 507 589 q 355 669 417 669 q 296 664 323 669 q 249 649 268 658 q 228 574 235 612 q 222 505 222 536 l 222 479 q 270 372 222 413 q 374 331 318 331 q 432 336 406 331 q 479 351 458 341 q 499 411 491 373 q 507 492 507 448 l 507 518 z "},"p":{"ha":787,"x_min":20,"x_max":722,"o":"m 124 646 l 20 669 l 34 736 l 193 751 l 233 630 q 342 721 283 691 q 469 751 401 751 q 657 673 593 751 q 722 445 722 595 l 722 381 q 638 91 722 197 q 411 -15 555 -15 q 329 -11 370 -15 q 246 2 289 -6 l 246 -205 l 350 -228 l 336 -295 l 34 -295 l 20 -228 l 124 -205 l 124 646 m 600 422 q 555 607 600 544 q 425 669 511 669 q 335 645 382 669 q 246 582 288 621 l 246 85 q 320 73 273 79 q 404 66 366 66 q 486 76 446 66 q 561 107 526 86 q 587 210 575 144 q 600 341 600 275 l 600 422 z "},"q":{"ha":736,"x_min":68,"x_max":659,"o":"m 536 79 l 530 81 q 434 9 486 33 q 320 -15 382 -15 q 132 60 195 -15 q 68 277 68 135 l 68 334 q 153 637 68 523 q 376 751 237 751 q 513 738 435 751 q 659 707 591 724 l 659 -310 l 446 -295 l 433 -229 l 536 -205 l 536 79 m 190 307 q 236 126 190 186 q 358 66 282 66 q 456 93 407 66 q 536 153 505 119 l 536 650 q 457 664 499 659 q 375 669 415 669 q 291 656 332 669 q 227 623 251 642 q 200 514 210 575 q 190 388 190 454 l 190 307 z "},"r":{"ha":600,"x_min":72,"x_max":564,"o":"m 176 646 l 72 669 l 85 736 l 245 751 l 284 630 q 360 721 317 691 q 463 751 404 751 q 517 743 490 751 q 564 722 544 736 l 547 530 l 471 530 l 453 656 q 422 661 440 661 q 353 636 388 661 q 298 582 319 612 l 298 90 l 424 66 l 410 0 l 85 0 l 72 66 l 176 90 l 176 646 z "},"s":{"ha":658,"x_min":80,"x_max":604,"o":"m 387 421 q 566 298 528 349 q 604 184 604 247 q 526 40 604 96 q 320 -15 448 -15 q 191 -1 251 -15 q 92 33 130 14 l 85 195 l 159 209 l 199 82 q 257 70 225 74 q 321 66 289 66 q 394 71 358 66 q 468 85 431 75 q 478 118 475 100 q 481 153 481 136 q 438 239 481 201 q 270 343 395 277 q 119 449 157 402 q 80 556 80 496 q 151 696 80 641 q 353 751 222 751 q 472 738 414 751 q 571 705 530 726 l 577 541 l 503 528 l 463 656 q 406 666 436 663 q 349 669 375 669 q 279 664 313 669 q 217 650 245 659 q 207 622 211 640 q 202 587 202 605 q 233 518 202 550 q 387 421 264 486 z "},"f":{"ha":507,"x_min":65,"x_max":498,"o":"m 176 809 q 228 997 176 935 q 378 1059 280 1059 q 443 1052 410 1059 q 498 1034 475 1044 l 469 945 q 391 966 431 958 q 318 973 351 973 q 304 913 310 953 q 298 820 298 873 l 298 736 l 443 736 l 456 669 l 298 646 l 298 90 l 442 66 l 429 0 l 85 0 l 72 66 l 176 90 l 176 646 l 65 669 l 79 736 l 176 736 l 176 809 z "},"d":{"ha":804,"x_min":66,"x_max":768,"o":"m 664 90 l 768 66 l 754 0 l 595 -15 l 555 105 q 447 12 506 41 q 326 -15 389 -16 q 135 61 204 -15 q 66 280 66 138 l 66 343 q 152 642 66 534 q 391 751 238 751 q 456 747 419 751 q 542 734 493 743 l 542 955 l 438 978 l 452 1044 l 664 1059 l 664 90 m 189 294 q 236 125 189 184 q 363 66 283 66 q 461 93 412 66 q 542 153 511 120 l 542 651 q 459 664 503 659 q 377 669 416 669 q 292 657 333 669 q 222 624 252 644 q 197 508 206 571 q 189 375 189 444 l 189 294 z "},"j":{"ha":386,"x_min":-71,"x_max":286,"o":"m 279 -32 q 231 -241 279 -173 q 71 -310 183 -310 q -3 -303 35 -310 q -71 -285 -40 -296 l -46 -196 q 44 -215 -5 -207 q 130 -224 93 -224 q 150 -155 142 -198 q 157 -58 157 -112 l 157 646 l 33 669 l 47 736 l 279 751 l 279 -32 m 125 950 q 145 1016 125 988 q 192 1044 165 1044 q 258 1025 231 1044 q 286 977 286 1005 q 266 911 286 939 q 219 884 245 884 q 153 903 181 884 q 125 950 125 923 z "},"t":{"ha":503,"x_min":19,"x_max":461,"o":"m 447 736 l 460 669 l 250 647 l 250 210 q 272 102 250 138 q 358 66 293 66 q 406 73 380 66 q 461 93 433 80 l 461 29 q 390 -3 430 9 q 309 -15 349 -15 q 171 34 214 -15 q 128 183 128 83 l 128 647 l 19 669 l 33 736 l 128 736 l 178 935 l 250 921 l 250 736 l 447 736 z "},"k":{"ha":804,"x_min":57,"x_max":787,"o":"m 57 66 l 161 90 l 161 955 l 57 978 l 71 1044 l 283 1059 l 283 389 l 292 385 l 583 656 l 521 669 l 534 736 l 753 736 l 766 669 l 707 656 l 464 436 l 696 90 l 787 66 l 774 0 l 623 0 l 380 361 l 283 273 l 283 90 l 387 66 l 373 0 l 71 0 l 57 66 z "},"v":{"ha":720,"x_min":-8,"x_max":730,"o":"m 730 669 l 665 656 l 435 0 l 288 0 l 56 656 l -8 669 l 5 736 l 256 736 l 270 669 l 182 656 l 371 90 l 382 90 l 570 656 l 483 669 l 496 736 l 716 736 l 730 669 z "},"w":{"ha":1175,"x_min":-7,"x_max":1185,"o":"m 1185 669 l 1121 657 l 921 0 l 777 0 l 602 562 l 591 562 l 421 0 l 277 0 l 58 656 l -7 669 l 7 736 l 258 736 l 272 669 l 183 656 l 357 108 l 368 108 l 549 736 l 673 736 l 859 108 l 869 108 l 1027 656 l 937 669 l 950 736 l 1171 736 l 1185 669 z "},"y":{"ha":750,"x_min":-7,"x_max":761,"o":"m 527 736 l 747 736 l 761 669 l 695 656 l 453 1 q 333 -239 392 -168 q 180 -310 273 -310 q 99 -300 140 -310 q 33 -278 58 -290 l 57 -189 q 144 -213 94 -203 q 240 -224 195 -224 q 291 -173 266 -206 q 335 -85 315 -139 l 59 656 l -7 669 l 7 736 l 258 736 l 271 669 l 186 656 l 387 90 l 397 90 l 598 656 l 513 669 l 527 736 z "},"x":{"ha":736,"x_min":16,"x_max":732,"o":"m 16 66 l 79 77 l 304 368 l 84 659 l 26 669 l 39 736 l 277 736 l 290 669 l 227 659 l 386 452 l 397 452 l 551 659 l 488 669 l 501 736 l 707 736 l 720 669 l 661 659 l 440 379 l 670 77 l 732 66 l 719 0 l 477 0 l 463 66 l 526 77 l 359 296 l 349 296 l 186 77 l 252 66 l 238 0 l 30 0 l 16 66 z "},"z":{"ha":656,"x_min":62,"x_max":614,"o":"m 503 75 l 538 203 l 608 196 l 608 0 l 62 0 l 62 64 l 465 653 l 460 661 l 189 661 l 154 532 l 83 540 l 83 736 l 614 736 l 614 680 l 206 83 l 210 75 l 503 75 z "},"I":{"ha":436,"x_min":49,"x_max":385,"o":"m 153 828 l 49 851 l 62 918 l 371 918 l 385 851 l 281 828 l 281 90 l 385 66 l 371 0 l 62 0 l 49 66 l 153 90 l 153 828 z "},"L":{"ha":690,"x_min":50,"x_max":637,"o":"m 154 828 l 50 851 l 64 918 l 372 918 l 386 851 l 283 828 l 283 87 l 511 87 l 567 218 l 637 203 l 621 0 l 64 0 l 50 66 l 154 90 l 154 828 z "},"T":{"ha":772,"x_min":9,"x_max":763,"o":"m 322 830 l 119 830 l 77 715 l 9 721 l 20 918 l 753 918 l 763 721 l 696 715 l 654 830 l 451 830 l 451 90 l 555 66 l 541 0 l 232 0 l 218 66 l 322 90 l 322 830 z "},"H":{"ha":989,"x_min":49,"x_max":938,"o":"m 153 828 l 49 851 l 62 918 l 371 918 l 385 851 l 281 828 l 281 528 l 705 528 l 705 828 l 602 851 l 615 918 l 924 918 l 938 851 l 833 828 l 833 90 l 938 66 l 924 0 l 615 0 l 602 66 l 705 90 l 705 440 l 281 440 l 281 90 l 385 66 l 371 0 l 62 0 l 49 66 l 153 90 l 153 828 z "},"E":{"ha":808,"x_min":52,"x_max":737,"o":"m 284 436 l 284 87 l 610 87 l 667 218 l 737 203 l 721 0 l 65 0 l 52 66 l 155 90 l 155 828 l 52 851 l 65 918 l 701 918 l 717 714 l 647 699 l 591 830 l 284 830 l 284 524 l 526 524 l 549 606 l 616 593 l 616 366 l 549 353 l 526 436 l 284 436 z "},"U":{"ha":921,"x_min":11,"x_max":910,"o":"m 244 370 q 308 146 244 219 q 484 73 372 73 q 584 88 537 73 q 659 124 631 104 q 696 226 682 166 q 711 353 711 286 l 711 828 l 608 851 l 621 918 l 897 918 l 910 851 l 807 828 l 807 369 q 721 78 807 172 q 456 -15 635 -15 q 201 70 288 -15 q 115 333 115 154 l 115 828 l 11 851 l 24 918 l 334 918 l 347 851 l 244 828 l 244 370 z "},"F":{"ha":707,"x_min":49,"x_max":673,"o":"m 281 436 l 281 90 l 418 66 l 405 0 l 62 0 l 49 66 l 153 90 l 153 828 l 49 851 l 62 918 l 657 918 l 673 714 l 604 699 l 547 830 l 281 830 l 281 524 l 498 524 l 522 606 l 588 593 l 588 366 l 522 353 l 498 436 l 281 436 z "},"N":{"ha":1039,"x_min":49,"x_max":1001,"o":"m 153 828 l 49 851 l 62 918 l 347 918 l 791 92 l 802 92 l 802 828 l 698 851 l 711 918 l 987 918 l 1001 851 l 898 828 l 898 0 l 703 0 l 258 826 l 248 826 l 248 90 l 351 66 l 337 0 l 62 0 l 49 66 l 153 90 l 153 828 z "},"C":{"ha":798,"x_min":68,"x_max":741,"o":"m 68 410 q 172 800 68 668 q 478 932 277 932 q 608 922 543 932 q 724 892 674 912 l 739 709 l 667 694 l 611 827 q 545 840 585 835 q 460 845 505 845 q 349 829 401 845 q 257 785 296 814 q 213 636 230 723 q 197 463 197 549 l 197 373 q 276 150 197 228 q 490 73 356 73 q 621 93 554 73 q 741 143 688 113 l 741 71 q 601 8 677 31 q 450 -15 524 -15 q 164 76 261 -15 q 68 349 68 167 l 68 410 z "},"O":{"ha":912,"x_min":69,"x_max":843,"o":"m 450 -15 q 165 78 260 -15 q 69 356 69 172 l 69 410 q 170 803 69 673 q 463 932 270 932 q 747 840 652 932 q 843 561 843 747 l 843 508 q 745 119 843 252 q 450 -15 648 -15 m 714 531 q 643 768 714 691 q 443 845 572 845 q 329 826 382 845 q 245 785 275 808 q 211 645 224 723 q 198 477 198 568 l 198 387 q 274 155 198 237 q 470 73 351 73 q 582 91 530 73 q 668 133 635 109 q 702 282 690 201 q 714 441 714 363 l 714 531 z "},"Q":{"ha":922,"x_min":68,"x_max":907,"o":"m 448 -15 q 163 78 259 -15 q 68 356 68 172 l 68 410 q 166 799 68 665 q 462 932 265 932 q 746 840 650 932 q 842 561 842 747 l 842 508 q 702 74 842 203 q 752 -12 727 20 q 817 -44 778 -44 q 863 -40 840 -44 q 907 -27 886 -35 l 907 -95 q 853 -121 884 -111 q 788 -132 823 -132 q 682 -102 724 -132 q 608 -7 639 -73 l 599 10 q 528 -8 564 -2 q 448 -15 491 -15 m 713 531 q 643 767 713 689 q 441 845 572 845 q 327 827 382 845 q 237 785 272 810 q 222 728 229 760 q 209 660 215 697 q 200 576 203 622 q 197 477 197 531 l 197 387 q 198 347 197 366 q 203 310 199 327 q 269 379 224 354 q 373 404 313 404 q 519 361 458 404 q 631 219 580 319 l 673 133 q 699 261 686 170 q 713 441 713 352 l 713 531 m 530 151 q 435 277 486 238 q 325 316 385 316 q 231 241 231 316 q 301 128 231 183 q 469 73 370 73 q 519 76 496 73 q 563 84 542 79 l 530 151 z "},"G":{"ha":882,"x_min":69,"x_max":844,"o":"m 741 71 q 597 8 675 31 q 443 -15 519 -15 q 167 77 265 -15 q 69 342 69 168 l 69 403 q 176 796 69 659 q 484 932 283 932 q 616 922 551 932 q 730 894 682 912 l 745 711 l 673 696 l 618 827 q 551 840 592 834 q 469 845 511 845 q 356 829 410 845 q 265 785 303 813 q 216 638 234 722 q 198 463 198 555 l 198 373 q 280 151 198 230 q 477 73 362 73 q 547 79 512 73 q 612 97 581 86 l 612 342 l 508 365 l 522 438 l 830 438 l 844 365 l 741 342 l 741 71 z "},"D":{"ha":924,"x_min":53,"x_max":845,"o":"m 157 828 l 53 851 l 66 918 l 433 918 q 741 815 637 918 q 845 519 845 712 l 845 466 q 740 125 845 250 q 448 0 635 0 l 66 0 l 53 66 l 157 90 l 157 828 m 286 830 l 286 87 l 429 87 q 529 96 481 87 q 617 121 576 104 q 688 253 659 173 q 716 422 716 333 l 716 486 q 638 740 716 649 q 406 830 559 830 l 286 830 z "},"B":{"ha":787,"x_min":52,"x_max":722,"o":"m 155 828 l 52 851 l 65 918 l 389 918 q 607 865 532 918 q 682 706 682 812 q 644 574 682 629 q 549 491 605 519 l 550 480 q 673 414 625 466 q 722 283 722 362 q 642 76 722 153 q 423 0 562 0 l 65 0 l 52 66 l 155 90 l 155 828 m 284 433 l 284 87 l 377 87 q 486 96 439 87 q 573 121 533 104 q 587 185 582 149 q 593 266 593 222 q 538 389 593 345 q 389 433 483 433 l 284 433 m 284 830 l 284 520 l 373 520 q 464 529 426 520 q 527 547 501 537 q 545 608 536 572 q 553 687 553 643 q 505 795 553 760 q 362 830 456 830 l 284 830 z "},"A":{"ha":826,"x_min":-5,"x_max":831,"o":"m -5 66 l 68 86 l 366 918 l 467 918 l 758 86 l 831 66 l 818 0 l 557 0 l 543 66 l 630 86 l 566 275 l 233 275 l 168 86 l 255 66 l 241 0 l 8 0 l -5 66 m 264 363 l 536 363 l 405 749 l 398 749 l 264 363 z "},"P":{"ha":747,"x_min":50,"x_max":713,"o":"m 154 828 l 50 851 l 64 918 l 404 918 q 634 861 554 918 q 713 684 713 804 q 629 483 713 557 q 419 408 545 408 l 283 408 l 283 90 l 427 66 l 413 0 l 64 0 l 50 66 l 154 90 l 154 828 m 283 830 l 283 495 l 391 495 q 482 502 441 495 q 561 521 524 508 q 577 590 572 555 q 582 656 582 625 q 528 783 582 736 q 371 830 475 830 l 283 830 z "},"R":{"ha":817,"x_min":49,"x_max":819,"o":"m 153 828 l 49 851 l 62 918 l 396 918 q 612 860 537 918 q 686 685 686 803 q 646 531 686 597 q 536 433 606 466 l 532 420 l 720 90 l 819 66 l 805 0 l 636 0 l 406 408 l 281 408 l 281 90 l 385 66 l 371 0 l 62 0 l 49 66 l 153 90 l 153 828 m 281 830 l 281 495 l 365 495 q 450 501 407 495 q 535 522 493 507 q 549 588 543 552 q 555 657 555 624 q 503 784 555 738 q 350 830 451 830 l 281 830 z "},"V":{"ha":800,"x_min":-30,"x_max":830,"o":"m 273 850 l 172 831 l 410 123 l 420 123 l 658 831 l 557 850 l 570 918 l 817 918 l 830 850 l 757 831 l 465 0 l 336 0 l 43 831 l -30 850 l -16 918 l 259 918 l 273 850 z "},"M":{"ha":1303,"x_min":49,"x_max":1252,"o":"m 153 828 l 49 851 l 62 918 l 352 918 l 648 211 l 659 211 l 942 918 l 1238 918 l 1252 851 l 1149 828 l 1149 90 l 1252 66 l 1238 0 l 930 0 l 916 66 l 1020 90 l 1020 821 l 1009 821 l 675 0 l 604 0 l 258 821 l 248 821 l 248 90 l 351 66 l 337 0 l 62 0 l 49 66 l 153 90 l 153 828 z "},"K":{"ha":884,"x_min":49,"x_max":890,"o":"m 49 66 l 153 90 l 153 828 l 49 851 l 62 918 l 371 918 l 385 851 l 281 828 l 281 450 l 291 446 l 660 836 l 585 850 l 599 918 l 844 918 l 858 851 l 775 828 l 481 519 l 791 90 l 890 66 l 876 0 l 711 0 l 399 433 l 281 309 l 281 90 l 385 66 l 371 0 l 62 0 l 49 66 z "},"S":{"ha":723,"x_min":74,"x_max":665,"o":"m 420 517 q 606 380 547 442 q 665 234 665 318 q 577 54 665 122 q 345 -15 490 -15 q 196 -2 263 -15 q 88 28 128 10 l 74 203 l 153 220 l 209 89 q 265 77 234 81 q 334 73 296 73 q 430 79 385 73 q 515 98 476 86 q 529 143 522 115 q 536 210 536 172 q 496 299 536 253 q 323 426 456 346 q 112 583 151 528 q 74 705 74 639 q 159 868 74 804 q 394 932 244 932 q 508 924 451 932 q 619 897 566 916 l 633 714 l 562 699 l 507 830 q 450 841 479 838 q 390 845 421 845 q 292 838 338 845 q 216 819 247 830 q 206 776 210 799 q 203 728 203 753 q 243 640 203 680 q 420 517 283 600 z "},"J":{"ha":583,"x_min":47,"x_max":542,"o":"m 439 228 q 382 47 439 110 q 212 -15 325 -15 q 130 -4 171 -15 q 62 21 90 7 l 47 197 l 117 212 l 173 82 q 201 74 187 77 q 226 72 214 72 q 259 76 242 72 q 289 86 276 80 q 304 155 298 112 q 310 250 310 198 l 310 828 l 179 851 l 193 918 l 528 918 l 542 851 l 439 828 l 439 228 z "},"W":{"ha":1355,"x_min":-30,"x_max":1385,"o":"m 273 850 l 172 831 l 399 157 l 410 157 l 642 918 l 772 918 l 998 157 l 1009 157 l 1215 831 l 1112 850 l 1125 918 l 1371 918 l 1385 850 l 1315 832 l 1053 0 l 924 0 l 698 751 l 687 751 l 458 0 l 328 0 l 42 832 l -30 850 l -16 918 l 260 918 l 273 850 z "},"Z":{"ha":766,"x_min":56,"x_max":715,"o":"m 694 918 l 694 833 l 208 97 l 212 87 l 589 87 l 645 218 l 715 203 l 699 0 l 56 0 l 56 85 l 541 821 l 537 830 l 187 830 l 132 699 l 61 714 l 78 918 l 694 918 z "},"X":{"ha":863,"x_min":24,"x_max":839,"o":"m 127 831 l 49 850 l 62 918 l 334 918 l 348 850 l 268 831 l 449 558 l 460 558 l 635 831 l 553 850 l 567 918 l 808 918 l 821 850 l 741 831 l 503 475 l 760 86 l 839 66 l 825 0 l 553 0 l 540 66 l 620 86 l 417 393 l 406 393 l 210 87 l 290 66 l 276 0 l 38 0 l 24 66 l 104 86 l 362 476 l 127 831 z "},"Y":{"ha":761,"x_min":-35,"x_max":796,"o":"m 324 392 l 42 831 l -35 850 l -22 918 l 256 918 l 270 850 l 180 831 l 398 490 l 409 490 l 615 831 l 530 850 l 544 918 l 783 918 l 796 850 l 721 831 l 453 391 l 453 90 l 556 66 l 543 0 l 234 0 l 220 66 l 324 90 l 324 392 z "},".":{"ha":373,"x_min":95,"x_max":279,"o":"m 95 54 q 100 98 95 77 q 115 135 106 119 q 137 161 125 151 q 163 170 149 170 q 209 165 188 170 q 246 150 230 159 q 271 127 262 140 q 279 100 279 115 q 274 57 279 77 q 259 20 269 36 q 237 -5 250 4 q 210 -15 224 -15 q 165 -9 186 -15 q 128 5 144 -4 q 104 27 113 15 q 95 54 95 39 z "},",":{"ha":373,"x_min":61,"x_max":262,"o":"m 61 54 q 66 98 61 77 q 81 135 72 119 q 103 161 91 151 q 130 170 115 170 q 184 162 156 170 q 231 134 213 154 q 243 119 237 128 q 252 98 248 111 q 259 67 256 85 q 262 26 262 50 q 257 -39 262 -7 q 236 -104 252 -71 q 192 -172 221 -137 q 117 -248 163 -208 l 71 -194 q 151 -109 128 -146 q 173 -43 173 -71 q 162 -22 173 -30 q 136 -11 151 -15 q 82 15 102 -2 q 61 54 61 32 z "},":":{"ha":404,"x_min":103,"x_max":288,"o":"m 103 54 q 109 98 103 77 q 123 135 114 119 q 145 161 132 151 q 172 170 157 170 q 217 165 196 170 q 254 150 238 159 q 279 127 270 140 q 288 100 288 115 q 282 57 288 77 q 268 20 277 36 q 245 -5 258 4 q 218 -15 233 -15 q 173 -9 194 -15 q 136 5 152 -4 q 112 27 121 14 q 103 54 103 39 m 103 572 q 109 617 103 595 q 123 654 114 638 q 145 680 133 670 q 172 689 157 689 q 217 684 196 689 q 254 669 238 678 q 279 646 270 659 q 288 619 288 633 q 282 575 288 596 q 267 539 277 555 q 245 513 258 523 q 218 504 233 504 q 173 509 194 504 q 136 524 152 515 q 112 546 121 534 q 103 572 103 558 z "},";":{"ha":408,"x_min":103,"x_max":304,"o":"m 103 572 q 109 617 103 595 q 123 654 114 638 q 145 680 133 670 q 172 689 157 689 q 217 684 196 689 q 254 669 238 678 q 279 646 270 659 q 288 619 288 633 q 282 575 288 596 q 267 539 277 555 q 245 513 258 523 q 218 504 233 504 q 173 509 194 504 q 136 524 152 515 q 112 546 121 534 q 103 572 103 558 m 103 54 q 109 98 103 77 q 123 135 114 119 q 145 161 133 151 q 172 170 157 170 q 227 162 198 170 q 273 134 255 154 q 285 119 279 128 q 294 98 290 111 q 301 67 298 85 q 304 26 304 50 q 299 -39 304 -7 q 278 -104 294 -71 q 234 -172 263 -137 q 159 -248 205 -208 l 113 -194 q 193 -109 170 -146 q 215 -43 215 -71 q 204 -22 215 -30 q 178 -11 193 -15 q 124 15 144 -2 q 103 54 103 32 z "},"(":{"ha":450,"x_min":75,"x_max":416,"o":"m 199 368 q 208 222 199 292 q 232 91 217 153 q 267 -24 248 29 q 307 -123 287 -78 q 416 -309 355 -227 l 353 -350 q 214 -156 275 -266 q 162 -53 187 -109 q 118 70 138 4 q 86 211 98 136 q 75 368 75 286 q 86 525 75 450 q 118 666 98 600 q 162 788 138 732 q 214 892 187 845 q 353 1086 275 1001 l 416 1045 q 307 859 355 964 q 267 761 287 814 q 232 645 248 707 q 208 514 217 583 q 199 368 199 444 z "},")":{"ha":450,"x_min":34,"x_max":375,"o":"m 251 368 q 241 514 251 444 q 217 645 232 583 q 182 761 201 707 q 142 859 163 814 q 34 1045 95 964 l 97 1086 q 236 892 174 1001 q 287 788 262 845 q 332 666 312 732 q 363 525 351 600 q 375 368 375 450 q 363 211 375 286 q 332 70 351 136 q 287 -53 312 4 q 236 -156 262 -109 q 97 -350 174 -266 l 34 -309 q 142 -123 95 -227 q 182 -24 163 -78 q 217 91 201 29 q 241 222 232 153 q 251 368 251 292 z "},"´":{"ha":713,"x_min":269,"x_max":530,"o":"m 269 886 l 407 1133 l 530 1126 l 530 1081 l 340 858 l 269 865 l 269 886 z "},"u":{"ha":856,"x_min":26,"x_max":825,"o":"m 252 273 q 289 117 252 168 q 416 66 326 66 q 513 90 465 66 q 599 153 561 113 l 599 646 l 475 669 l 488 736 l 721 751 l 721 90 l 825 66 l 811 0 l 652 -15 l 612 106 q 496 13 557 41 q 361 -15 435 -15 q 188 50 247 -15 q 130 243 130 114 l 130 646 l 26 669 l 39 736 l 252 751 l 252 273 z "},"˜":{"ha":747,"x_min":102,"x_max":645,"o":"m 102 886 q 141 1002 102 963 q 251 1042 181 1042 q 325 1028 288 1042 q 397 997 363 1014 q 460 966 431 980 q 509 952 490 952 q 550 972 535 952 q 566 1034 566 992 l 645 1040 l 645 1008 q 609 895 645 937 q 504 853 572 853 q 432 867 471 853 q 355 898 393 881 q 286 929 317 915 q 235 943 254 943 q 210 940 221 943 q 191 930 199 937 q 180 909 184 922 q 176 876 176 897 l 102 869 l 102 886 z "},"¶":{"ha":781,"x_min":61,"x_max":727,"o":"m 356 329 q 246 345 299 329 q 152 396 193 361 q 86 485 111 431 q 61 616 61 539 q 84 749 61 692 q 147 843 106 806 q 243 899 188 880 q 365 918 299 918 l 713 918 l 727 851 l 624 828 l 624 87 q 603 -38 624 16 q 548 -130 582 -92 q 469 -186 513 -167 q 379 -205 425 -205 q 302 -200 336 -205 q 245 -189 269 -195 q 197 -173 218 -182 l 197 -97 q 242 -108 217 -103 q 292 -115 263 -112 q 355 -118 321 -118 q 414 -107 388 -118 q 457 -72 439 -96 q 485 -7 475 -47 q 495 90 495 33 l 495 830 l 400 830 l 400 329 l 356 329 z "},"ı":{"ha":448,"x_min":72,"x_max":401,"o":"m 298 90 l 401 66 l 388 0 l 85 0 l 72 66 l 176 90 l 176 646 l 72 669 l 85 736 l 298 751 l 298 90 z "},"`":{"ha":564,"x_min":96,"x_max":372,"o":"m 372 865 l 292 858 l 96 1081 l 96 1126 l 214 1133 l 372 886 l 372 865 z "},"¨":{"ha":687,"x_min":136,"x_max":551,"o":"m 136 939 q 140 971 136 956 q 154 999 145 987 q 173 1017 162 1010 q 196 1024 184 1024 q 229 1019 214 1024 q 256 1006 245 1015 q 274 986 267 998 q 280 963 280 975 q 275 931 280 946 q 262 904 271 916 q 243 885 254 892 q 220 878 233 878 q 187 883 203 878 q 160 896 172 888 q 142 916 149 905 q 136 939 136 926 m 407 939 q 412 971 407 956 q 425 999 416 987 q 444 1017 433 1010 q 467 1024 454 1024 q 500 1019 484 1024 q 527 1006 515 1015 q 545 986 538 998 q 551 963 551 975 q 547 931 551 946 q 533 904 542 916 q 514 885 525 892 q 491 878 503 878 q 458 883 473 878 q 431 896 442 888 q 413 916 420 905 q 407 939 407 926 z "},"ï":{"ha":448,"x_min":-2,"x_max":414,"o":"m 298 90 l 401 66 l 388 0 l 85 0 l 72 66 l 176 90 l 176 646 l 72 669 l 85 736 l 298 751 l 298 90 m -2 939 q 3 971 -2 956 q 16 999 7 987 q 35 1017 24 1010 q 58 1024 46 1024 q 92 1019 76 1024 q 118 1006 107 1015 q 136 986 130 998 q 142 963 142 975 q 138 931 142 946 q 125 904 133 916 q 106 885 117 892 q 83 878 95 878 q 50 883 65 878 q 22 896 34 888 q 4 916 11 905 q -2 939 -2 926 m 269 939 q 274 971 269 956 q 287 999 279 987 q 306 1017 295 1010 q 329 1024 317 1024 q 362 1019 347 1024 q 389 1006 378 1015 q 407 986 401 998 q 414 963 414 975 q 409 931 414 946 q 396 904 404 916 q 376 885 387 892 q 353 878 366 878 q 320 883 336 878 q 293 896 304 888 q 276 916 282 905 q 269 939 269 926 z "},"ü":{"ha":856,"x_min":26,"x_max":825,"o":"m 252 273 q 289 117 252 168 q 416 66 326 66 q 513 90 465 66 q 599 153 561 113 l 599 646 l 475 669 l 488 736 l 721 751 l 721 90 l 825 66 l 811 0 l 652 -15 l 612 106 q 496 13 557 41 q 361 -15 435 -15 q 188 50 247 -15 q 130 243 130 114 l 130 646 l 26 669 l 39 736 l 252 751 l 252 273 m 196 939 q 201 971 196 956 q 214 999 205 987 q 233 1017 222 1010 q 256 1024 244 1024 q 290 1019 274 1024 q 316 1006 305 1015 q 334 986 328 998 q 340 963 340 975 q 336 931 340 946 q 323 904 331 916 q 304 885 315 892 q 281 878 293 878 q 248 883 263 878 q 220 896 232 888 q 202 916 209 905 q 196 939 196 926 m 467 939 q 472 971 467 956 q 485 999 477 987 q 504 1017 493 1010 q 527 1024 515 1024 q 560 1019 545 1024 q 587 1006 576 1015 q 605 986 599 998 q 612 963 612 975 q 607 931 612 946 q 594 904 602 916 q 574 885 585 892 q 551 878 564 878 q 518 883 534 878 q 491 896 503 888 q 474 916 480 905 q 467 939 467 926 z "},"é":{"ha":701,"x_min":65,"x_max":647,"o":"m 187 355 l 187 303 q 250 128 187 189 q 399 66 313 66 q 510 79 456 66 q 611 111 564 91 l 611 45 q 487 0 552 14 q 359 -15 422 -15 q 142 61 219 -15 q 65 281 65 137 l 65 337 q 152 641 65 532 q 387 751 238 751 q 586 681 525 751 q 647 436 647 610 l 647 355 l 187 355 m 228 629 q 202 536 213 591 q 189 436 192 482 l 518 436 q 483 614 518 559 q 368 669 447 669 q 290 657 328 669 q 228 629 251 645 m 334 886 l 471 1133 l 595 1126 l 595 1081 l 405 858 l 334 865 l 334 886 z "},"ë":{"ha":701,"x_min":65,"x_max":647,"o":"m 187 355 l 187 303 q 250 128 187 189 q 399 66 313 66 q 510 79 456 66 q 611 111 564 91 l 611 45 q 487 0 552 14 q 359 -15 422 -15 q 142 61 219 -15 q 65 281 65 137 l 65 337 q 152 641 65 532 q 387 751 238 751 q 586 681 525 751 q 647 436 647 610 l 647 355 l 187 355 m 228 629 q 202 536 213 591 q 189 436 192 482 l 518 436 q 483 614 518 559 q 368 669 447 669 q 290 657 328 669 q 228 629 251 645 m 172 939 q 177 971 172 956 q 190 999 182 987 q 210 1017 199 1010 q 233 1024 220 1024 q 266 1019 250 1024 q 293 1006 281 1015 q 310 986 304 998 q 317 963 317 975 q 312 931 317 946 q 299 904 307 916 q 280 885 291 892 q 257 878 269 878 q 224 883 239 878 q 197 896 208 888 q 179 916 185 905 q 172 939 172 926 m 444 939 q 448 971 444 956 q 461 999 453 987 q 480 1017 469 1010 q 503 1024 491 1024 q 536 1019 521 1024 q 564 1006 552 1015 q 582 986 575 998 q 588 963 588 975 q 583 931 588 946 q 570 904 578 916 q 551 885 562 892 q 528 878 540 878 q 494 883 510 878 q 468 896 479 888 q 450 916 456 905 q 444 939 444 926 z "},"è":{"ha":701,"x_min":65,"x_max":647,"o":"m 187 355 l 187 303 q 250 128 187 189 q 399 66 313 66 q 510 79 456 66 q 611 111 564 91 l 611 45 q 487 0 552 14 q 359 -15 422 -15 q 142 61 219 -15 q 65 281 65 137 l 65 337 q 152 641 65 532 q 387 751 238 751 q 586 681 525 751 q 647 436 647 610 l 647 355 l 187 355 m 228 629 q 202 536 213 591 q 189 436 192 482 l 518 436 q 483 614 518 559 q 368 669 447 669 q 290 657 328 669 q 228 629 251 645 m 459 865 l 379 858 l 182 1081 l 182 1126 l 301 1133 l 459 886 l 459 865 z "},"ä":{"ha":780,"x_min":73,"x_max":754,"o":"m 637 90 l 754 66 l 741 0 l 568 -15 l 528 105 q 415 13 475 41 q 284 -15 355 -15 q 131 33 189 -15 q 73 161 73 80 q 183 348 73 285 q 515 412 293 412 l 515 476 q 478 624 515 578 q 349 669 441 669 q 299 667 327 669 q 247 659 271 664 l 206 515 l 140 522 l 140 714 q 240 740 180 728 q 361 751 300 751 q 569 689 500 751 q 637 498 637 628 l 637 90 m 515 330 q 334 317 413 330 q 214 281 256 304 q 201 238 206 262 q 195 186 195 214 q 233 98 195 130 q 330 66 270 66 q 431 92 381 66 q 515 153 480 117 l 515 330 m 157 939 q 162 971 157 956 q 175 999 167 987 q 195 1017 184 1010 q 218 1024 205 1024 q 251 1019 235 1024 q 278 1006 267 1015 q 295 986 289 998 q 302 963 302 975 q 297 931 302 946 q 284 904 292 916 q 265 885 276 892 q 242 878 254 878 q 209 883 224 878 q 182 896 193 888 q 164 916 170 905 q 157 939 157 926 m 429 939 q 433 971 429 956 q 446 999 438 987 q 465 1017 454 1010 q 488 1024 476 1024 q 522 1019 506 1024 q 549 1006 537 1015 q 567 986 560 998 q 573 963 573 975 q 568 931 573 946 q 555 904 564 916 q 536 885 547 892 q 513 878 525 878 q 479 883 495 878 q 453 896 464 888 q 435 916 441 905 q 429 939 429 926 z "},"ý":{"ha":750,"x_min":-7,"x_max":761,"o":"m 527 736 l 747 736 l 761 669 l 695 656 l 453 1 q 333 -239 392 -168 q 180 -310 273 -310 q 99 -300 140 -310 q 33 -278 58 -290 l 57 -189 q 144 -213 94 -203 q 240 -224 195 -224 q 291 -173 266 -206 q 335 -85 315 -139 l 59 656 l -7 669 l 7 736 l 258 736 l 271 669 l 186 656 l 387 90 l 397 90 l 598 656 l 513 669 l 527 736 m 345 886 l 482 1133 l 606 1126 l 606 1081 l 416 858 l 345 865 l 345 886 z "},"ÿ":{"ha":750,"x_min":-7,"x_max":761,"o":"m 527 736 l 747 736 l 761 669 l 695 656 l 453 1 q 333 -239 392 -168 q 180 -310 273 -310 q 99 -300 140 -310 q 33 -278 58 -290 l 57 -189 q 144 -213 94 -203 q 240 -224 195 -224 q 291 -173 266 -206 q 335 -85 315 -139 l 59 656 l -7 669 l 7 736 l 258 736 l 271 669 l 186 656 l 387 90 l 397 90 l 598 656 l 513 669 l 527 736 m 183 939 q 188 971 183 956 q 201 999 193 987 q 220 1017 210 1010 q 243 1024 231 1024 q 277 1019 261 1024 q 303 1006 292 1015 q 321 986 315 998 q 328 963 328 975 q 323 931 328 946 q 310 904 318 916 q 291 885 302 892 q 268 878 280 878 q 235 883 250 878 q 208 896 219 888 q 190 916 196 905 q 183 939 183 926 m 454 939 q 459 971 454 956 q 472 999 464 987 q 491 1017 480 1010 q 514 1024 502 1024 q 547 1019 532 1024 q 574 1006 563 1015 q 592 986 586 998 q 599 963 599 975 q 594 931 599 946 q 581 904 589 916 q 562 885 572 892 q 538 878 551 878 q 505 883 521 878 q 478 896 490 888 q 461 916 467 905 q 454 939 454 926 z "},"ˆ":{"ha":677,"x_min":136,"x_max":542,"o":"m 542 865 l 457 858 l 326 1029 l 200 858 l 136 865 l 136 886 l 294 1139 l 384 1133 l 542 886 l 542 865 z "},"â":{"ha":780,"x_min":73,"x_max":754,"o":"m 637 90 l 754 66 l 741 0 l 568 -15 l 528 105 q 415 13 475 41 q 284 -15 355 -15 q 131 33 189 -15 q 73 161 73 80 q 183 348 73 285 q 515 412 293 412 l 515 476 q 478 624 515 578 q 349 669 441 669 q 299 667 327 669 q 247 659 271 664 l 206 515 l 140 522 l 140 714 q 240 740 180 728 q 361 751 300 751 q 569 689 500 751 q 637 498 637 628 l 637 90 m 515 330 q 334 317 413 330 q 214 281 256 304 q 201 238 206 262 q 195 186 195 214 q 233 98 195 130 q 330 66 270 66 q 431 92 381 66 q 515 153 480 117 l 515 330 m 578 865 l 493 858 l 362 1029 l 236 858 l 172 865 l 172 886 l 330 1139 l 420 1133 l 578 886 l 578 865 z "},"ê":{"ha":701,"x_min":65,"x_max":647,"o":"m 187 355 l 187 303 q 250 128 187 189 q 399 66 313 66 q 510 79 456 66 q 611 111 564 91 l 611 45 q 487 0 552 14 q 359 -15 422 -15 q 142 61 219 -15 q 65 281 65 137 l 65 337 q 152 641 65 532 q 387 751 238 751 q 586 681 525 751 q 647 436 647 610 l 647 355 l 187 355 m 228 629 q 202 536 213 591 q 189 436 192 482 l 518 436 q 483 614 518 559 q 368 669 447 669 q 290 657 328 669 q 228 629 251 645 m 593 865 l 508 858 l 377 1029 l 251 858 l 186 865 l 186 886 l 345 1139 l 435 1133 l 593 886 l 593 865 z "},"î":{"ha":448,"x_min":12,"x_max":418,"o":"m 298 90 l 401 66 l 388 0 l 85 0 l 72 66 l 176 90 l 176 646 l 72 669 l 85 736 l 298 751 l 298 90 m 418 865 l 334 858 l 203 1029 l 77 858 l 12 865 l 12 886 l 170 1139 l 260 1133 l 418 886 l 418 865 z "},"û":{"ha":856,"x_min":26,"x_max":825,"o":"m 252 273 q 289 117 252 168 q 416 66 326 66 q 513 90 465 66 q 599 153 561 113 l 599 646 l 475 669 l 488 736 l 721 751 l 721 90 l 825 66 l 811 0 l 652 -15 l 612 106 q 496 13 557 41 q 361 -15 435 -15 q 188 50 247 -15 q 130 243 130 114 l 130 646 l 26 669 l 39 736 l 252 751 l 252 273 m 616 865 l 532 858 l 401 1029 l 275 858 l 210 865 l 210 886 l 368 1139 l 458 1133 l 616 886 l 616 865 z "},"ĉ":{"ha":659,"x_min":65,"x_max":608,"o":"m 65 334 q 151 643 65 534 q 388 751 237 751 q 491 741 439 751 q 595 708 543 730 l 608 549 l 533 534 l 486 655 q 439 666 463 662 q 386 669 414 669 q 303 659 344 669 q 228 629 263 649 q 200 520 213 588 q 187 374 187 453 l 187 300 q 250 129 187 192 q 402 66 313 66 q 501 79 451 66 q 602 116 551 92 l 602 51 q 495 3 555 22 q 369 -15 434 -15 q 145 59 226 -15 q 65 271 65 132 l 65 334 m 595 865 l 510 858 l 379 1029 l 253 858 l 189 865 l 189 886 l 347 1139 l 437 1133 l 595 886 l 595 865 z "},"ĝ":{"ha":729,"x_min":62,"x_max":717,"o":"m 559 663 l 556 656 q 607 597 585 637 q 629 515 629 558 l 629 498 q 554 317 629 385 q 357 250 480 250 q 277 258 313 250 q 217 194 240 224 q 195 145 195 163 q 207 118 195 127 q 243 109 220 109 l 395 109 q 636 62 556 109 q 717 -85 717 15 q 623 -253 717 -195 q 356 -310 529 -310 q 134 -278 205 -310 q 62 -176 62 -246 q 99 -84 62 -130 q 204 6 136 -38 q 127 41 155 16 q 100 109 100 67 q 132 193 100 149 q 217 277 164 237 q 129 353 159 305 q 100 454 100 400 l 100 472 q 174 678 100 605 q 371 751 248 751 q 421 746 391 751 q 475 736 451 742 l 688 736 l 700 663 l 559 663 m 279 0 q 201 -74 231 -35 q 171 -146 171 -113 q 221 -211 171 -194 q 397 -229 271 -229 q 502 -220 449 -229 q 597 -194 555 -212 q 615 -155 608 -178 q 622 -109 622 -132 q 573 -24 622 -47 q 403 0 524 0 l 279 0 m 507 518 q 462 629 507 589 q 355 669 417 669 q 296 664 323 669 q 249 649 268 658 q 228 574 235 612 q 222 505 222 536 l 222 479 q 270 372 222 413 q 374 331 318 331 q 432 336 406 331 q 479 351 458 341 q 499 411 491 373 q 507 492 507 448 l 507 518 m 579 865 l 494 858 l 363 1029 l 237 858 l 173 865 l 173 886 l 331 1139 l 421 1133 l 579 886 l 579 865 z "},"ń":{"ha":913,"x_min":72,"x_max":871,"o":"m 72 66 l 176 90 l 176 646 l 72 669 l 85 736 l 245 751 l 284 630 q 397 719 334 687 q 530 751 460 751 q 709 687 652 751 q 767 492 767 624 l 767 90 l 871 66 l 857 0 l 555 0 l 541 66 l 645 90 l 645 463 q 611 618 645 566 q 490 669 578 669 q 395 647 445 669 q 298 582 345 625 l 298 90 l 401 66 l 388 0 l 85 0 l 72 66 m 426 886 l 564 1133 l 687 1126 l 687 1081 l 497 858 l 426 865 l 426 886 z "},"ŕ":{"ha":600,"x_min":72,"x_max":564,"o":"m 176 646 l 72 669 l 85 736 l 245 751 l 284 630 q 360 721 317 691 q 463 751 404 751 q 517 743 490 751 q 564 722 544 736 l 547 530 l 471 530 l 453 656 q 422 661 440 661 q 353 636 388 661 q 298 582 319 612 l 298 90 l 424 66 l 410 0 l 85 0 l 72 66 l 176 90 l 176 646 m 272 886 l 410 1133 l 533 1126 l 533 1081 l 343 858 l 272 865 l 272 886 z "},"ś":{"ha":658,"x_min":80,"x_max":604,"o":"m 387 421 q 566 298 528 349 q 604 184 604 247 q 526 40 604 96 q 320 -15 448 -15 q 191 -1 251 -15 q 92 33 130 14 l 85 195 l 159 209 l 199 82 q 257 70 225 74 q 321 66 289 66 q 394 71 358 66 q 468 85 431 75 q 478 118 475 100 q 481 153 481 136 q 438 239 481 201 q 270 343 395 277 q 119 449 157 402 q 80 556 80 496 q 151 696 80 641 q 353 751 222 751 q 472 738 414 751 q 571 705 530 726 l 577 541 l 503 528 l 463 656 q 406 666 436 663 q 349 669 375 669 q 279 664 313 669 q 217 650 245 659 q 207 622 211 640 q 202 587 202 605 q 233 518 202 550 q 387 421 264 486 m 300 886 l 438 1133 l 562 1126 l 562 1081 l 372 858 l 300 865 l 300 886 z "},"ŝ":{"ha":658,"x_min":80,"x_max":604,"o":"m 387 421 q 566 298 528 349 q 604 184 604 247 q 526 40 604 96 q 320 -15 448 -15 q 191 -1 251 -15 q 92 33 130 14 l 85 195 l 159 209 l 199 82 q 257 70 225 74 q 321 66 289 66 q 394 71 358 66 q 468 85 431 75 q 478 118 475 100 q 481 153 481 136 q 438 239 481 201 q 270 343 395 277 q 119 449 157 402 q 80 556 80 496 q 151 696 80 641 q 353 751 222 751 q 472 738 414 751 q 571 705 530 726 l 577 541 l 503 528 l 463 656 q 406 666 436 663 q 349 669 375 669 q 279 664 313 669 q 217 650 245 659 q 207 622 211 640 q 202 587 202 605 q 233 518 202 550 q 387 421 264 486 m 559 865 l 475 858 l 344 1029 l 218 858 l 153 865 l 153 886 l 311 1139 l 401 1133 l 559 886 l 559 865 z "},"ŵ":{"ha":1175,"x_min":-7,"x_max":1185,"o":"m 1185 669 l 1121 657 l 921 0 l 777 0 l 602 562 l 591 562 l 421 0 l 277 0 l 58 656 l -7 669 l 7 736 l 258 736 l 272 669 l 183 656 l 357 108 l 368 108 l 549 736 l 673 736 l 859 108 l 869 108 l 1027 656 l 937 669 l 950 736 l 1171 736 l 1185 669 m 819 865 l 734 858 l 604 1029 l 477 858 l 413 865 l 413 886 l 571 1139 l 661 1133 l 819 886 l 819 865 z "},"ŷ":{"ha":750,"x_min":-7,"x_max":761,"o":"m 527 736 l 747 736 l 761 669 l 695 656 l 453 1 q 333 -239 392 -168 q 180 -310 273 -310 q 99 -300 140 -310 q 33 -278 58 -290 l 57 -189 q 144 -213 94 -203 q 240 -224 195 -224 q 291 -173 266 -206 q 335 -85 315 -139 l 59 656 l -7 669 l 7 736 l 258 736 l 271 669 l 186 656 l 387 90 l 397 90 l 598 656 l 513 669 l 527 736 m 604 865 l 519 858 l 388 1029 l 262 858 l 197 865 l 197 886 l 355 1139 l 446 1133 l 604 886 l 604 865 z "},"ź":{"ha":656,"x_min":62,"x_max":614,"o":"m 503 75 l 538 203 l 608 196 l 608 0 l 62 0 l 62 64 l 465 653 l 460 661 l 189 661 l 154 532 l 83 540 l 83 736 l 614 736 l 614 680 l 206 83 l 210 75 l 503 75 m 303 886 l 441 1133 l 564 1126 l 564 1081 l 374 858 l 303 865 l 303 886 z "},"ẁ":{"ha":1175,"x_min":-7,"x_max":1185,"o":"m 1185 669 l 1121 657 l 921 0 l 777 0 l 602 562 l 591 562 l 421 0 l 277 0 l 58 656 l -7 669 l 7 736 l 258 736 l 272 669 l 183 656 l 357 108 l 368 108 l 549 736 l 673 736 l 859 108 l 869 108 l 1027 656 l 937 669 l 950 736 l 1171 736 l 1185 669 m 686 865 l 606 858 l 409 1081 l 409 1126 l 528 1133 l 686 886 l 686 865 z "},"ẃ":{"ha":1175,"x_min":-7,"x_max":1185,"o":"m 1185 669 l 1121 657 l 921 0 l 777 0 l 602 562 l 591 562 l 421 0 l 277 0 l 58 656 l -7 669 l 7 736 l 258 736 l 272 669 l 183 656 l 357 108 l 368 108 l 549 736 l 673 736 l 859 108 l 869 108 l 1027 656 l 937 669 l 950 736 l 1171 736 l 1185 669 m 560 886 l 698 1133 l 821 1126 l 821 1081 l 631 858 l 560 865 l 560 886 z "},"ẅ":{"ha":1175,"x_min":-7,"x_max":1185,"o":"m 1185 669 l 1121 657 l 921 0 l 777 0 l 602 562 l 591 562 l 421 0 l 277 0 l 58 656 l -7 669 l 7 736 l 258 736 l 272 669 l 183 656 l 357 108 l 368 108 l 549 736 l 673 736 l 859 108 l 869 108 l 1027 656 l 937 669 l 950 736 l 1171 736 l 1185 669 m 399 939 q 404 971 399 956 q 417 999 408 987 q 436 1017 425 1010 q 459 1024 447 1024 q 492 1019 477 1024 q 519 1006 508 1015 q 537 986 530 998 q 543 963 543 975 q 538 931 543 946 q 526 904 534 916 q 507 885 517 892 q 484 878 496 878 q 450 883 466 878 q 423 896 435 888 q 405 916 412 905 q 399 939 399 926 m 670 939 q 675 971 670 956 q 688 999 680 987 q 707 1017 696 1010 q 730 1024 718 1024 q 763 1019 747 1024 q 790 1006 779 1015 q 808 986 802 998 q 814 963 814 975 q 810 931 814 946 q 797 904 805 916 q 777 885 788 892 q 754 878 766 878 q 721 883 736 878 q 694 896 705 888 q 676 916 683 905 q 670 939 670 926 z "},"ˇ":{"ha":677,"x_min":136,"x_max":542,"o":"m 136 1126 l 220 1133 l 351 962 l 477 1133 l 542 1126 l 542 1104 l 384 851 l 294 858 l 136 1104 l 136 1126 z "},"ć":{"ha":659,"x_min":65,"x_max":608,"o":"m 65 334 q 151 643 65 534 q 388 751 237 751 q 491 741 439 751 q 595 708 543 730 l 608 549 l 533 534 l 486 655 q 439 666 463 662 q 386 669 414 669 q 303 659 344 669 q 228 629 263 649 q 200 520 213 588 q 187 374 187 453 l 187 300 q 250 129 187 192 q 402 66 313 66 q 501 79 451 66 q 602 116 551 92 l 602 51 q 495 3 555 22 q 369 -15 434 -15 q 145 59 226 -15 q 65 271 65 132 l 65 334 m 336 886 l 473 1133 l 597 1126 l 597 1081 l 407 858 l 336 865 l 336 886 z "},"č":{"ha":659,"x_min":65,"x_max":608,"o":"m 65 334 q 151 643 65 534 q 388 751 237 751 q 491 741 439 751 q 595 708 543 730 l 608 549 l 533 534 l 486 655 q 439 666 463 662 q 386 669 414 669 q 303 659 344 669 q 228 629 263 649 q 200 520 213 588 q 187 374 187 453 l 187 300 q 250 129 187 192 q 402 66 313 66 q 501 79 451 66 q 602 116 551 92 l 602 51 q 495 3 555 22 q 369 -15 434 -15 q 145 59 226 -15 q 65 271 65 132 l 65 334 m 191 1126 l 275 1133 l 406 962 l 532 1133 l 597 1126 l 597 1104 l 439 851 l 349 858 l 191 1104 l 191 1126 z "},"ě":{"ha":701,"x_min":65,"x_max":647,"o":"m 187 355 l 187 303 q 250 128 187 189 q 399 66 313 66 q 510 79 456 66 q 611 111 564 91 l 611 45 q 487 0 552 14 q 359 -15 422 -15 q 142 61 219 -15 q 65 281 65 137 l 65 337 q 152 641 65 532 q 387 751 238 751 q 586 681 525 751 q 647 436 647 610 l 647 355 l 187 355 m 228 629 q 202 536 213 591 q 189 436 192 482 l 518 436 q 483 614 518 559 q 368 669 447 669 q 290 657 328 669 q 228 629 251 645 m 189 1126 l 273 1133 l 404 962 l 530 1133 l 595 1126 l 595 1104 l 437 851 l 347 858 l 189 1104 l 189 1126 z "},"ĵ":{"ha":386,"x_min":-71,"x_max":391,"o":"m 279 -32 q 265 -166 279 -113 q 223 -252 250 -220 q 157 -297 196 -283 q 71 -310 119 -310 q 15 -306 41 -310 q -30 -298 -11 -302 q -71 -285 -52 -292 l -46 -196 q 13 -210 -18 -204 q 70 -220 39 -216 q 130 -224 101 -224 q 144 -184 138 -208 q 153 -132 149 -163 q 157 -58 157 -101 l 157 646 l 33 669 l 47 736 l 279 751 l 279 -32 m 391 865 l 306 858 l 175 1029 l 49 858 l -16 865 l -16 886 l 142 1139 l 233 1133 l 391 886 l 391 865 z "},"ň":{"ha":913,"x_min":72,"x_max":871,"o":"m 72 66 l 176 90 l 176 646 l 72 669 l 85 736 l 245 751 l 284 630 q 397 719 334 687 q 530 751 460 751 q 709 687 652 751 q 767 492 767 624 l 767 90 l 871 66 l 857 0 l 555 0 l 541 66 l 645 90 l 645 463 q 611 618 645 566 q 490 669 578 669 q 395 647 445 669 q 298 582 345 625 l 298 90 l 401 66 l 388 0 l 85 0 l 72 66 m 281 1126 l 366 1133 l 496 962 l 623 1133 l 687 1126 l 687 1104 l 529 851 l 439 858 l 281 1104 l 281 1126 z "},"ř":{"ha":600,"x_min":72,"x_max":564,"o":"m 176 646 l 72 669 l 85 736 l 245 751 l 284 630 q 360 721 317 691 q 463 751 404 751 q 517 743 490 751 q 564 722 544 736 l 547 530 l 471 530 l 453 656 q 422 661 440 661 q 353 636 388 661 q 298 582 319 612 l 298 90 l 424 66 l 410 0 l 85 0 l 72 66 l 176 90 l 176 646 m 127 1126 l 212 1133 l 343 962 l 469 1133 l 534 1126 l 534 1104 l 376 851 l 286 858 l 127 1104 l 127 1126 z "},"š":{"ha":658,"x_min":80,"x_max":604,"o":"m 387 421 q 566 298 528 349 q 604 184 604 247 q 526 40 604 96 q 320 -15 448 -15 q 191 -1 251 -15 q 92 33 130 14 l 85 195 l 159 209 l 199 82 q 257 70 225 74 q 321 66 289 66 q 394 71 358 66 q 468 85 431 75 q 478 118 475 100 q 481 153 481 136 q 438 239 481 201 q 270 343 395 277 q 119 449 157 402 q 80 556 80 496 q 151 696 80 641 q 353 751 222 751 q 472 738 414 751 q 571 705 530 726 l 577 541 l 503 528 l 463 656 q 406 666 436 663 q 349 669 375 669 q 279 664 313 669 q 217 650 245 659 q 207 622 211 640 q 202 587 202 605 q 233 518 202 550 q 387 421 264 486 m 155 1126 l 240 1133 l 371 962 l 497 1133 l 562 1126 l 562 1104 l 404 851 l 313 858 l 155 1104 l 155 1126 z "},"ž":{"ha":656,"x_min":62,"x_max":614,"o":"m 503 75 l 538 203 l 608 196 l 608 0 l 62 0 l 62 64 l 465 653 l 460 661 l 189 661 l 154 532 l 83 540 l 83 736 l 614 736 l 614 680 l 206 83 l 210 75 l 503 75 m 158 1126 l 243 1133 l 374 962 l 500 1133 l 564 1126 l 564 1104 l 406 851 l 316 858 l 158 1104 l 158 1126 z "},"@":{"ha":1261,"x_min":95,"x_max":1221,"o":"m 511 355 q 510 190 496 248 q 569 133 524 133 q 618 146 594 133 q 664 178 642 159 q 705 222 686 198 q 738 267 724 245 q 762 306 753 289 q 774 328 771 322 l 817 642 q 785 652 803 648 q 751 660 770 656 q 709 664 731 664 q 665 659 686 664 q 627 647 644 653 q 592 630 608 640 q 562 567 576 604 q 536 489 549 535 q 514 379 523 442 l 511 355 m 974 -112 q 868 -161 926 -140 q 752 -195 819 -180 q 610 -210 686 -210 q 470 -201 536 -210 q 346 -170 403 -191 q 242 -114 288 -149 q 163 -30 195 -79 q 113 86 130 20 q 95 237 95 153 q 117 431 95 340 q 180 600 139 522 q 278 739 220 677 q 408 843 336 800 q 563 909 479 886 q 739 932 647 932 q 943 902 853 932 q 1094 816 1032 871 q 1188 682 1156 760 q 1221 509 1221 604 q 1205 361 1221 425 q 1164 249 1190 297 q 1105 168 1139 201 q 1036 113 1072 134 q 964 82 1000 92 q 898 69 928 71 l 799 60 l 744 113 l 762 241 q 748 218 758 234 q 722 181 738 201 q 686 139 707 161 q 642 100 666 118 q 589 71 617 83 q 530 60 561 60 q 454 73 486 60 q 403 114 422 85 q 378 186 384 142 q 380 295 372 231 l 389 358 q 425 500 399 434 q 491 615 450 566 q 588 693 532 665 q 713 721 644 721 q 795 712 755 721 q 869 694 836 704 q 943 668 907 682 l 867 128 q 917 137 891 130 q 969 160 943 144 q 1018 201 995 176 q 1060 265 1042 227 q 1088 357 1078 304 q 1099 481 1099 410 q 1076 638 1099 570 q 1007 755 1054 707 q 889 827 960 802 q 719 851 817 851 q 582 830 647 851 q 460 769 516 808 q 360 676 405 730 q 283 556 315 622 q 234 414 251 490 q 217 258 217 338 q 251 73 217 147 q 342 -46 285 -1 q 476 -110 399 -91 q 637 -129 552 -129 q 770 -117 709 -129 q 876 -92 831 -106 q 974 -54 929 -75 l 974 -112 z "},"ỳ":{"ha":750,"x_min":-7,"x_max":761,"o":"m 527 736 l 747 736 l 761 669 l 695 656 l 453 1 q 333 -239 392 -168 q 180 -310 273 -310 q 99 -300 140 -310 q 33 -278 58 -290 l 57 -189 q 144 -213 94 -203 q 240 -224 195 -224 q 291 -173 266 -206 q 335 -85 315 -139 l 59 656 l -7 669 l 7 736 l 258 736 l 271 669 l 186 656 l 387 90 l 397 90 l 598 656 l 513 669 l 527 736 m 470 865 l 390 858 l 193 1081 l 193 1126 l 312 1133 l 470 886 l 470 865 z "},"?":{"ha":691,"x_min":81,"x_max":623,"o":"m 370 514 q 309 448 328 476 q 290 391 290 420 q 306 350 290 364 q 352 336 322 336 q 388 339 371 336 q 418 347 406 342 q 446 357 433 351 l 446 289 q 412 272 431 279 q 373 260 396 265 q 322 255 351 255 q 263 263 292 255 q 214 288 235 271 q 180 330 193 305 q 168 390 168 355 q 174 438 168 414 q 194 487 180 462 q 231 538 208 511 q 287 595 254 564 l 390 690 q 442 740 420 718 q 476 782 463 762 q 495 822 490 802 q 501 863 501 841 q 492 908 501 887 q 461 944 482 928 q 408 969 441 960 q 328 978 375 978 q 275 975 298 978 q 237 967 252 971 q 205 956 218 962 l 157 804 l 81 815 l 81 1003 q 153 1031 113 1019 q 236 1050 188 1042 q 346 1059 285 1059 q 464 1047 412 1059 q 551 1010 516 1034 q 605 950 587 985 q 623 869 623 915 q 616 800 623 831 q 591 739 608 768 q 544 678 573 709 q 473 608 515 647 l 370 514 m 201 54 q 206 98 201 77 q 221 135 212 119 q 242 161 230 151 q 269 170 255 170 q 315 165 294 170 q 352 150 336 159 q 376 127 368 140 q 385 100 385 115 q 380 57 385 77 q 365 20 374 36 q 343 -5 356 4 q 316 -15 330 -15 q 271 -9 292 -15 q 234 5 250 -4 q 210 27 218 14 q 201 54 201 39 z "},"¿":{"ha":664,"x_min":68,"x_max":610,"o":"m 321 222 q 382 290 363 260 q 401 349 401 319 q 385 387 401 375 q 339 399 369 399 q 302 396 319 399 q 273 389 286 393 q 245 378 258 384 l 245 447 q 279 464 260 456 q 318 475 295 470 q 369 481 340 481 q 427 473 399 481 q 476 448 455 465 q 511 407 498 432 q 524 350 524 382 q 517 299 524 323 q 497 250 511 275 q 460 198 483 225 q 404 141 437 172 l 301 46 q 249 -5 271 18 q 215 -49 228 -28 q 196 -88 201 -69 q 190 -127 190 -107 q 199 -167 190 -149 q 230 -199 209 -185 q 283 -221 250 -213 q 363 -229 316 -229 q 416 -225 393 -229 q 454 -219 438 -222 q 486 -210 471 -215 l 534 -54 l 610 -66 l 610 -254 q 538 -282 578 -270 q 454 -301 503 -293 q 345 -310 406 -310 q 139 -263 211 -310 q 68 -125 68 -216 q 77 -59 68 -90 q 104 2 85 -28 q 151 62 122 31 q 218 128 179 92 l 321 222 m 490 682 q 485 637 490 659 q 470 601 479 616 q 449 575 461 585 q 422 566 436 566 q 376 571 397 566 q 339 586 355 576 q 315 609 323 596 q 306 635 306 621 q 311 679 306 659 q 326 716 317 700 q 348 741 335 732 q 375 751 361 751 q 420 745 399 751 q 457 731 441 740 q 481 709 473 722 q 490 682 490 696 z "},"'":{"ha":235,"x_min":47,"x_max":174,"o":"m 47 1044 l 174 1044 l 174 1016 l 131 785 l 47 785 l 47 1044 z "},"\"":{"ha":410,"x_min":47,"x_max":349,"o":"m 47 1044 l 174 1044 l 174 1016 l 131 785 l 47 785 l 47 1044 m 222 1044 l 349 1044 l 349 1016 l 306 785 l 222 785 l 222 1044 z "},"‚":{"ha":320,"x_min":81,"x_max":266,"o":"m 81 49 q 86 90 81 71 q 100 124 92 109 q 120 148 109 139 q 144 156 132 156 q 195 149 169 156 q 238 123 221 141 q 257 90 249 112 q 266 24 266 67 q 261 -37 266 -7 q 242 -96 256 -66 q 202 -159 228 -127 q 132 -229 176 -191 l 90 -179 q 164 -100 144 -134 q 184 -40 184 -66 q 175 -21 184 -28 q 150 -10 165 -14 q 100 13 119 -3 q 81 49 81 29 z "},"’":{"ha":262,"x_min":33,"x_max":217,"o":"m 33 952 q 38 993 33 974 q 51 1027 43 1013 q 71 1051 60 1042 q 96 1059 83 1059 q 146 1052 120 1059 q 189 1027 172 1044 q 209 993 200 1015 q 217 927 217 970 q 212 867 217 896 q 193 807 208 838 q 153 744 179 777 q 83 675 127 712 l 41 724 q 115 803 95 769 q 136 863 136 838 q 126 882 136 876 q 101 893 116 889 q 52 917 71 901 q 33 952 33 932 z "},"‘":{"ha":320,"x_min":41,"x_max":225,"o":"m 225 782 q 220 741 225 760 q 207 707 215 722 q 186 683 198 692 q 162 675 175 675 q 112 682 138 675 q 68 707 85 690 q 58 722 63 713 q 49 741 53 730 q 43 769 45 753 q 41 807 41 785 q 45 867 41 838 q 64 927 50 897 q 105 990 79 958 q 174 1059 131 1022 l 216 1010 q 142 931 163 965 q 122 871 122 897 q 132 852 122 859 q 157 841 142 845 q 206 818 187 833 q 225 782 225 802 z "},"”":{"ha":499,"x_min":33,"x_max":454,"o":"m 33 952 q 38 993 33 974 q 51 1027 43 1013 q 71 1051 60 1042 q 96 1059 83 1059 q 146 1052 120 1059 q 189 1027 172 1044 q 209 993 200 1015 q 217 927 217 970 q 212 867 217 896 q 193 807 208 838 q 153 744 179 777 q 83 675 127 712 l 41 724 q 115 803 95 769 q 136 863 136 838 q 126 882 136 876 q 101 893 116 889 q 52 917 71 901 q 33 952 33 932 m 270 952 q 275 993 270 974 q 289 1027 280 1013 q 309 1051 297 1042 q 333 1059 320 1059 q 384 1052 357 1059 q 427 1027 410 1044 q 446 993 437 1015 q 454 927 454 970 q 450 867 454 896 q 431 807 445 838 q 390 744 416 777 q 321 675 364 712 l 279 724 q 353 803 332 769 q 373 863 373 838 q 363 882 373 876 q 338 893 353 889 q 289 917 308 901 q 270 952 270 932 z "},"“":{"ha":557,"x_min":41,"x_max":463,"o":"m 225 782 q 220 741 225 760 q 207 707 215 722 q 186 683 198 692 q 162 675 175 675 q 112 682 138 675 q 68 707 85 690 q 58 722 63 713 q 49 741 53 730 q 43 769 45 753 q 41 807 41 785 q 45 867 41 838 q 64 927 50 897 q 105 990 79 958 q 174 1059 131 1022 l 216 1010 q 142 931 163 965 q 122 871 122 897 q 132 852 122 859 q 157 841 142 845 q 206 818 187 833 q 225 782 225 802 m 463 782 q 457 741 463 760 q 444 707 452 722 q 424 683 435 692 q 399 675 412 675 q 349 682 375 675 q 306 707 323 690 q 295 722 300 713 q 287 741 290 730 q 280 769 283 753 q 278 807 278 785 q 283 867 278 838 q 302 927 288 897 q 342 990 316 958 q 412 1059 368 1022 l 454 1010 q 380 931 400 965 q 359 871 359 897 q 369 852 359 859 q 394 841 379 845 q 444 818 425 833 q 463 782 463 802 z "},"„":{"ha":558,"x_min":81,"x_max":504,"o":"m 81 49 q 86 90 81 71 q 100 124 92 109 q 120 148 109 139 q 144 156 132 156 q 195 149 169 156 q 238 123 221 141 q 257 90 249 112 q 266 24 266 67 q 261 -37 266 -7 q 242 -96 256 -66 q 202 -159 228 -127 q 132 -229 176 -191 l 90 -179 q 164 -100 144 -134 q 184 -40 184 -66 q 175 -21 184 -28 q 150 -10 165 -14 q 100 13 119 -3 q 81 49 81 29 m 319 49 q 325 90 319 71 q 338 124 330 109 q 358 148 347 139 q 382 156 370 156 q 433 149 407 156 q 476 123 459 141 q 495 90 487 112 q 504 24 504 67 q 499 -37 504 -7 q 480 -96 494 -66 q 440 -159 466 -127 q 370 -229 414 -191 l 328 -179 q 402 -100 382 -134 q 422 -40 422 -66 q 413 -21 422 -28 q 388 -10 403 -14 q 338 13 357 -3 q 319 49 319 29 z "},"-":{"ha":545,"x_min":41,"x_max":511,"o":"m 41 452 l 511 452 l 511 353 l 41 353 l 41 452 z "},"§":{"ha":793,"x_min":88,"x_max":718,"o":"m 472 665 q 574 605 529 634 q 652 545 620 576 q 701 477 684 513 q 718 395 718 441 q 690 294 718 336 q 618 222 662 252 q 658 165 644 195 q 671 98 671 136 q 653 15 671 50 q 600 -43 635 -20 q 512 -76 564 -65 q 394 -87 460 -87 q 291 -80 336 -87 q 213 -63 245 -73 q 146 -39 176 -53 l 161 137 l 236 137 l 253 10 q 290 2 269 5 q 332 -3 307 -1 q 389 -5 357 -5 q 454 -2 425 -5 q 505 4 483 1 q 549 14 530 8 q 556 33 553 22 q 561 54 559 41 q 563 81 563 66 q 549 123 563 102 q 503 167 534 144 q 422 218 472 191 q 303 281 373 246 q 212 333 252 307 q 145 387 172 358 q 103 450 117 416 q 88 527 88 484 q 116 631 88 587 q 186 708 144 675 q 153 757 165 731 q 142 816 142 783 q 155 890 142 855 q 201 950 169 924 q 286 991 233 976 q 418 1006 339 1006 q 515 999 473 1006 q 587 983 557 992 q 646 960 621 973 l 630 784 l 555 784 l 538 911 q 505 918 524 915 q 468 923 490 920 q 421 925 447 925 q 356 922 385 925 q 307 916 328 920 q 265 907 283 912 q 258 890 260 900 q 252 869 254 881 q 250 842 250 857 q 262 803 250 821 q 299 765 273 785 q 368 722 326 745 q 472 665 410 698 m 383 370 q 479 317 436 341 q 557 271 523 294 q 596 319 583 292 q 610 381 610 347 q 597 432 610 409 q 558 476 585 454 q 491 522 532 498 q 393 576 450 546 q 312 621 349 600 q 244 661 275 641 q 208 612 218 637 q 197 551 197 587 q 206 504 197 525 q 237 462 216 483 q 295 419 259 441 q 383 370 331 397 z "},"/":{"ha":565,"x_min":41,"x_max":538,"o":"m 426 1044 l 538 1044 l 538 1031 l 153 -200 l 41 -200 l 41 -186 l 426 1044 z "},"\\":{"ha":565,"x_min":27,"x_max":524,"o":"m 524 -186 l 524 -200 l 412 -200 l 27 1031 l 27 1044 l 139 1044 l 524 -186 z "},"[":{"ha":430,"x_min":122,"x_max":365,"o":"m 122 1137 l 365 1137 l 365 1072 l 235 1072 l 235 -245 l 365 -245 l 365 -310 l 122 -310 l 122 1137 z "},"]":{"ha":430,"x_min":65,"x_max":308,"o":"m 308 -310 l 65 -310 l 65 -245 l 195 -245 l 195 1072 l 65 1072 l 65 1137 l 308 1137 l 308 -310 z "},"_":{"ha":757,"x_min":41,"x_max":743,"o":"m 41 -159 l 743 -159 l 743 -257 l 41 -257 l 41 -159 z "},"!":{"ha":401,"x_min":122,"x_max":307,"o":"m 122 54 q 127 98 122 77 q 142 135 133 119 q 164 161 151 151 q 191 170 176 170 q 236 165 215 170 q 273 150 257 159 q 298 127 289 140 q 307 100 307 115 q 301 57 307 77 q 287 20 296 36 q 264 -5 277 4 q 237 -15 252 -15 q 192 -9 213 -15 q 155 5 171 -4 q 131 27 140 14 q 122 54 122 39 m 144 1044 l 278 1059 l 292 1044 l 266 251 l 170 251 l 144 1044 z "},"¡":{"ha":388,"x_min":95,"x_max":279,"o":"m 279 682 q 274 637 279 659 q 259 601 269 616 q 238 575 250 585 q 211 566 225 566 q 165 571 186 566 q 129 586 144 576 q 104 609 113 596 q 95 635 95 621 q 100 679 95 659 q 115 716 106 700 q 137 741 124 732 q 164 751 150 751 q 210 745 189 751 q 246 731 231 740 q 271 709 262 722 q 279 682 279 696 m 256 -295 l 124 -310 l 111 -295 l 136 485 l 231 485 l 256 -295 z "},"*":{"ha":529,"x_min":10,"x_max":509,"o":"m 290 748 l 311 560 l 311 544 l 208 544 l 208 560 l 229 748 l 76 636 l 62 628 l 11 718 l 24 726 l 197 802 l 24 878 l 10 886 l 62 975 l 76 967 l 229 855 l 208 1043 l 208 1059 l 311 1059 l 311 1043 l 290 855 l 443 967 l 457 975 l 508 886 l 494 878 l 321 802 l 495 726 l 509 718 l 457 628 l 443 636 l 290 748 z "},"·":{"ha":396,"x_min":122,"x_max":288,"o":"m 122 444 q 127 484 122 465 q 140 517 132 503 q 160 539 149 531 q 183 548 171 548 q 224 543 205 548 q 257 530 243 538 q 279 510 271 522 q 288 486 288 498 q 283 446 288 465 q 270 413 278 427 q 250 390 261 399 q 226 382 239 382 q 185 387 204 382 q 152 400 166 391 q 130 419 138 408 q 122 444 122 431 z "},"&":{"ha":976,"x_min":52,"x_max":1048,"o":"m 824 352 q 802 238 824 292 q 740 137 781 184 q 825 90 784 106 q 902 73 865 73 q 959 76 932 73 q 1006 84 986 79 q 1048 96 1029 89 l 1048 31 q 1005 7 1030 18 q 952 -8 983 -1 q 881 -15 922 -15 q 770 6 826 -15 q 657 66 715 28 q 523 6 598 28 q 357 -15 448 -15 q 230 -3 286 -15 q 134 33 173 9 q 73 96 94 58 q 52 186 52 134 l 52 206 q 69 290 52 251 q 114 362 86 329 q 177 423 142 395 q 250 471 212 450 q 177 588 203 537 q 151 677 151 639 l 151 698 q 171 787 151 745 q 228 862 190 829 q 320 913 265 895 q 446 932 375 932 q 543 920 501 932 q 613 883 585 907 q 656 825 642 859 q 670 749 670 791 l 670 730 q 652 657 670 691 q 601 591 635 623 q 519 527 568 559 q 408 458 470 494 q 530 321 466 389 q 661 197 595 253 q 696 270 684 230 q 709 357 709 310 l 709 374 l 605 397 l 618 464 l 824 479 l 824 352 m 370 73 q 485 86 432 73 q 581 124 538 99 q 443 254 511 182 q 306 406 374 326 q 247 365 271 385 q 208 321 222 344 q 187 275 193 299 q 181 222 181 250 l 181 212 q 196 153 181 179 q 237 110 212 127 q 298 82 263 92 q 370 73 332 73 m 541 725 q 531 777 541 754 q 504 814 522 799 q 463 837 487 829 q 411 845 439 845 q 373 843 390 845 q 342 838 355 841 q 314 831 326 836 q 297 800 304 817 q 285 765 290 785 q 280 722 280 745 l 280 710 q 284 662 280 684 q 297 619 288 640 q 321 576 307 598 q 356 526 336 553 q 429 569 395 547 q 487 616 463 592 q 527 664 512 640 q 541 714 541 689 l 541 725 z "},"•":{"ha":502,"x_min":95,"x_max":414,"o":"m 95 395 q 104 472 95 435 q 130 536 114 509 q 168 581 146 564 q 214 597 189 597 q 292 587 256 597 q 356 562 329 578 q 398 524 382 545 q 414 477 414 502 q 404 401 414 437 q 378 337 395 365 q 340 294 362 310 q 294 277 319 277 q 216 287 252 277 q 153 312 180 296 q 110 350 125 328 q 95 395 95 371 z "},"¸":{"ha":555,"x_min":136,"x_max":419,"o":"m 322 25 l 289 -66 q 341 -83 317 -74 q 382 -107 365 -93 q 409 -140 399 -121 q 419 -186 419 -159 q 409 -236 419 -214 q 378 -275 398 -259 q 329 -301 358 -292 q 264 -310 300 -310 q 214 -305 237 -310 q 174 -294 191 -300 q 136 -278 153 -287 l 136 -215 q 174 -229 154 -222 q 214 -238 192 -234 q 258 -242 235 -242 q 282 -241 271 -242 q 300 -238 292 -239 q 314 -233 308 -236 q 319 -222 316 -229 q 322 -209 320 -216 q 323 -193 323 -201 q 297 -150 323 -167 q 214 -119 271 -133 l 191 -82 l 233 25 l 322 25 z "},"ç":{"ha":659,"x_min":65,"x_max":608,"o":"m 65 334 q 151 643 65 534 q 388 751 237 751 q 491 741 439 751 q 595 708 543 730 l 608 549 l 533 534 l 486 655 q 439 666 463 662 q 386 669 414 669 q 303 659 344 669 q 228 629 263 649 q 200 520 213 588 q 187 374 187 453 l 187 300 q 250 129 187 192 q 402 66 313 66 q 501 79 451 66 q 602 116 551 92 l 602 51 q 494 3 555 22 q 411 -13 454 -9 l 392 -66 q 444 -83 420 -74 q 485 -107 468 -93 q 512 -140 503 -121 q 522 -186 522 -159 q 512 -236 522 -214 q 481 -275 501 -259 q 432 -301 461 -292 q 368 -310 404 -310 q 317 -305 340 -310 q 277 -294 294 -300 q 239 -278 256 -287 l 239 -215 q 277 -229 257 -222 q 317 -238 295 -234 q 361 -242 338 -242 q 385 -241 374 -242 q 403 -238 395 -239 q 417 -233 411 -236 q 422 -222 419 -229 q 425 -209 423 -216 q 427 -193 427 -201 q 400 -150 427 -167 q 317 -119 374 -133 l 294 -82 l 321 -12 q 145 58 212 -2 q 65 271 65 132 l 65 334 z "},"Ç":{"ha":798,"x_min":68,"x_max":741,"o":"m 68 410 q 172 800 68 668 q 478 932 277 932 q 608 922 543 932 q 724 892 674 912 l 739 709 l 667 694 l 611 827 q 545 840 585 835 q 460 845 505 845 q 349 829 401 845 q 257 785 296 814 q 213 636 230 723 q 197 463 197 549 l 197 373 q 276 150 197 228 q 490 73 356 73 q 621 93 554 73 q 741 143 688 113 l 741 71 q 601 7 677 31 q 489 -13 545 -9 l 470 -66 q 522 -83 498 -74 q 563 -107 546 -93 q 590 -140 581 -121 q 600 -186 600 -159 q 590 -236 600 -214 q 559 -275 579 -259 q 510 -301 539 -292 q 446 -310 481 -310 q 395 -305 418 -310 q 355 -294 372 -300 q 317 -278 334 -287 l 317 -215 q 355 -229 335 -222 q 395 -238 373 -234 q 439 -242 416 -242 q 463 -241 452 -242 q 481 -238 473 -239 q 495 -233 489 -236 q 500 -222 497 -229 q 503 -209 501 -216 q 505 -193 505 -201 q 478 -150 505 -167 q 395 -119 452 -133 l 372 -82 l 399 -13 q 164 76 248 -2 q 68 349 68 167 l 68 410 z "},"Æ":{"ha":1208,"x_min":-8,"x_max":1138,"o":"m -8 66 l 80 87 l 513 918 l 1101 918 l 1118 714 l 1048 699 l 991 830 l 685 830 l 685 524 l 927 524 l 950 606 l 1017 593 l 1017 366 l 950 353 l 927 436 l 685 436 l 685 87 l 1011 87 l 1067 218 l 1138 203 l 1122 0 l 466 0 l 452 66 l 556 90 l 556 275 l 290 275 l 193 85 l 266 66 l 252 0 l 5 0 l -8 66 m 556 363 l 556 793 l 335 363 l 556 363 z "},"Œ":{"ha":1221,"x_min":69,"x_max":1151,"o":"m 940 524 l 963 606 l 1030 593 l 1030 366 l 963 353 l 940 436 l 698 436 l 698 87 l 1024 87 l 1080 218 l 1151 203 l 1135 0 l 572 0 q 450 -15 517 -15 q 165 78 260 -15 q 69 356 69 172 l 69 410 q 93 635 69 537 q 166 799 117 732 q 289 899 215 865 q 463 932 363 932 q 534 929 500 932 q 598 918 568 925 l 1114 918 l 1131 714 l 1061 699 l 1004 830 l 698 830 l 698 524 l 940 524 m 443 845 q 361 836 398 845 q 299 815 325 827 q 245 785 269 802 q 221 698 231 746 q 205 600 212 656 q 198 477 198 544 l 198 387 q 220 246 198 305 q 280 148 243 186 q 367 91 317 109 q 470 73 416 73 q 523 76 498 73 q 569 86 547 80 l 569 821 q 509 839 541 833 q 443 845 477 845 z "},"Ñ":{"ha":1039,"x_min":49,"x_max":1001,"o":"m 153 828 l 49 851 l 62 918 l 347 918 l 791 92 l 802 92 l 802 828 l 698 851 l 711 918 l 987 918 l 1001 851 l 898 828 l 898 0 l 703 0 l 258 826 l 248 826 l 248 90 l 351 66 l 337 0 l 62 0 l 49 66 l 153 90 l 153 828 m 254 1031 q 293 1147 254 1107 q 403 1186 333 1186 q 477 1172 439 1186 q 549 1141 515 1158 q 612 1111 583 1124 q 661 1097 642 1097 q 702 1117 687 1097 q 718 1178 718 1137 l 797 1185 l 797 1153 q 761 1039 797 1081 q 656 998 724 998 q 584 1011 623 998 q 507 1042 545 1025 q 437 1073 469 1059 q 387 1087 406 1087 q 362 1084 373 1087 q 343 1074 351 1082 q 332 1054 336 1067 q 328 1021 328 1041 l 254 1014 l 254 1031 z "},"Á":{"ha":826,"x_min":-5,"x_max":831,"o":"m -5 66 l 68 86 l 366 918 l 467 918 l 758 86 l 831 66 l 818 0 l 557 0 l 543 66 l 630 86 l 566 275 l 233 275 l 168 86 l 255 66 l 241 0 l 8 0 l -5 66 m 264 363 l 536 363 l 405 749 l 398 749 l 264 363 m 320 1019 l 522 1210 l 652 1203 l 652 1158 l 398 990 l 320 998 l 320 1019 z "},"É":{"ha":808,"x_min":52,"x_max":737,"o":"m 284 436 l 284 87 l 610 87 l 667 218 l 737 203 l 721 0 l 65 0 l 52 66 l 155 90 l 155 828 l 52 851 l 65 918 l 701 918 l 717 714 l 647 699 l 591 830 l 284 830 l 284 524 l 526 524 l 549 606 l 616 593 l 616 366 l 549 353 l 526 436 l 284 436 m 303 1019 l 505 1210 l 635 1203 l 635 1158 l 381 990 l 303 998 l 303 1019 z "},"Í":{"ha":436,"x_min":49,"x_max":452,"o":"m 153 828 l 49 851 l 62 918 l 371 918 l 385 851 l 281 828 l 281 90 l 385 66 l 371 0 l 62 0 l 49 66 l 153 90 l 153 828 m 119 1019 l 321 1210 l 452 1203 l 452 1158 l 197 990 l 119 998 l 119 1019 z "},"Ó":{"ha":912,"x_min":69,"x_max":843,"o":"m 450 -15 q 165 78 260 -15 q 69 356 69 172 l 69 410 q 170 803 69 673 q 463 932 270 932 q 747 840 652 932 q 843 561 843 747 l 843 508 q 745 119 843 252 q 450 -15 648 -15 m 714 531 q 643 768 714 691 q 443 845 572 845 q 329 826 382 845 q 245 785 275 808 q 211 645 224 723 q 198 477 198 568 l 198 387 q 274 155 198 237 q 470 73 351 73 q 582 91 530 73 q 668 133 635 109 q 702 282 690 201 q 714 441 714 363 l 714 531 m 354 1019 l 556 1210 l 686 1203 l 686 1158 l 432 990 l 354 998 l 354 1019 z "},"Ú":{"ha":921,"x_min":11,"x_max":910,"o":"m 244 370 q 308 146 244 219 q 484 73 372 73 q 584 88 537 73 q 659 124 631 104 q 696 226 682 166 q 711 353 711 286 l 711 828 l 608 851 l 621 918 l 897 918 l 910 851 l 807 828 l 807 369 q 721 78 807 172 q 456 -15 635 -15 q 201 70 288 -15 q 115 333 115 154 l 115 828 l 11 851 l 24 918 l 334 918 l 347 851 l 244 828 l 244 370 m 382 1019 l 585 1210 l 715 1203 l 715 1158 l 460 990 l 382 998 l 382 1019 z "},"Â":{"ha":826,"x_min":-5,"x_max":831,"o":"m -5 66 l 68 86 l 366 918 l 467 918 l 758 86 l 831 66 l 818 0 l 557 0 l 543 66 l 630 86 l 566 275 l 233 275 l 168 86 l 255 66 l 241 0 l 8 0 l -5 66 m 264 363 l 536 363 l 405 749 l 398 749 l 264 363 m 658 997 l 573 990 l 412 1120 l 255 990 l 191 997 l 191 1019 l 382 1217 l 473 1210 l 658 1019 l 658 997 z "},"Ã":{"ha":826,"x_min":-5,"x_max":831,"o":"m -5 66 l 68 86 l 366 918 l 467 918 l 758 86 l 831 66 l 818 0 l 557 0 l 543 66 l 630 86 l 566 275 l 233 275 l 168 86 l 255 66 l 241 0 l 8 0 l -5 66 m 264 363 l 536 363 l 405 749 l 398 749 l 264 363 m 145 1031 q 185 1147 145 1107 q 294 1186 224 1186 q 369 1172 331 1186 q 440 1141 406 1158 q 504 1111 475 1124 q 553 1097 533 1097 q 594 1117 578 1097 q 609 1178 609 1137 l 688 1185 l 688 1153 q 652 1039 688 1081 q 547 998 616 998 q 475 1011 514 998 q 398 1042 436 1025 q 329 1073 361 1059 q 278 1087 297 1087 q 253 1084 264 1087 q 235 1074 242 1082 q 223 1054 227 1067 q 219 1021 219 1041 l 145 1014 l 145 1031 z "},"Ä":{"ha":826,"x_min":-5,"x_max":831,"o":"m -5 66 l 68 86 l 366 918 l 467 918 l 758 86 l 831 66 l 818 0 l 557 0 l 543 66 l 630 86 l 566 275 l 233 275 l 168 86 l 255 66 l 241 0 l 8 0 l -5 66 m 264 363 l 536 363 l 405 749 l 398 749 l 264 363 m 188 1072 q 193 1105 188 1089 q 206 1132 197 1120 q 225 1151 214 1144 q 248 1158 236 1158 q 281 1153 266 1158 q 308 1140 297 1148 q 326 1121 319 1132 q 332 1097 332 1109 q 328 1064 332 1080 q 315 1037 323 1049 q 296 1019 307 1025 q 273 1012 285 1012 q 239 1017 255 1012 q 212 1030 224 1021 q 194 1049 201 1038 q 188 1072 188 1060 m 500 1072 q 505 1105 500 1089 q 517 1132 509 1120 q 536 1151 526 1144 q 559 1158 547 1158 q 593 1153 577 1158 q 620 1140 608 1148 q 638 1121 631 1132 q 644 1097 644 1109 q 640 1064 644 1080 q 626 1037 635 1049 q 607 1019 618 1025 q 584 1012 596 1012 q 551 1017 566 1012 q 524 1030 535 1021 q 506 1049 513 1038 q 500 1072 500 1060 z "},"È":{"ha":808,"x_min":52,"x_max":737,"o":"m 284 436 l 284 87 l 610 87 l 667 218 l 737 203 l 721 0 l 65 0 l 52 66 l 155 90 l 155 828 l 52 851 l 65 918 l 701 918 l 717 714 l 647 699 l 591 830 l 284 830 l 284 524 l 526 524 l 549 606 l 616 593 l 616 366 l 549 353 l 526 436 l 284 436 m 522 998 l 444 990 l 189 1158 l 189 1203 l 319 1210 l 522 1019 l 522 998 z "},"Ê":{"ha":808,"x_min":52,"x_max":737,"o":"m 284 436 l 284 87 l 610 87 l 667 218 l 737 203 l 721 0 l 65 0 l 52 66 l 155 90 l 155 828 l 52 851 l 65 918 l 701 918 l 717 714 l 647 699 l 591 830 l 284 830 l 284 524 l 526 524 l 549 606 l 616 593 l 616 366 l 549 353 l 526 436 l 284 436 m 641 997 l 556 990 l 395 1120 l 238 990 l 174 997 l 174 1019 l 366 1217 l 456 1210 l 641 1019 l 641 997 z "},"Ë":{"ha":808,"x_min":52,"x_max":737,"o":"m 284 436 l 284 87 l 610 87 l 667 218 l 737 203 l 721 0 l 65 0 l 52 66 l 155 90 l 155 828 l 52 851 l 65 918 l 701 918 l 717 714 l 647 699 l 591 830 l 284 830 l 284 524 l 526 524 l 549 606 l 616 593 l 616 366 l 549 353 l 526 436 l 284 436 m 171 1072 q 176 1105 171 1089 q 189 1132 180 1120 q 208 1151 197 1144 q 231 1158 219 1158 q 264 1153 249 1158 q 291 1140 280 1148 q 309 1121 302 1132 q 315 1097 315 1109 q 311 1064 315 1080 q 298 1037 306 1049 q 279 1019 290 1025 q 256 1012 268 1012 q 222 1017 238 1012 q 195 1030 207 1021 q 177 1049 184 1038 q 171 1072 171 1060 m 483 1072 q 488 1105 483 1089 q 500 1132 492 1120 q 519 1151 509 1144 q 543 1158 530 1158 q 576 1153 560 1158 q 603 1140 591 1148 q 621 1121 614 1132 q 627 1097 627 1109 q 623 1064 627 1080 q 609 1037 618 1049 q 590 1019 601 1025 q 567 1012 579 1012 q 534 1017 549 1012 q 507 1030 518 1021 q 489 1049 496 1038 q 483 1072 483 1060 z "},"Ì":{"ha":436,"x_min":6,"x_max":385,"o":"m 153 828 l 49 851 l 62 918 l 371 918 l 385 851 l 281 828 l 281 90 l 385 66 l 371 0 l 62 0 l 49 66 l 153 90 l 153 828 m 338 998 l 260 990 l 6 1158 l 6 1203 l 136 1210 l 338 1019 l 338 998 z "},"Î":{"ha":436,"x_min":-10,"x_max":457,"o":"m 153 828 l 49 851 l 62 918 l 371 918 l 385 851 l 281 828 l 281 90 l 385 66 l 371 0 l 62 0 l 49 66 l 153 90 l 153 828 m 457 997 l 372 990 l 211 1120 l 54 990 l -10 997 l -10 1019 l 182 1217 l 272 1210 l 457 1019 l 457 997 z "},"Ï":{"ha":436,"x_min":-13,"x_max":444,"o":"m 153 828 l 49 851 l 62 918 l 371 918 l 385 851 l 281 828 l 281 90 l 385 66 l 371 0 l 62 0 l 49 66 l 153 90 l 153 828 m -13 1072 q -8 1105 -13 1089 q 5 1132 -3 1120 q 24 1151 14 1144 q 47 1158 35 1158 q 81 1153 65 1158 q 107 1140 96 1148 q 125 1121 119 1132 q 132 1097 132 1109 q 127 1064 132 1080 q 114 1037 122 1049 q 95 1019 106 1025 q 72 1012 84 1012 q 39 1017 54 1012 q 12 1030 23 1021 q -6 1049 0 1038 q -13 1072 -13 1060 m 299 1072 q 304 1105 299 1089 q 317 1132 309 1120 q 336 1151 325 1144 q 359 1158 347 1158 q 392 1153 376 1158 q 419 1140 408 1148 q 437 1121 431 1132 q 444 1097 444 1109 q 439 1064 444 1080 q 426 1037 434 1049 q 406 1019 417 1025 q 383 1012 395 1012 q 350 1017 366 1012 q 323 1030 334 1021 q 306 1049 312 1038 q 299 1072 299 1060 z "},"Ò":{"ha":912,"x_min":69,"x_max":843,"o":"m 450 -15 q 165 78 260 -15 q 69 356 69 172 l 69 410 q 170 803 69 673 q 463 932 270 932 q 747 840 652 932 q 843 561 843 747 l 843 508 q 745 119 843 252 q 450 -15 648 -15 m 714 531 q 643 768 714 691 q 443 845 572 845 q 329 826 382 845 q 245 785 275 808 q 211 645 224 723 q 198 477 198 568 l 198 387 q 274 155 198 237 q 470 73 351 73 q 582 91 530 73 q 668 133 635 109 q 702 282 690 201 q 714 441 714 363 l 714 531 m 572 998 l 494 990 l 240 1158 l 240 1203 l 370 1210 l 572 1019 l 572 998 z "},"Ô":{"ha":912,"x_min":69,"x_max":843,"o":"m 450 -15 q 165 78 260 -15 q 69 356 69 172 l 69 410 q 170 803 69 673 q 463 932 270 932 q 747 840 652 932 q 843 561 843 747 l 843 508 q 745 119 843 252 q 450 -15 648 -15 m 714 531 q 643 768 714 691 q 443 845 572 845 q 329 826 382 845 q 245 785 275 808 q 211 645 224 723 q 198 477 198 568 l 198 387 q 274 155 198 237 q 470 73 351 73 q 582 91 530 73 q 668 133 635 109 q 702 282 690 201 q 714 441 714 363 l 714 531 m 692 997 l 607 990 l 446 1120 l 289 990 l 224 997 l 224 1019 l 416 1217 l 507 1210 l 692 1019 l 692 997 z "},"Õ":{"ha":912,"x_min":69,"x_max":843,"o":"m 450 -15 q 165 78 260 -15 q 69 356 69 172 l 69 410 q 170 803 69 673 q 463 932 270 932 q 747 840 652 932 q 843 561 843 747 l 843 508 q 745 119 843 252 q 450 -15 648 -15 m 714 531 q 643 768 714 691 q 443 845 572 845 q 329 826 382 845 q 245 785 275 808 q 211 645 224 723 q 198 477 198 568 l 198 387 q 274 155 198 237 q 470 73 351 73 q 582 91 530 73 q 668 133 635 109 q 702 282 690 201 q 714 441 714 363 l 714 531 m 172 1031 q 211 1147 172 1107 q 321 1186 251 1186 q 395 1172 357 1186 q 467 1141 433 1158 q 530 1111 501 1124 q 579 1097 559 1097 q 620 1117 605 1097 q 635 1178 635 1137 l 715 1185 l 715 1153 q 679 1039 715 1081 q 574 998 642 998 q 502 1011 541 998 q 425 1042 463 1025 q 355 1073 387 1059 q 304 1087 323 1087 q 280 1084 291 1087 q 261 1074 269 1082 q 250 1054 254 1067 q 245 1021 245 1041 l 172 1014 l 172 1031 z "},"Ö":{"ha":912,"x_min":69,"x_max":843,"o":"m 450 -15 q 165 78 260 -15 q 69 356 69 172 l 69 410 q 170 803 69 673 q 463 932 270 932 q 747 840 652 932 q 843 561 843 747 l 843 508 q 745 119 843 252 q 450 -15 648 -15 m 714 531 q 643 768 714 691 q 443 845 572 845 q 329 826 382 845 q 245 785 275 808 q 211 645 224 723 q 198 477 198 568 l 198 387 q 274 155 198 237 q 470 73 351 73 q 582 91 530 73 q 668 133 635 109 q 702 282 690 201 q 714 441 714 363 l 714 531 m 222 1072 q 227 1105 222 1089 q 240 1132 231 1120 q 259 1151 248 1144 q 282 1158 270 1158 q 315 1153 300 1158 q 342 1140 331 1148 q 360 1121 353 1132 q 366 1097 366 1109 q 361 1064 366 1080 q 349 1037 357 1049 q 330 1019 340 1025 q 307 1012 319 1012 q 273 1017 289 1012 q 246 1030 258 1021 q 228 1049 235 1038 q 222 1072 222 1060 m 534 1072 q 538 1105 534 1089 q 551 1132 543 1120 q 570 1151 559 1144 q 593 1158 581 1158 q 627 1153 611 1158 q 654 1140 642 1148 q 672 1121 665 1132 q 678 1097 678 1109 q 673 1064 678 1080 q 660 1037 669 1049 q 641 1019 652 1025 q 618 1012 630 1012 q 585 1017 600 1012 q 558 1030 569 1021 q 540 1049 547 1038 q 534 1072 534 1060 z "},"Ù":{"ha":921,"x_min":11,"x_max":910,"o":"m 244 370 q 308 146 244 219 q 484 73 372 73 q 584 88 537 73 q 659 124 631 104 q 696 226 682 166 q 711 353 711 286 l 711 828 l 608 851 l 621 918 l 897 918 l 910 851 l 807 828 l 807 369 q 721 78 807 172 q 456 -15 635 -15 q 201 70 288 -15 q 115 333 115 154 l 115 828 l 11 851 l 24 918 l 334 918 l 347 851 l 244 828 l 244 370 m 601 998 l 523 990 l 269 1158 l 269 1203 l 399 1210 l 601 1019 l 601 998 z "},"Û":{"ha":921,"x_min":11,"x_max":910,"o":"m 244 370 q 308 146 244 219 q 484 73 372 73 q 584 88 537 73 q 659 124 631 104 q 696 226 682 166 q 711 353 711 286 l 711 828 l 608 851 l 621 918 l 897 918 l 910 851 l 807 828 l 807 369 q 721 78 807 172 q 456 -15 635 -15 q 201 70 288 -15 q 115 333 115 154 l 115 828 l 11 851 l 24 918 l 334 918 l 347 851 l 244 828 l 244 370 m 720 997 l 635 990 l 474 1120 l 317 990 l 253 997 l 253 1019 l 445 1217 l 535 1210 l 720 1019 l 720 997 z "},"Ü":{"ha":921,"x_min":11,"x_max":910,"o":"m 244 370 q 308 146 244 219 q 484 73 372 73 q 584 88 537 73 q 659 124 631 104 q 696 226 682 166 q 711 353 711 286 l 711 828 l 608 851 l 621 918 l 897 918 l 910 851 l 807 828 l 807 369 q 721 78 807 172 q 456 -15 635 -15 q 201 70 288 -15 q 115 333 115 154 l 115 828 l 11 851 l 24 918 l 334 918 l 347 851 l 244 828 l 244 370 m 250 1072 q 255 1105 250 1089 q 268 1132 260 1120 q 288 1151 277 1144 q 311 1158 298 1158 q 344 1153 328 1158 q 371 1140 359 1148 q 388 1121 382 1132 q 395 1097 395 1109 q 390 1064 395 1080 q 377 1037 385 1049 q 358 1019 369 1025 q 335 1012 347 1012 q 302 1017 317 1012 q 275 1030 286 1021 q 257 1049 263 1038 q 250 1072 250 1060 m 562 1072 q 567 1105 562 1089 q 580 1132 572 1120 q 599 1151 588 1144 q 622 1158 610 1158 q 655 1153 640 1158 q 682 1140 671 1148 q 700 1121 694 1132 q 707 1097 707 1109 q 702 1064 707 1080 q 689 1037 697 1049 q 669 1019 680 1025 q 646 1012 659 1012 q 613 1017 629 1012 q 586 1030 597 1021 q 569 1049 575 1038 q 562 1072 562 1060 z "},"Ý":{"ha":761,"x_min":-35,"x_max":796,"o":"m 324 392 l 42 831 l -35 850 l -22 918 l 256 918 l 270 850 l 180 831 l 398 490 l 409 490 l 615 831 l 530 850 l 544 918 l 783 918 l 796 850 l 721 831 l 453 391 l 453 90 l 556 66 l 543 0 l 234 0 l 220 66 l 324 90 l 324 392 m 307 1019 l 509 1210 l 640 1203 l 640 1158 l 385 990 l 307 998 l 307 1019 z "},"À":{"ha":826,"x_min":-5,"x_max":831,"o":"m -5 66 l 68 86 l 366 918 l 467 918 l 758 86 l 831 66 l 818 0 l 557 0 l 543 66 l 630 86 l 566 275 l 233 275 l 168 86 l 255 66 l 241 0 l 8 0 l -5 66 m 264 363 l 536 363 l 405 749 l 398 749 l 264 363 m 538 998 l 460 990 l 206 1158 l 206 1203 l 336 1210 l 538 1019 l 538 998 z "},"Ć":{"ha":798,"x_min":68,"x_max":741,"o":"m 68 410 q 172 800 68 668 q 478 932 277 932 q 608 922 543 932 q 724 892 674 912 l 739 709 l 667 694 l 611 827 q 545 840 585 835 q 460 845 505 845 q 349 829 401 845 q 257 785 296 814 q 213 636 230 723 q 197 463 197 549 l 197 373 q 276 150 197 228 q 490 73 356 73 q 621 93 554 73 q 741 143 688 113 l 741 71 q 601 8 677 31 q 450 -15 524 -15 q 164 76 261 -15 q 68 349 68 167 l 68 410 m 364 1019 l 566 1210 l 696 1203 l 696 1158 l 442 990 l 364 998 l 364 1019 z "},"Ĉ":{"ha":798,"x_min":68,"x_max":741,"o":"m 68 410 q 172 800 68 668 q 478 932 277 932 q 608 922 543 932 q 724 892 674 912 l 739 709 l 667 694 l 611 827 q 545 840 585 835 q 460 845 505 845 q 349 829 401 845 q 257 785 296 814 q 213 636 230 723 q 197 463 197 549 l 197 373 q 276 150 197 228 q 490 73 356 73 q 621 93 554 73 q 741 143 688 113 l 741 71 q 601 8 677 31 q 450 -15 524 -15 q 164 76 261 -15 q 68 349 68 167 l 68 410 m 702 997 l 617 990 l 456 1120 l 299 990 l 235 997 l 235 1019 l 427 1217 l 517 1210 l 702 1019 l 702 997 z "},"Č":{"ha":798,"x_min":68,"x_max":741,"o":"m 68 410 q 172 800 68 668 q 478 932 277 932 q 608 922 543 932 q 724 892 674 912 l 739 709 l 667 694 l 611 827 q 545 840 585 835 q 460 845 505 845 q 349 829 401 845 q 257 785 296 814 q 213 636 230 723 q 197 463 197 549 l 197 373 q 276 150 197 228 q 490 73 356 73 q 621 93 554 73 q 741 143 688 113 l 741 71 q 601 8 677 31 q 450 -15 524 -15 q 164 76 261 -15 q 68 349 68 167 l 68 410 m 228 1210 l 313 1217 l 474 1086 l 631 1217 l 695 1210 l 695 1188 l 503 990 l 413 997 l 228 1188 l 228 1210 z "},"Ď":{"ha":924,"x_min":53,"x_max":845,"o":"m 157 828 l 53 851 l 66 918 l 433 918 q 741 815 637 918 q 845 519 845 712 l 845 466 q 740 125 845 250 q 448 0 635 0 l 66 0 l 53 66 l 157 90 l 157 828 m 286 830 l 286 87 l 429 87 q 529 96 481 87 q 617 121 576 104 q 688 253 659 173 q 716 422 716 333 l 716 486 q 638 740 716 649 q 406 830 559 830 l 286 830 m 159 1210 l 243 1217 l 405 1086 l 562 1217 l 626 1210 l 626 1188 l 434 990 l 344 997 l 159 1188 l 159 1210 z "},"Ě":{"ha":808,"x_min":52,"x_max":737,"o":"m 284 436 l 284 87 l 610 87 l 667 218 l 737 203 l 721 0 l 65 0 l 52 66 l 155 90 l 155 828 l 52 851 l 65 918 l 701 918 l 717 714 l 647 699 l 591 830 l 284 830 l 284 524 l 526 524 l 549 606 l 616 593 l 616 366 l 549 353 l 526 436 l 284 436 m 167 1210 l 252 1217 l 413 1086 l 570 1217 l 634 1210 l 634 1188 l 442 990 l 352 997 l 167 1188 l 167 1210 z "},"Ĝ":{"ha":882,"x_min":69,"x_max":844,"o":"m 741 71 q 597 8 675 31 q 443 -15 519 -15 q 167 77 265 -15 q 69 342 69 168 l 69 403 q 176 796 69 659 q 484 932 283 932 q 616 922 551 932 q 730 894 682 912 l 745 711 l 673 696 l 618 827 q 551 840 592 834 q 469 845 511 845 q 356 829 410 845 q 265 785 303 813 q 216 638 234 722 q 198 463 198 555 l 198 373 q 280 151 198 230 q 477 73 362 73 q 547 79 512 73 q 612 97 581 86 l 612 342 l 508 365 l 522 438 l 830 438 l 844 365 l 741 342 l 741 71 m 713 997 l 628 990 l 467 1120 l 310 990 l 245 997 l 245 1019 l 437 1217 l 528 1210 l 713 1019 l 713 997 z "},"Ĥ":{"ha":989,"x_min":49,"x_max":938,"o":"m 153 828 l 49 851 l 62 918 l 371 918 l 385 851 l 281 828 l 281 528 l 705 528 l 705 828 l 602 851 l 615 918 l 924 918 l 938 851 l 833 828 l 833 90 l 938 66 l 924 0 l 615 0 l 602 66 l 705 90 l 705 440 l 281 440 l 281 90 l 385 66 l 371 0 l 62 0 l 49 66 l 153 90 l 153 828 m 736 997 l 652 990 l 490 1120 l 334 990 l 269 997 l 269 1019 l 461 1217 l 551 1210 l 736 1019 l 736 997 z "},"ĥ":{"ha":898,"x_min":-27,"x_max":855,"o":"m 56 66 l 160 90 l 160 955 l 56 978 l 70 1044 l 282 1059 l 282 642 l 292 638 q 391 721 334 692 q 516 751 448 751 q 694 687 637 751 q 751 492 751 623 l 751 90 l 855 66 l 842 0 l 539 0 l 526 66 l 629 90 l 629 469 q 593 623 629 577 q 476 669 557 669 q 372 640 425 669 q 282 568 319 611 l 282 90 l 386 66 l 372 0 l 70 0 l 56 66 m 440 1139 l 355 1133 l 194 1263 l 37 1133 l -27 1139 l -27 1161 l 165 1359 l 255 1352 l 440 1161 l 440 1139 z "},"Ĩ":{"ha":436,"x_min":-49,"x_max":494,"o":"m 153 828 l 49 851 l 62 918 l 371 918 l 385 851 l 281 828 l 281 90 l 385 66 l 371 0 l 62 0 l 49 66 l 153 90 l 153 828 m -49 1031 q -9 1147 -49 1107 q 100 1186 31 1186 q 175 1172 137 1186 q 247 1141 212 1158 q 310 1111 281 1124 q 359 1097 339 1097 q 400 1117 385 1097 q 415 1178 415 1137 l 494 1185 l 494 1153 q 458 1039 494 1081 q 353 998 422 998 q 281 1011 320 998 q 204 1042 242 1025 q 135 1073 167 1059 q 84 1087 103 1087 q 59 1084 71 1087 q 41 1074 48 1082 q 29 1054 33 1067 q 25 1021 25 1041 l -49 1014 l -49 1031 z "},"Ĵ":{"ha":583,"x_min":47,"x_max":602,"o":"m 439 228 q 382 47 439 110 q 212 -15 325 -15 q 130 -4 171 -15 q 62 21 90 7 l 47 197 l 117 212 l 173 82 q 201 74 187 77 q 226 72 214 72 q 259 76 242 72 q 289 86 276 80 q 304 155 298 112 q 310 250 310 198 l 310 828 l 179 851 l 193 918 l 528 918 l 542 851 l 439 828 l 439 228 m 602 997 l 517 990 l 356 1120 l 199 990 l 135 997 l 135 1019 l 327 1217 l 417 1210 l 602 1019 l 602 997 z "},"Ĺ":{"ha":690,"x_min":50,"x_max":637,"o":"m 154 828 l 50 851 l 64 918 l 372 918 l 386 851 l 283 828 l 283 87 l 511 87 l 567 218 l 637 203 l 621 0 l 64 0 l 50 66 l 154 90 l 154 828 m 121 1019 l 323 1210 l 453 1203 l 453 1158 l 199 990 l 121 998 l 121 1019 z "},"ĺ":{"ha":435,"x_min":63,"x_max":431,"o":"m 167 955 l 63 978 l 77 1044 l 289 1059 l 289 90 l 393 66 l 379 0 l 77 0 l 63 66 l 167 90 l 167 955 m 99 1162 l 301 1352 l 431 1345 l 431 1301 l 177 1133 l 99 1140 l 99 1162 z "},"Ń":{"ha":1039,"x_min":49,"x_max":1001,"o":"m 153 828 l 49 851 l 62 918 l 347 918 l 791 92 l 802 92 l 802 828 l 698 851 l 711 918 l 987 918 l 1001 851 l 898 828 l 898 0 l 703 0 l 258 826 l 248 826 l 248 90 l 351 66 l 337 0 l 62 0 l 49 66 l 153 90 l 153 828 m 436 1019 l 638 1210 l 768 1203 l 768 1158 l 514 990 l 436 998 l 436 1019 z "},"Ň":{"ha":1039,"x_min":49,"x_max":1001,"o":"m 153 828 l 49 851 l 62 918 l 347 918 l 791 92 l 802 92 l 802 828 l 698 851 l 711 918 l 987 918 l 1001 851 l 898 828 l 898 0 l 703 0 l 258 826 l 248 826 l 248 90 l 351 66 l 337 0 l 62 0 l 49 66 l 153 90 l 153 828 m 300 1210 l 385 1217 l 546 1086 l 703 1217 l 767 1210 l 767 1188 l 575 990 l 485 997 l 300 1188 l 300 1210 z "},"Ŕ":{"ha":817,"x_min":49,"x_max":819,"o":"m 153 828 l 49 851 l 62 918 l 396 918 q 612 860 537 918 q 686 685 686 803 q 646 531 686 597 q 536 433 606 466 l 532 420 l 720 90 l 819 66 l 805 0 l 636 0 l 406 408 l 281 408 l 281 90 l 385 66 l 371 0 l 62 0 l 49 66 l 153 90 l 153 828 m 281 830 l 281 495 l 365 495 q 450 501 407 495 q 535 522 493 507 q 549 588 543 552 q 555 657 555 624 q 503 784 555 738 q 350 830 451 830 l 281 830 m 257 1019 l 459 1210 l 589 1203 l 589 1158 l 335 990 l 257 998 l 257 1019 z "},"Ř":{"ha":817,"x_min":49,"x_max":819,"o":"m 153 828 l 49 851 l 62 918 l 396 918 q 612 860 537 918 q 686 685 686 803 q 646 531 686 597 q 536 433 606 466 l 532 420 l 720 90 l 819 66 l 805 0 l 636 0 l 406 408 l 281 408 l 281 90 l 385 66 l 371 0 l 62 0 l 49 66 l 153 90 l 153 828 m 281 830 l 281 495 l 365 495 q 450 501 407 495 q 535 522 493 507 q 549 588 543 552 q 555 657 555 624 q 503 784 555 738 q 350 830 451 830 l 281 830 m 121 1210 l 205 1217 l 367 1086 l 524 1217 l 588 1210 l 588 1188 l 396 990 l 306 997 l 121 1188 l 121 1210 z "},"Ś":{"ha":723,"x_min":74,"x_max":665,"o":"m 420 517 q 606 380 547 442 q 665 234 665 318 q 577 54 665 122 q 345 -15 490 -15 q 196 -2 263 -15 q 88 28 128 10 l 74 203 l 153 220 l 209 89 q 265 77 234 81 q 334 73 296 73 q 430 79 385 73 q 515 98 476 86 q 529 143 522 115 q 536 210 536 172 q 496 299 536 253 q 323 426 456 346 q 112 583 151 528 q 74 705 74 639 q 159 868 74 804 q 394 932 244 932 q 508 924 451 932 q 619 897 566 916 l 633 714 l 562 699 l 507 830 q 450 841 479 838 q 390 845 421 845 q 292 838 338 845 q 216 819 247 830 q 206 776 210 799 q 203 728 203 753 q 243 640 203 680 q 420 517 283 600 m 275 1019 l 477 1210 l 608 1203 l 608 1158 l 353 990 l 275 998 l 275 1019 z "},"Ŝ":{"ha":723,"x_min":74,"x_max":665,"o":"m 420 517 q 606 380 547 442 q 665 234 665 318 q 577 54 665 122 q 345 -15 490 -15 q 196 -2 263 -15 q 88 28 128 10 l 74 203 l 153 220 l 209 89 q 265 77 234 81 q 334 73 296 73 q 430 79 385 73 q 515 98 476 86 q 529 143 522 115 q 536 210 536 172 q 496 299 536 253 q 323 426 456 346 q 112 583 151 528 q 74 705 74 639 q 159 868 74 804 q 394 932 244 932 q 508 924 451 932 q 619 897 566 916 l 633 714 l 562 699 l 507 830 q 450 841 479 838 q 390 845 421 845 q 292 838 338 845 q 216 819 247 830 q 206 776 210 799 q 203 728 203 753 q 243 640 203 680 q 420 517 283 600 m 613 997 l 528 990 l 367 1120 l 210 990 l 146 997 l 146 1019 l 338 1217 l 428 1210 l 613 1019 l 613 997 z "},"Š":{"ha":723,"x_min":74,"x_max":665,"o":"m 420 517 q 606 380 547 442 q 665 234 665 318 q 577 54 665 122 q 345 -15 490 -15 q 196 -2 263 -15 q 88 28 128 10 l 74 203 l 153 220 l 209 89 q 265 77 234 81 q 334 73 296 73 q 430 79 385 73 q 515 98 476 86 q 529 143 522 115 q 536 210 536 172 q 496 299 536 253 q 323 426 456 346 q 112 583 151 528 q 74 705 74 639 q 159 868 74 804 q 394 932 244 932 q 508 924 451 932 q 619 897 566 916 l 633 714 l 562 699 l 507 830 q 450 841 479 838 q 390 845 421 845 q 292 838 338 845 q 216 819 247 830 q 206 776 210 799 q 203 728 203 753 q 243 640 203 680 q 420 517 283 600 m 139 1210 l 224 1217 l 385 1086 l 542 1217 l 606 1210 l 606 1188 l 414 990 l 324 997 l 139 1188 l 139 1210 z "},"Ť":{"ha":772,"x_min":9,"x_max":763,"o":"m 322 830 l 119 830 l 77 715 l 9 721 l 20 918 l 753 918 l 763 721 l 696 715 l 654 830 l 451 830 l 451 90 l 555 66 l 541 0 l 232 0 l 218 66 l 322 90 l 322 830 m 152 1210 l 237 1217 l 398 1086 l 555 1217 l 619 1210 l 619 1188 l 427 990 l 337 997 l 152 1188 l 152 1210 z "},"Ũ":{"ha":921,"x_min":11,"x_max":910,"o":"m 244 370 q 308 146 244 219 q 484 73 372 73 q 584 88 537 73 q 659 124 631 104 q 696 226 682 166 q 711 353 711 286 l 711 828 l 608 851 l 621 918 l 897 918 l 910 851 l 807 828 l 807 369 q 721 78 807 172 q 456 -15 635 -15 q 201 70 288 -15 q 115 333 115 154 l 115 828 l 11 851 l 24 918 l 334 918 l 347 851 l 244 828 l 244 370 m 200 1031 q 240 1147 200 1107 q 349 1186 279 1186 q 424 1172 386 1186 q 495 1141 461 1158 q 559 1111 530 1124 q 608 1097 588 1097 q 649 1117 633 1097 q 664 1178 664 1137 l 743 1185 l 743 1153 q 707 1039 743 1081 q 602 998 671 998 q 530 1011 569 998 q 453 1042 491 1025 q 384 1073 416 1059 q 333 1087 352 1087 q 308 1084 319 1087 q 290 1074 297 1082 q 278 1054 282 1067 q 274 1021 274 1041 l 200 1014 l 200 1031 z "},"Ŵ":{"ha":1355,"x_min":-30,"x_max":1385,"o":"m 273 850 l 172 831 l 399 157 l 410 157 l 642 918 l 772 918 l 998 157 l 1009 157 l 1215 831 l 1112 850 l 1125 918 l 1371 918 l 1385 850 l 1315 832 l 1053 0 l 924 0 l 698 751 l 687 751 l 458 0 l 328 0 l 42 832 l -30 850 l -16 918 l 260 918 l 273 850 m 952 997 l 867 990 l 706 1120 l 549 990 l 485 997 l 485 1019 l 677 1217 l 767 1210 l 952 1019 l 952 997 z "},"Ŷ":{"ha":761,"x_min":-35,"x_max":796,"o":"m 324 392 l 42 831 l -35 850 l -22 918 l 256 918 l 270 850 l 180 831 l 398 490 l 409 490 l 615 831 l 530 850 l 544 918 l 783 918 l 796 850 l 721 831 l 453 391 l 453 90 l 556 66 l 543 0 l 234 0 l 220 66 l 324 90 l 324 392 m 645 997 l 560 990 l 399 1120 l 242 990 l 178 997 l 178 1019 l 370 1217 l 460 1210 l 645 1019 l 645 997 z "},"Ÿ":{"ha":761,"x_min":-35,"x_max":796,"o":"m 324 392 l 42 831 l -35 850 l -22 918 l 256 918 l 270 850 l 180 831 l 398 490 l 409 490 l 615 831 l 530 850 l 544 918 l 783 918 l 796 850 l 721 831 l 453 391 l 453 90 l 556 66 l 543 0 l 234 0 l 220 66 l 324 90 l 324 392 m 175 1072 q 180 1105 175 1089 q 193 1132 184 1120 q 212 1151 201 1144 q 235 1158 223 1158 q 269 1153 253 1158 q 295 1140 284 1148 q 313 1121 307 1132 q 319 1097 319 1109 q 315 1064 319 1080 q 302 1037 310 1049 q 283 1019 294 1025 q 260 1012 272 1012 q 227 1017 242 1012 q 199 1030 211 1021 q 181 1049 188 1038 q 175 1072 175 1060 m 487 1072 q 492 1105 487 1089 q 505 1132 496 1120 q 524 1151 513 1144 q 547 1158 534 1158 q 580 1153 564 1158 q 607 1140 595 1148 q 625 1121 618 1132 q 631 1097 631 1109 q 627 1064 631 1080 q 613 1037 622 1049 q 594 1019 605 1025 q 571 1012 583 1012 q 538 1017 553 1012 q 511 1030 522 1021 q 493 1049 500 1038 q 487 1072 487 1060 z "},"Ź":{"ha":766,"x_min":56,"x_max":715,"o":"m 694 918 l 694 833 l 208 97 l 212 87 l 589 87 l 645 218 l 715 203 l 699 0 l 56 0 l 56 85 l 541 821 l 537 830 l 187 830 l 132 699 l 61 714 l 78 918 l 694 918 m 288 1019 l 490 1210 l 620 1203 l 620 1158 l 366 990 l 288 998 l 288 1019 z "},"Ž":{"ha":766,"x_min":56,"x_max":715,"o":"m 694 918 l 694 833 l 208 97 l 212 87 l 589 87 l 645 218 l 715 203 l 699 0 l 56 0 l 56 85 l 541 821 l 537 830 l 187 830 l 132 699 l 61 714 l 78 918 l 694 918 m 151 1210 l 236 1217 l 397 1086 l 554 1217 l 618 1210 l 618 1188 l 427 990 l 336 997 l 151 1188 l 151 1210 z "},"$":{"ha":746,"x_min":76,"x_max":667,"o":"m 422 517 q 608 380 549 442 q 667 234 667 318 q 579 54 667 122 q 416 -10 514 2 l 416 -153 l 331 -153 l 331 -15 q 197 -2 258 -14 q 90 28 130 10 l 76 203 l 155 220 l 211 89 q 267 77 236 81 q 331 73 296 73 l 331 422 q 325 426 328 424 q 114 583 153 528 q 76 705 76 639 q 161 868 76 804 q 331 929 227 918 l 331 1059 l 416 1059 l 416 932 q 510 924 463 931 q 621 897 568 916 l 635 714 l 564 699 l 509 830 q 452 841 481 838 q 416 844 434 844 l 416 520 q 422 517 418 519 m 432 79 q 517 98 478 86 q 531 143 524 115 q 538 210 538 172 q 498 299 538 253 q 416 368 473 328 l 416 77 q 432 79 424 78 m 294 838 q 218 819 249 830 q 208 776 212 799 q 205 728 205 753 q 245 640 205 680 q 331 574 270 615 l 331 842 q 294 838 312 840 z "},"«":{"ha":721,"x_min":102,"x_max":606,"o":"m 370 78 l 102 363 l 102 404 l 370 690 l 427 690 l 427 675 l 224 391 l 224 377 l 427 93 l 427 78 l 370 78 m 548 108 l 368 372 l 368 396 l 548 660 l 606 660 l 606 645 l 492 384 l 606 123 l 606 108 l 548 108 z "},"»":{"ha":721,"x_min":115,"x_max":619,"o":"m 294 78 l 294 93 l 497 377 l 497 391 l 294 675 l 294 690 l 351 690 l 619 404 l 619 363 l 351 78 l 294 78 m 115 108 l 115 123 l 229 384 l 115 645 l 115 660 l 173 660 l 353 396 l 353 372 l 173 108 l 115 108 z "},"|":{"ha":446,"x_min":183,"x_max":263,"o":"m 183 1133 l 263 1133 l 263 -364 l 183 -364 l 183 1133 z "},"¦":{"ha":446,"x_min":183,"x_max":263,"o":"m 183 217 l 263 217 l 263 -364 l 183 -364 l 183 217 m 183 1133 l 263 1133 l 263 551 l 183 551 l 183 1133 z "},"ð":{"ha":755,"x_min":65,"x_max":690,"o":"m 199 854 l 351 926 q 279 988 317 958 q 199 1044 241 1018 l 300 1059 q 441 968 376 1023 l 601 1044 l 627 988 l 491 923 q 609 765 561 852 q 677 576 657 677 q 681 548 679 564 q 686 513 684 531 q 689 478 688 496 q 690 445 690 460 l 690 381 q 670 225 690 298 q 610 100 650 153 q 510 16 570 47 q 371 -15 450 -15 q 237 6 294 -15 q 141 66 180 27 q 84 161 103 106 q 65 284 65 216 l 65 347 q 89 521 65 446 q 154 647 113 596 q 253 725 196 699 q 378 751 311 751 q 441 742 408 751 q 498 715 473 733 q 456 798 482 758 q 397 878 431 839 l 226 797 l 199 854 m 568 422 q 550 543 568 495 q 502 619 532 591 q 436 658 473 647 q 364 669 400 669 q 309 663 334 669 q 266 649 283 656 q 228 629 244 640 q 208 568 216 604 q 194 492 200 537 q 187 388 187 448 l 187 307 q 205 198 187 243 q 252 123 222 152 q 317 80 281 94 q 391 66 353 66 q 445 73 420 66 q 488 87 469 79 q 528 107 509 96 q 548 164 539 130 q 562 237 555 193 q 568 341 568 280 l 568 422 z "},"—":{"ha":1380,"x_min":7,"x_max":1360,"o":"m 20 437 l 1360 437 l 1346 345 l 7 345 l 20 437 z "},"–":{"ha":774,"x_min":47,"x_max":726,"o":"m 61 437 l 726 437 l 713 345 l 47 345 l 61 437 z "},"‒":{"ha":780,"x_min":96,"x_max":726,"o":"m 111 501 l 726 501 l 712 402 l 96 402 l 111 501 z "},"―":{"ha":1678,"x_min":20,"x_max":1645,"o":"m 35 437 l 1645 437 l 1631 345 l 20 345 l 35 437 z "},"‐":{"ha":657,"x_min":136,"x_max":555,"o":"m 156 451 l 555 479 l 535 378 l 136 350 l 156 451 z "},"#":{"ha":893,"x_min":61,"x_max":832,"o":"m 511 208 l 317 208 l 288 0 l 182 0 l 182 14 l 210 208 l 61 208 l 61 300 l 223 300 l 268 616 l 106 616 l 106 709 l 281 709 l 311 918 l 416 918 l 416 904 l 388 709 l 582 709 l 612 918 l 717 918 l 717 904 l 689 709 l 832 709 l 832 616 l 676 616 l 631 300 l 787 300 l 787 208 l 618 208 l 589 0 l 484 0 l 484 14 l 511 208 m 330 300 l 524 300 l 569 616 l 375 616 l 330 300 z "},"{":{"ha":552,"x_min":102,"x_max":484,"o":"m 102 446 l 167 446 q 225 463 208 446 q 241 521 241 479 l 241 947 q 256 1023 241 988 q 295 1083 270 1058 q 356 1123 321 1109 q 431 1137 391 1137 l 484 1137 l 484 1072 l 470 1072 q 381 1045 408 1072 q 355 957 355 1019 l 355 562 q 348 492 355 519 q 329 447 340 464 q 303 424 318 431 q 273 417 288 417 l 273 410 q 303 404 288 410 q 329 380 318 397 q 348 336 340 363 q 355 266 355 308 l 355 -130 q 381 -218 355 -191 q 470 -245 408 -245 l 484 -245 l 484 -310 l 431 -310 q 356 -296 391 -310 q 295 -256 321 -281 q 256 -196 270 -231 q 241 -120 241 -161 l 241 307 q 225 365 241 348 q 167 381 208 381 l 102 381 l 102 446 z "},"}":{"ha":552,"x_min":68,"x_max":450,"o":"m 450 381 l 385 381 q 327 365 344 381 q 311 307 311 348 l 311 -120 q 296 -196 311 -161 q 257 -256 282 -231 q 196 -296 231 -281 q 121 -310 161 -310 l 68 -310 l 68 -245 l 82 -245 q 171 -218 144 -245 q 197 -130 197 -191 l 197 266 q 204 336 197 308 q 223 380 212 363 q 249 404 234 397 q 279 410 263 410 l 279 417 q 249 424 263 417 q 223 447 234 431 q 204 492 212 464 q 197 562 197 519 l 197 957 q 171 1045 197 1019 q 82 1072 144 1072 l 68 1072 l 68 1137 l 121 1137 q 196 1123 161 1137 q 257 1083 231 1109 q 296 1023 282 1058 q 311 947 311 988 l 311 521 q 327 463 311 479 q 385 446 344 446 l 450 446 l 450 381 z "},"<":{"ha":779,"x_min":95,"x_max":656,"o":"m 95 376 l 95 441 l 636 695 l 656 695 l 656 601 l 255 412 l 255 406 l 656 218 l 656 123 l 636 123 l 95 376 z "},">":{"ha":779,"x_min":122,"x_max":684,"o":"m 142 123 l 122 123 l 122 218 l 524 406 l 524 412 l 122 601 l 122 695 l 142 695 l 684 441 l 684 376 l 142 123 z "},"Ð":{"ha":924,"x_min":53,"x_max":845,"o":"m 53 514 l 157 514 l 157 828 l 53 851 l 66 918 l 433 918 q 615 891 537 918 q 744 813 692 864 q 820 687 795 762 q 845 519 845 613 l 845 466 q 818 273 845 359 q 741 126 791 187 q 616 33 690 66 q 448 0 543 0 l 66 0 l 53 66 l 157 90 l 157 427 l 53 427 l 53 514 m 286 830 l 286 514 l 482 514 l 482 427 l 286 427 l 286 87 l 429 87 q 504 93 469 87 q 564 104 538 98 q 617 121 593 111 q 667 202 644 156 q 701 297 685 241 q 716 422 716 352 l 716 486 q 697 629 716 566 q 640 738 678 693 q 543 806 602 783 q 406 830 485 830 l 286 830 z "},"Þ":{"ha":745,"x_min":49,"x_max":692,"o":"m 153 828 l 49 851 l 62 918 l 371 918 l 385 851 l 281 828 l 281 727 l 395 727 q 616 674 540 727 q 692 507 692 621 q 669 393 692 442 q 608 311 646 345 q 519 261 570 278 q 411 244 468 244 l 281 244 l 281 90 l 425 66 l 412 0 l 62 0 l 49 66 l 153 90 l 153 828 m 281 640 l 281 332 l 383 332 q 447 335 418 332 q 496 345 476 339 q 539 357 520 350 q 549 394 545 374 q 557 433 553 411 q 560 479 560 455 q 550 544 560 515 q 516 595 539 574 q 455 628 492 616 q 363 640 417 640 l 281 640 z "},"þ":{"ha":769,"x_min":3,"x_max":704,"o":"m 3 -228 l 106 -205 l 106 955 l 3 978 l 16 1044 l 229 1059 l 229 646 q 264 680 243 662 q 312 714 285 699 q 374 741 340 730 q 451 751 409 751 q 555 733 508 751 q 634 679 602 716 q 686 584 667 642 q 704 445 704 526 l 704 381 q 683 218 704 292 q 623 93 663 145 q 525 13 583 41 q 393 -15 467 -15 q 310 -10 351 -15 q 229 2 269 -5 l 229 -205 l 332 -228 l 319 -295 l 16 -295 l 3 -228 m 582 422 q 568 540 582 492 q 530 616 554 587 q 475 657 507 645 q 408 669 443 669 q 340 655 372 669 q 283 625 309 642 q 229 582 254 606 l 229 85 q 261 78 242 81 q 301 73 280 75 q 344 68 322 70 q 387 66 366 66 q 451 73 422 66 q 500 87 480 79 q 543 107 524 96 q 562 174 554 137 q 576 249 570 206 q 582 341 582 291 l 582 422 z "},"ß":{"ha":874,"x_min":65,"x_max":817,"o":"m 176 646 l 65 669 l 79 736 l 176 736 l 176 779 q 193 896 176 844 q 247 984 211 947 q 338 1040 283 1020 q 467 1059 393 1059 q 563 1048 518 1059 q 642 1010 608 1036 q 695 943 675 985 q 715 841 715 901 q 703 752 715 792 q 670 677 691 712 q 620 611 649 642 q 556 549 591 579 q 594 525 574 538 q 632 499 611 513 q 673 467 652 484 q 736 407 709 436 q 781 348 763 378 q 808 285 799 318 q 817 213 817 252 q 799 117 817 159 q 749 45 781 75 q 674 1 718 16 q 578 -15 630 -15 q 490 -8 529 -15 q 423 9 451 -1 q 366 33 391 19 l 366 189 l 441 196 l 473 82 q 499 74 484 77 q 532 68 513 71 q 576 66 551 66 q 622 70 602 66 q 654 78 642 73 q 680 90 669 83 q 687 111 684 99 q 692 138 690 122 q 694 176 694 154 q 689 226 694 201 q 668 277 683 251 q 628 333 653 304 q 563 395 602 362 q 514 433 538 416 q 471 463 490 450 q 428 490 448 478 l 428 534 q 500 606 469 571 q 552 675 531 640 q 583 747 572 711 q 593 824 593 784 q 555 941 593 904 q 447 978 518 978 q 388 973 413 978 q 346 962 363 968 q 312 946 326 954 q 304 901 307 928 q 300 846 302 879 q 298 770 298 813 l 298 0 l 85 0 l 72 66 l 176 90 l 176 646 z "},"°":{"ha":416,"x_min":54,"x_max":403,"o":"m 54 885 q 68 953 54 921 q 105 1008 81 985 q 161 1046 129 1032 q 229 1059 193 1059 q 296 1046 264 1059 q 352 1008 328 1032 q 389 953 376 985 q 403 885 403 921 q 389 817 403 849 q 352 762 376 785 q 296 724 328 738 q 229 711 264 711 q 161 724 193 711 q 105 762 129 738 q 68 817 81 785 q 54 885 54 849 m 142 885 q 149 842 142 861 q 167 810 155 823 q 195 791 179 798 q 229 785 210 785 q 262 791 247 785 q 290 810 278 798 q 309 842 302 823 q 315 885 315 861 q 309 928 315 909 q 290 960 302 947 q 262 979 278 972 q 229 985 247 985 q 195 979 210 985 q 167 960 179 972 q 149 928 155 947 q 142 885 142 909 z "},"%":{"ha":1141,"x_min":73,"x_max":1045,"o":"m 827 918 l 946 918 l 946 904 l 291 0 l 172 0 l 172 14 l 827 918 m 73 728 q 89 808 73 770 q 133 873 105 845 q 198 917 161 901 q 277 932 235 932 q 357 917 319 932 q 422 873 394 901 q 466 808 450 845 q 481 728 481 770 q 466 649 481 686 q 422 584 450 612 q 357 540 394 556 q 277 524 319 524 q 198 540 235 524 q 133 584 161 556 q 89 649 105 612 q 73 728 73 686 m 176 728 q 184 678 176 700 q 206 641 192 656 q 239 617 220 625 q 277 610 257 610 q 316 617 298 610 q 349 641 334 625 q 371 678 363 656 q 379 728 379 700 q 371 779 379 757 q 349 816 363 801 q 316 839 334 831 q 277 847 298 847 q 239 839 257 847 q 206 816 220 831 q 184 779 192 801 q 176 728 176 757 m 637 189 q 653 269 637 231 q 696 334 669 306 q 761 377 724 361 q 841 393 798 393 q 920 377 883 393 q 985 334 958 361 q 1029 269 1013 306 q 1045 189 1045 231 q 1029 110 1045 146 q 985 45 1013 73 q 920 1 958 17 q 841 -15 883 -15 q 761 1 798 -15 q 696 45 724 17 q 653 110 669 73 q 637 189 637 146 m 739 189 q 747 139 739 161 q 770 101 755 117 q 802 78 784 86 q 841 71 821 71 q 880 78 861 71 q 912 101 898 86 q 935 139 926 117 q 943 189 943 161 q 935 240 943 218 q 912 277 926 262 q 880 300 898 292 q 841 308 861 308 q 802 300 821 308 q 770 277 784 292 q 747 240 755 262 q 739 189 739 218 z "},"+":{"ha":721,"x_min":109,"x_max":612,"o":"m 410 668 l 410 452 l 612 452 l 612 353 l 410 353 l 410 137 l 311 137 l 311 353 l 109 353 l 109 452 l 311 452 l 311 668 l 410 668 z "},"=":{"ha":761,"x_min":109,"x_max":652,"o":"m 109 315 l 652 315 l 652 208 l 109 208 l 109 315 m 109 629 l 652 629 l 652 522 l 109 522 l 109 629 z "},"^":{"ha":749,"x_min":95,"x_max":654,"o":"m 342 1044 l 407 1044 l 654 732 l 654 711 l 559 711 l 378 939 l 371 939 l 190 711 l 95 711 l 95 732 l 342 1044 z "},"~":{"ha":821,"x_min":95,"x_max":733,"o":"m 95 372 q 107 439 95 410 q 142 488 120 469 q 193 518 163 508 q 258 528 223 528 q 312 521 282 528 q 374 504 342 514 q 438 483 406 494 q 498 461 470 471 q 549 445 526 452 q 584 438 571 438 q 609 443 597 438 q 632 458 622 448 q 648 484 642 469 q 654 519 654 499 l 733 526 l 733 494 q 722 430 733 458 q 690 381 710 401 q 641 350 669 361 q 578 339 612 339 q 526 346 556 339 q 463 362 496 353 q 396 384 430 372 q 331 405 361 395 q 277 422 301 415 q 241 429 254 429 q 215 426 228 429 q 191 416 201 423 q 175 395 181 408 q 169 362 169 382 l 95 355 l 95 372 z "},"¢":{"ha":694,"x_min":65,"x_max":643,"o":"m 356 -14 q 238 8 292 -10 q 146 62 185 27 q 86 149 108 97 q 65 271 65 201 l 65 334 q 85 503 65 429 q 144 628 106 576 q 236 709 182 680 q 356 747 290 739 l 356 918 l 436 918 l 436 750 q 519 741 482 748 q 582 727 556 734 q 635 708 612 718 l 635 535 l 553 526 l 520 655 q 498 661 510 658 q 471 665 487 663 q 436 669 456 667 l 436 66 q 514 76 477 68 q 581 93 552 83 q 643 116 614 103 l 643 51 q 586 23 618 35 q 520 2 558 12 q 436 -13 483 -9 l 436 -166 l 356 -166 l 356 -14 m 187 300 q 201 213 187 252 q 238 147 215 175 q 292 101 262 119 q 356 75 323 83 l 356 667 q 302 657 326 663 q 262 644 278 650 q 228 629 242 637 q 208 559 216 598 q 194 479 200 526 q 187 374 187 433 l 187 300 z "},"£":{"ha":747,"x_min":75,"x_max":682,"o":"m 81 66 l 170 86 q 180 127 176 105 q 188 173 184 147 q 192 230 192 199 q 190 268 192 250 q 185 307 189 287 q 177 348 182 326 q 165 397 172 370 l 88 397 l 75 457 l 142 476 q 127 533 134 507 q 117 584 121 559 q 112 634 113 609 q 110 688 110 659 q 126 781 110 737 q 177 859 142 825 q 268 912 212 892 q 401 932 323 932 q 500 924 456 932 q 575 904 545 915 q 638 876 611 892 l 638 688 l 566 678 l 517 833 q 483 842 502 838 q 443 848 466 846 q 392 851 420 851 q 337 847 362 851 q 295 837 313 842 q 258 823 274 831 q 245 789 250 808 q 236 750 239 773 q 232 697 232 726 q 239 591 232 642 q 262 484 247 540 l 558 484 l 558 397 l 286 397 q 301 324 296 358 q 307 254 307 290 q 302 188 307 218 q 292 135 298 157 q 278 87 286 109 l 555 87 l 611 218 l 682 203 l 665 0 l 94 0 l 81 66 z "}," ":{"ha":373,"x_min":0,"x_max":0,"o":""},"¥":{"ha":761,"x_min":-35,"x_max":796,"o":"m 127 431 l 299 431 l 42 831 l -35 850 l -22 918 l 256 918 l 270 850 l 181 831 l 400 490 l 407 490 l 614 831 l 530 850 l 544 918 l 783 918 l 796 850 l 721 831 l 477 431 l 644 431 l 644 345 l 453 345 l 453 258 l 644 258 l 644 172 l 453 172 l 453 90 l 556 66 l 543 0 l 234 0 l 220 66 l 324 90 l 324 172 l 127 172 l 127 258 l 324 258 l 324 345 l 127 345 l 127 431 z "},"¤":{"ha":862,"x_min":122,"x_max":740,"o":"m 125 130 l 221 244 q 181 316 195 277 q 166 399 166 355 q 179 477 166 440 q 216 546 193 515 l 122 658 l 209 730 l 302 618 q 363 642 331 634 q 431 650 396 650 q 498 642 466 650 q 559 619 530 634 l 652 730 l 740 656 l 646 545 q 683 477 670 514 q 696 399 696 439 q 682 315 696 355 q 640 243 667 276 l 738 128 l 651 56 l 551 174 q 431 147 495 147 q 369 154 399 147 q 312 174 339 161 l 213 56 l 125 130 m 286 399 q 297 332 286 361 q 328 284 309 304 q 375 255 348 264 q 431 245 401 245 q 488 255 461 245 q 534 284 514 264 q 565 332 553 304 q 576 399 576 361 q 565 465 576 436 q 534 513 553 494 q 488 543 514 533 q 431 553 461 553 q 375 543 401 553 q 328 513 348 533 q 297 465 309 494 q 286 399 286 436 z "},"₹":{"ha":757,"x_min":100,"x_max":669,"o":"m 195 837 l 100 858 l 114 918 l 574 918 l 669 897 l 655 837 l 471 837 q 504 780 492 812 q 519 707 517 748 l 574 707 l 669 686 l 655 627 l 515 627 q 449 504 500 555 q 313 431 398 454 l 312 422 l 506 86 l 602 66 l 588 0 l 422 0 l 177 422 l 177 495 q 261 500 226 495 q 319 513 296 506 q 364 531 346 520 q 374 557 369 543 q 382 588 378 570 q 388 627 386 605 l 195 627 l 100 648 l 114 707 l 385 707 q 332 805 375 774 q 205 837 289 837 l 195 837 z "},"€":{"ha":814,"x_min":14,"x_max":787,"o":"m 29 558 l 130 558 q 258 837 157 742 q 531 932 359 932 q 632 924 587 932 q 710 905 677 916 q 777 878 747 893 l 777 684 l 696 684 l 663 831 q 623 838 645 835 q 575 843 603 840 q 513 845 547 845 q 426 836 463 845 q 362 815 388 827 q 310 785 332 802 q 288 724 298 758 q 269 652 278 694 q 254 558 260 610 l 653 558 l 637 490 l 250 490 l 250 463 l 250 422 l 621 422 l 606 355 l 250 355 q 277 223 252 277 q 340 136 301 170 q 431 87 380 102 q 536 73 481 73 q 632 83 587 73 q 712 108 677 94 q 787 143 752 123 l 787 71 q 703 28 749 47 q 607 -2 662 12 q 484 -15 551 -15 q 346 2 411 -15 q 230 62 280 20 q 150 174 180 104 q 121 349 121 243 l 121 355 l 14 355 l 29 422 l 121 422 q 122 457 121 440 q 123 490 122 474 l 14 490 l 29 558 z "},"­":{"ha":657,"x_min":136,"x_max":555,"o":"m 156 451 l 555 479 l 535 378 l 136 350 l 156 451 z "},"¯":{"ha":699,"x_min":102,"x_max":597,"o":"m 115 999 l 597 999 l 583 918 l 102 918 l 115 999 z "},"ā":{"ha":780,"x_min":73,"x_max":754,"o":"m 637 90 l 754 66 l 741 0 l 568 -15 l 528 105 q 415 13 475 41 q 284 -15 355 -15 q 131 33 189 -15 q 73 161 73 80 q 183 348 73 285 q 515 412 293 412 l 515 476 q 478 624 515 578 q 349 669 441 669 q 299 667 327 669 q 247 659 271 664 l 206 515 l 140 522 l 140 714 q 240 740 180 728 q 361 751 300 751 q 569 689 500 751 q 637 498 637 628 l 637 90 m 515 330 q 334 317 413 330 q 214 281 256 304 q 201 238 206 262 q 195 186 195 214 q 233 98 195 130 q 330 66 270 66 q 431 92 381 66 q 515 153 480 117 l 515 330 m 146 999 l 629 999 l 615 918 l 134 918 l 146 999 z "},"ē":{"ha":701,"x_min":65,"x_max":647,"o":"m 187 355 l 187 303 q 250 128 187 189 q 399 66 313 66 q 510 79 456 66 q 611 111 564 91 l 611 45 q 487 0 552 14 q 359 -15 422 -15 q 142 61 219 -15 q 65 281 65 137 l 65 337 q 152 641 65 532 q 387 751 238 751 q 586 681 525 751 q 647 436 647 610 l 647 355 l 187 355 m 228 629 q 202 536 213 591 q 189 436 192 482 l 518 436 q 483 614 518 559 q 368 669 447 669 q 290 657 328 669 q 228 629 251 645 m 161 999 l 644 999 l 630 918 l 149 918 l 161 999 z "},"ō":{"ha":755,"x_min":65,"x_max":690,"o":"m 371 -15 q 144 64 223 -15 q 65 284 65 143 l 65 347 q 151 643 65 534 q 378 751 237 751 q 608 672 526 751 q 690 445 690 593 l 690 381 q 605 93 690 201 q 371 -15 519 -15 m 568 422 q 515 603 568 538 q 364 669 462 667 q 290 657 327 669 q 228 629 252 646 q 199 525 210 589 q 187 388 187 461 l 187 307 q 246 130 187 193 q 391 66 304 66 q 461 77 425 66 q 528 107 497 88 q 558 212 549 151 q 568 341 568 273 l 568 422 m 157 999 l 640 999 l 626 918 l 144 918 l 157 999 z "},"ū":{"ha":856,"x_min":26,"x_max":825,"o":"m 252 273 q 289 117 252 168 q 416 66 326 66 q 513 90 465 66 q 599 153 561 113 l 599 646 l 475 669 l 488 736 l 721 751 l 721 90 l 825 66 l 811 0 l 652 -15 l 612 106 q 496 13 557 41 q 361 -15 435 -15 q 188 50 247 -15 q 130 243 130 114 l 130 646 l 26 669 l 39 736 l 252 751 l 252 273 m 185 999 l 667 999 l 654 918 l 172 918 l 185 999 z "},"Ā":{"ha":826,"x_min":-5,"x_max":831,"o":"m -5 66 l 68 86 l 366 918 l 467 918 l 758 86 l 831 66 l 818 0 l 557 0 l 543 66 l 630 86 l 566 275 l 233 275 l 168 86 l 255 66 l 241 0 l 8 0 l -5 66 m 264 363 l 536 363 l 405 749 l 398 749 l 264 363 m 172 1126 l 695 1126 l 682 1044 l 159 1044 l 172 1126 z "},"Ē":{"ha":808,"x_min":52,"x_max":737,"o":"m 284 436 l 284 87 l 610 87 l 667 218 l 737 203 l 721 0 l 65 0 l 52 66 l 155 90 l 155 828 l 52 851 l 65 918 l 701 918 l 717 714 l 647 699 l 591 830 l 284 830 l 284 524 l 526 524 l 549 606 l 616 593 l 616 366 l 549 353 l 526 436 l 284 436 m 155 1126 l 678 1126 l 665 1044 l 142 1044 l 155 1126 z "},"Ī":{"ha":436,"x_min":-41,"x_max":494,"o":"m 153 828 l 49 851 l 62 918 l 371 918 l 385 851 l 281 828 l 281 90 l 385 66 l 371 0 l 62 0 l 49 66 l 153 90 l 153 828 m -28 1126 l 494 1126 l 481 1044 l -41 1044 l -28 1126 z "},"Ō":{"ha":912,"x_min":69,"x_max":843,"o":"m 450 -15 q 165 78 260 -15 q 69 356 69 172 l 69 410 q 170 803 69 673 q 463 932 270 932 q 747 840 652 932 q 843 561 843 747 l 843 508 q 745 119 843 252 q 450 -15 648 -15 m 714 531 q 643 768 714 691 q 443 845 572 845 q 329 826 382 845 q 245 785 275 808 q 211 645 224 723 q 198 477 198 568 l 198 387 q 274 155 198 237 q 470 73 351 73 q 582 91 530 73 q 668 133 635 109 q 702 282 690 201 q 714 441 714 363 l 714 531 m 206 1126 l 729 1126 l 715 1044 l 193 1044 l 206 1126 z "},"Ū":{"ha":921,"x_min":11,"x_max":910,"o":"m 244 370 q 308 146 244 219 q 484 73 372 73 q 584 88 537 73 q 659 124 631 104 q 696 226 682 166 q 711 353 711 286 l 711 828 l 608 851 l 621 918 l 897 918 l 910 851 l 807 828 l 807 369 q 721 78 807 172 q 456 -15 635 -15 q 201 70 288 -15 q 115 333 115 154 l 115 828 l 11 851 l 24 918 l 334 918 l 347 851 l 244 828 l 244 370 m 235 1126 l 758 1126 l 744 1044 l 222 1044 l 235 1126 z "},"˚":{"ha":541,"x_min":136,"x_max":405,"o":"m 136 974 q 147 1044 136 1014 q 178 1093 159 1074 q 223 1123 197 1113 q 277 1133 249 1133 q 327 1126 303 1133 q 367 1105 350 1119 q 395 1069 385 1091 q 405 1017 405 1048 q 394 945 405 975 q 364 896 383 915 q 319 867 345 876 q 264 858 293 858 q 214 865 237 858 q 173 886 191 871 q 146 922 156 900 q 136 974 136 944 m 207 996 q 212 959 207 975 q 227 931 218 942 q 247 913 235 920 q 271 907 258 907 q 293 909 282 907 q 311 913 304 911 q 328 920 320 916 q 331 939 330 928 q 333 963 332 949 q 334 996 334 977 q 329 1033 334 1016 q 315 1060 323 1049 q 294 1078 306 1072 q 271 1084 283 1084 q 252 1082 261 1084 q 235 1077 243 1080 q 220 1071 227 1074 q 213 1053 216 1064 q 209 1029 210 1044 q 207 996 207 1015 z "},"å":{"ha":780,"x_min":73,"x_max":754,"o":"m 637 90 l 754 66 l 741 0 l 568 -15 l 528 105 q 415 13 475 41 q 284 -15 355 -15 q 131 33 189 -15 q 73 161 73 80 q 183 348 73 285 q 515 412 293 412 l 515 476 q 478 624 515 578 q 349 669 441 669 q 299 667 327 669 q 247 659 271 664 l 206 515 l 140 522 l 140 714 q 240 740 180 728 q 361 751 300 751 q 569 689 500 751 q 637 498 637 628 l 637 90 m 515 330 q 334 317 413 330 q 214 281 256 304 q 201 238 206 262 q 195 186 195 214 q 233 98 195 130 q 330 66 270 66 q 431 92 381 66 q 515 153 480 117 l 515 330 m 249 974 q 260 1044 249 1014 q 291 1093 272 1074 q 336 1123 311 1113 q 391 1133 362 1133 q 440 1126 416 1133 q 480 1105 463 1119 q 508 1069 498 1091 q 518 1017 518 1048 q 507 945 518 975 q 477 896 496 915 q 432 867 458 876 q 377 858 406 858 q 327 865 351 858 q 287 886 304 871 q 259 922 269 900 q 249 974 249 944 m 320 996 q 326 959 320 975 q 340 931 331 942 q 360 913 349 920 q 384 907 372 907 q 406 909 395 907 q 425 913 417 911 q 441 920 433 916 q 444 939 443 928 q 447 963 446 949 q 448 996 448 977 q 442 1033 448 1016 q 428 1060 437 1049 q 408 1078 419 1072 q 384 1084 396 1084 q 365 1082 374 1084 q 349 1077 356 1080 q 333 1071 340 1074 q 326 1053 329 1064 q 322 1029 323 1044 q 320 996 320 1015 z "},"˘":{"ha":686,"x_min":136,"x_max":551,"o":"m 551 1080 q 536 1007 551 1043 q 494 943 522 971 q 429 896 467 914 q 343 878 391 878 q 257 896 296 878 q 192 943 219 914 q 150 1007 165 971 q 136 1080 136 1043 l 201 1086 q 210 1056 201 1076 q 235 1016 218 1036 q 279 981 252 996 q 343 966 306 966 q 407 981 380 966 q 451 1016 434 996 q 477 1056 469 1036 q 485 1086 485 1076 l 551 1080 z "},"ă":{"ha":780,"x_min":73,"x_max":754,"o":"m 637 90 l 754 66 l 741 0 l 568 -15 l 528 105 q 415 13 475 41 q 284 -15 355 -15 q 131 33 189 -15 q 73 161 73 80 q 183 348 73 285 q 515 412 293 412 l 515 476 q 478 624 515 578 q 349 669 441 669 q 299 667 327 669 q 247 659 271 664 l 206 515 l 140 522 l 140 714 q 240 740 180 728 q 361 751 300 751 q 569 689 500 751 q 637 498 637 628 l 637 90 m 515 330 q 334 317 413 330 q 214 281 256 304 q 201 238 206 262 q 195 186 195 214 q 233 98 195 130 q 330 66 270 66 q 431 92 381 66 q 515 153 480 117 l 515 330 m 578 1080 q 564 1007 578 1043 q 522 943 549 971 q 457 896 495 914 q 371 878 418 878 q 285 896 323 878 q 220 943 247 914 q 178 1007 193 971 q 163 1080 163 1043 l 229 1086 q 237 1056 229 1076 q 263 1016 245 1036 q 307 981 280 996 q 371 966 334 966 q 435 981 408 966 q 479 1016 462 996 q 505 1056 496 1036 q 513 1086 513 1076 l 578 1080 z "},"ĕ":{"ha":701,"x_min":65,"x_max":647,"o":"m 187 355 l 187 303 q 250 128 187 189 q 399 66 313 66 q 510 79 456 66 q 611 111 564 91 l 611 45 q 487 0 552 14 q 359 -15 422 -15 q 142 61 219 -15 q 65 281 65 137 l 65 337 q 152 641 65 532 q 387 751 238 751 q 586 681 525 751 q 647 436 647 610 l 647 355 l 187 355 m 228 629 q 202 536 213 591 q 189 436 192 482 l 518 436 q 483 614 518 559 q 368 669 447 669 q 290 657 328 669 q 228 629 251 645 m 593 1080 q 579 1007 593 1043 q 537 943 564 971 q 472 896 510 914 q 386 878 433 878 q 300 896 338 878 q 235 943 262 914 q 193 1007 208 971 q 178 1080 178 1043 l 244 1086 q 252 1056 244 1076 q 278 1016 260 1036 q 322 981 295 996 q 386 966 349 966 q 450 981 423 966 q 494 1016 477 996 q 519 1056 511 1036 q 528 1086 528 1076 l 593 1080 z "},"ğ":{"ha":729,"x_min":62,"x_max":717,"o":"m 559 663 l 556 656 q 607 597 585 637 q 629 515 629 558 l 629 498 q 554 317 629 385 q 357 250 480 250 q 277 258 313 250 q 217 194 240 224 q 195 145 195 163 q 207 118 195 127 q 243 109 220 109 l 395 109 q 636 62 556 109 q 717 -85 717 15 q 623 -253 717 -195 q 356 -310 529 -310 q 134 -278 205 -310 q 62 -176 62 -246 q 99 -84 62 -130 q 204 6 136 -38 q 127 41 155 16 q 100 109 100 67 q 132 193 100 149 q 217 277 164 237 q 129 353 159 305 q 100 454 100 400 l 100 472 q 174 678 100 605 q 371 751 248 751 q 421 746 391 751 q 475 736 451 742 l 688 736 l 700 663 l 559 663 m 279 0 q 201 -74 231 -35 q 171 -146 171 -113 q 221 -211 171 -194 q 397 -229 271 -229 q 502 -220 449 -229 q 597 -194 555 -212 q 615 -155 608 -178 q 622 -109 622 -132 q 573 -24 622 -47 q 403 0 524 0 l 279 0 m 507 518 q 462 629 507 589 q 355 669 417 669 q 296 664 323 669 q 249 649 268 658 q 228 574 235 612 q 222 505 222 536 l 222 479 q 270 372 222 413 q 374 331 318 331 q 432 336 406 331 q 479 351 458 341 q 499 411 491 373 q 507 492 507 448 l 507 518 m 580 1080 q 565 1007 580 1043 q 524 943 551 971 q 458 896 496 914 q 372 878 420 878 q 287 896 325 878 q 221 943 248 914 q 179 1007 194 971 q 165 1080 165 1043 l 231 1086 q 239 1056 231 1076 q 264 1016 247 1036 q 308 981 281 996 q 372 966 335 966 q 436 981 410 966 q 480 1016 463 996 q 506 1056 498 1036 q 514 1086 514 1076 l 580 1080 z "},"ĭ":{"ha":448,"x_min":4,"x_max":419,"o":"m 298 90 l 401 66 l 388 0 l 85 0 l 72 66 l 176 90 l 176 646 l 72 669 l 85 736 l 298 751 l 298 90 m 419 1080 q 405 1007 419 1043 q 363 943 390 971 q 297 896 336 914 q 212 878 259 878 q 126 896 164 878 q 60 943 87 914 q 19 1007 33 971 q 4 1080 4 1043 l 70 1086 q 78 1056 70 1076 q 103 1016 86 1036 q 148 981 121 996 q 212 966 174 966 q 276 981 249 966 q 320 1016 302 996 q 345 1056 337 1036 q 353 1086 353 1076 l 419 1080 z "},"ŏ":{"ha":755,"x_min":65,"x_max":690,"o":"m 371 -15 q 144 64 223 -15 q 65 284 65 143 l 65 347 q 151 643 65 534 q 378 751 237 751 q 608 672 526 751 q 690 445 690 593 l 690 381 q 605 93 690 201 q 371 -15 519 -15 m 568 422 q 515 603 568 538 q 364 669 462 667 q 290 657 327 669 q 228 629 252 646 q 199 525 210 589 q 187 388 187 461 l 187 307 q 246 130 187 193 q 391 66 304 66 q 461 77 425 66 q 528 107 497 88 q 558 212 549 151 q 568 341 568 273 l 568 422 m 589 1080 q 575 1007 589 1043 q 533 943 560 971 q 468 896 506 914 q 382 878 429 878 q 296 896 334 878 q 231 943 258 914 q 189 1007 203 971 q 174 1080 174 1043 l 240 1086 q 248 1056 240 1076 q 274 1016 256 1036 q 318 981 291 996 q 382 966 345 966 q 446 981 419 966 q 490 1016 473 996 q 515 1056 507 1036 q 524 1086 524 1076 l 589 1080 z "},"ŭ":{"ha":856,"x_min":26,"x_max":825,"o":"m 252 273 q 289 117 252 168 q 416 66 326 66 q 513 90 465 66 q 599 153 561 113 l 599 646 l 475 669 l 488 736 l 721 751 l 721 90 l 825 66 l 811 0 l 652 -15 l 612 106 q 496 13 557 41 q 361 -15 435 -15 q 188 50 247 -15 q 130 243 130 114 l 130 646 l 26 669 l 39 736 l 252 751 l 252 273 m 617 1080 q 603 1007 617 1043 q 561 943 588 971 q 495 896 534 914 q 410 878 457 878 q 324 896 362 878 q 258 943 286 914 q 217 1007 231 971 q 202 1080 202 1043 l 268 1086 q 276 1056 268 1076 q 301 1016 284 1036 q 346 981 319 996 q 410 966 372 966 q 474 981 447 966 q 518 1016 500 996 q 543 1056 535 1036 q 551 1086 551 1076 l 617 1080 z "},"ů":{"ha":856,"x_min":26,"x_max":825,"o":"m 252 273 q 289 117 252 168 q 416 66 326 66 q 513 90 465 66 q 599 153 561 113 l 599 646 l 475 669 l 488 736 l 721 751 l 721 90 l 825 66 l 811 0 l 652 -15 l 612 106 q 496 13 557 41 q 361 -15 435 -15 q 188 50 247 -15 q 130 243 130 114 l 130 646 l 26 669 l 39 736 l 252 751 l 252 273 m 288 974 q 299 1044 288 1014 q 330 1093 311 1074 q 375 1123 349 1113 q 429 1133 401 1133 q 478 1126 455 1133 q 519 1105 502 1119 q 547 1069 536 1091 q 557 1017 557 1048 q 546 945 557 975 q 516 896 535 915 q 471 867 496 876 q 416 858 445 858 q 366 865 389 858 q 325 886 342 871 q 298 922 308 900 q 288 974 288 944 m 359 996 q 364 959 359 975 q 378 931 370 942 q 399 913 387 920 q 422 907 410 907 q 445 909 434 907 q 463 913 456 911 q 480 920 472 916 q 483 939 481 928 q 485 963 484 949 q 486 996 486 977 q 481 1033 486 1016 q 467 1060 475 1049 q 446 1078 458 1072 q 422 1084 435 1084 q 404 1082 413 1084 q 387 1077 395 1080 q 372 1071 379 1074 q 365 1053 368 1064 q 360 1029 362 1044 q 359 996 359 1015 z "},"Ů":{"ha":921,"x_min":11,"x_max":910,"o":"m 244 370 q 308 146 244 219 q 484 73 372 73 q 584 88 537 73 q 659 124 631 104 q 696 226 682 166 q 711 353 711 286 l 711 828 l 608 851 l 621 918 l 897 918 l 910 851 l 807 828 l 807 369 q 721 78 807 172 q 456 -15 635 -15 q 201 70 288 -15 q 115 333 115 154 l 115 828 l 11 851 l 24 918 l 334 918 l 347 851 l 244 828 l 244 370 m 355 1065 q 366 1127 355 1100 q 395 1173 376 1154 q 437 1200 413 1191 q 490 1210 462 1210 q 536 1204 514 1210 q 575 1185 558 1198 q 601 1153 591 1173 q 610 1108 610 1134 q 600 1043 610 1071 q 571 998 589 1016 q 528 972 553 981 q 476 963 504 963 q 429 969 451 963 q 390 988 407 976 q 364 1020 374 1001 q 355 1065 355 1039 m 422 1086 q 440 1035 422 1054 q 483 1016 458 1016 q 504 1018 494 1016 q 522 1022 514 1019 q 537 1029 530 1025 q 540 1044 538 1036 q 542 1062 541 1052 q 543 1086 543 1073 q 525 1139 543 1120 q 483 1158 507 1158 q 462 1156 471 1158 q 445 1151 452 1154 q 429 1145 436 1148 q 425 1133 427 1140 q 423 1115 424 1126 q 422 1086 422 1104 z "},"Ă":{"ha":826,"x_min":-5,"x_max":831,"o":"m -5 66 l 68 86 l 366 918 l 467 918 l 758 86 l 831 66 l 818 0 l 557 0 l 543 66 l 630 86 l 566 275 l 233 275 l 168 86 l 255 66 l 241 0 l 8 0 l -5 66 m 264 363 l 536 363 l 405 749 l 398 749 l 264 363 m 643 1186 q 627 1119 643 1152 q 583 1058 612 1085 q 511 1015 553 1031 q 415 998 469 998 q 319 1015 361 998 q 248 1058 277 1031 q 203 1119 218 1085 q 187 1186 187 1152 l 253 1193 q 261 1165 253 1183 q 288 1130 269 1147 q 338 1099 307 1112 q 415 1086 369 1086 q 492 1099 461 1086 q 542 1130 524 1112 q 569 1165 561 1147 q 577 1193 577 1183 l 643 1186 z "},"Ĕ":{"ha":808,"x_min":52,"x_max":737,"o":"m 284 436 l 284 87 l 610 87 l 667 218 l 737 203 l 721 0 l 65 0 l 52 66 l 155 90 l 155 828 l 52 851 l 65 918 l 701 918 l 717 714 l 647 699 l 591 830 l 284 830 l 284 524 l 526 524 l 549 606 l 616 593 l 616 366 l 549 353 l 526 436 l 284 436 m 626 1186 q 610 1119 626 1152 q 566 1058 595 1085 q 494 1015 536 1031 q 398 998 452 998 q 302 1015 345 998 q 231 1058 260 1031 q 186 1119 201 1085 q 170 1186 170 1152 l 236 1193 q 244 1165 236 1183 q 271 1130 252 1147 q 321 1099 290 1112 q 398 1086 352 1086 q 475 1099 444 1086 q 525 1130 507 1112 q 552 1165 544 1147 q 560 1193 560 1183 l 626 1186 z "},"Ğ":{"ha":882,"x_min":69,"x_max":844,"o":"m 741 71 q 597 8 675 31 q 443 -15 519 -15 q 167 77 265 -15 q 69 342 69 168 l 69 403 q 176 796 69 659 q 484 932 283 932 q 616 922 551 932 q 730 894 682 912 l 745 711 l 673 696 l 618 827 q 551 840 592 834 q 469 845 511 845 q 356 829 410 845 q 265 785 303 813 q 216 638 234 722 q 198 463 198 555 l 198 373 q 280 151 198 230 q 477 73 362 73 q 547 79 512 73 q 612 97 581 86 l 612 342 l 508 365 l 522 438 l 830 438 l 844 365 l 741 342 l 741 71 m 698 1186 q 682 1119 698 1152 q 637 1058 667 1085 q 566 1015 608 1031 q 470 998 524 998 q 374 1015 416 998 q 302 1058 332 1031 q 258 1119 273 1085 q 242 1186 242 1152 l 308 1193 q 316 1165 308 1183 q 343 1130 324 1147 q 393 1099 361 1112 q 470 1086 424 1086 q 547 1099 516 1086 q 597 1130 578 1112 q 624 1165 616 1147 q 632 1193 632 1183 l 698 1186 z "},"Ĭ":{"ha":436,"x_min":-14,"x_max":442,"o":"m 153 828 l 49 851 l 62 918 l 371 918 l 385 851 l 281 828 l 281 90 l 385 66 l 371 0 l 62 0 l 49 66 l 153 90 l 153 828 m 442 1186 q 427 1119 442 1152 q 382 1058 411 1085 q 310 1015 353 1031 q 214 998 268 998 q 118 1015 161 998 q 47 1058 76 1031 q 2 1119 18 1085 q -14 1186 -14 1152 l 52 1193 q 60 1165 52 1183 q 87 1130 68 1147 q 137 1099 106 1112 q 214 1086 168 1086 q 292 1099 260 1086 q 341 1130 323 1112 q 368 1165 360 1147 q 376 1193 376 1183 l 442 1186 z "},"Ŏ":{"ha":912,"x_min":69,"x_max":843,"o":"m 450 -15 q 165 78 260 -15 q 69 356 69 172 l 69 410 q 170 803 69 673 q 463 932 270 932 q 747 840 652 932 q 843 561 843 747 l 843 508 q 745 119 843 252 q 450 -15 648 -15 m 714 531 q 643 768 714 691 q 443 845 572 845 q 329 826 382 845 q 245 785 275 808 q 211 645 224 723 q 198 477 198 568 l 198 387 q 274 155 198 237 q 470 73 351 73 q 582 91 530 73 q 668 133 635 109 q 702 282 690 201 q 714 441 714 363 l 714 531 m 677 1186 q 661 1119 677 1152 q 616 1058 646 1085 q 545 1015 587 1031 q 449 998 503 998 q 353 1015 395 998 q 281 1058 311 1031 q 237 1119 252 1085 q 221 1186 221 1152 l 287 1193 q 295 1165 287 1183 q 322 1130 303 1147 q 372 1099 340 1112 q 449 1086 403 1086 q 526 1099 495 1086 q 576 1130 557 1112 q 603 1165 595 1147 q 611 1193 611 1183 l 677 1186 z "},"Ŭ":{"ha":921,"x_min":11,"x_max":910,"o":"m 244 370 q 308 146 244 219 q 484 73 372 73 q 584 88 537 73 q 659 124 631 104 q 696 226 682 166 q 711 353 711 286 l 711 828 l 608 851 l 621 918 l 897 918 l 910 851 l 807 828 l 807 369 q 721 78 807 172 q 456 -15 635 -15 q 201 70 288 -15 q 115 333 115 154 l 115 828 l 11 851 l 24 918 l 334 918 l 347 851 l 244 828 l 244 370 m 705 1186 q 690 1119 705 1152 q 645 1058 674 1085 q 573 1015 616 1031 q 477 998 531 998 q 381 1015 424 998 q 310 1058 339 1031 q 265 1119 281 1085 q 250 1186 250 1152 l 315 1193 q 323 1165 315 1183 q 350 1130 332 1147 q 400 1099 369 1112 q 477 1086 431 1086 q 555 1099 524 1086 q 605 1130 586 1112 q 631 1165 623 1147 q 640 1193 640 1183 l 705 1186 z "},"˙":{"ha":499,"x_min":170,"x_max":330,"o":"m 170 950 q 175 986 170 969 q 190 1017 180 1004 q 211 1037 199 1029 q 236 1044 222 1044 q 273 1039 256 1044 q 302 1025 290 1034 q 322 1004 315 1016 q 330 977 330 991 q 324 941 330 958 q 310 911 319 924 q 289 891 300 899 q 263 884 277 884 q 227 889 243 884 q 197 904 210 895 q 177 925 184 913 q 170 950 170 937 z "},"ċ":{"ha":659,"x_min":65,"x_max":608,"o":"m 65 334 q 151 643 65 534 q 388 751 237 751 q 491 741 439 751 q 595 708 543 730 l 608 549 l 533 534 l 486 655 q 439 666 463 662 q 386 669 414 669 q 303 659 344 669 q 228 629 263 649 q 200 520 213 588 q 187 374 187 453 l 187 300 q 250 129 187 192 q 402 66 313 66 q 501 79 451 66 q 602 116 551 92 l 602 51 q 495 3 555 22 q 369 -15 434 -15 q 145 59 226 -15 q 65 271 65 132 l 65 334 m 318 950 q 323 986 318 969 q 338 1017 329 1004 q 359 1037 347 1029 q 385 1044 371 1044 q 421 1039 404 1044 q 451 1025 438 1034 q 471 1004 464 1016 q 478 977 478 991 q 473 941 478 958 q 458 911 467 924 q 437 891 449 899 q 412 884 425 884 q 375 889 392 884 q 345 904 358 895 q 325 925 332 913 q 318 950 318 937 z "},"ė":{"ha":701,"x_min":65,"x_max":647,"o":"m 187 355 l 187 303 q 250 128 187 189 q 399 66 313 66 q 510 79 456 66 q 611 111 564 91 l 611 45 q 487 0 552 14 q 359 -15 422 -15 q 142 61 219 -15 q 65 281 65 137 l 65 337 q 152 641 65 532 q 387 751 238 751 q 586 681 525 751 q 647 436 647 610 l 647 355 l 187 355 m 228 629 q 202 536 213 591 q 189 436 192 482 l 518 436 q 483 614 518 559 q 368 669 447 669 q 290 657 328 669 q 228 629 251 645 m 316 950 q 321 986 316 969 q 336 1017 327 1004 q 357 1037 345 1029 q 382 1044 369 1044 q 419 1039 402 1044 q 449 1025 436 1034 q 469 1004 462 1016 q 476 977 476 991 q 471 941 476 958 q 456 911 465 924 q 435 891 447 899 q 410 884 423 884 q 373 889 390 884 q 343 904 356 895 q 323 925 330 913 q 316 950 316 937 z "},"ġ":{"ha":729,"x_min":62,"x_max":717,"o":"m 559 663 l 556 656 q 607 597 585 637 q 629 515 629 558 l 629 498 q 554 317 629 385 q 357 250 480 250 q 277 258 313 250 q 217 194 240 224 q 195 145 195 163 q 207 118 195 127 q 243 109 220 109 l 395 109 q 636 62 556 109 q 717 -85 717 15 q 623 -253 717 -195 q 356 -310 529 -310 q 134 -278 205 -310 q 62 -176 62 -246 q 99 -84 62 -130 q 204 6 136 -38 q 127 41 155 16 q 100 109 100 67 q 132 193 100 149 q 217 277 164 237 q 129 353 159 305 q 100 454 100 400 l 100 472 q 174 678 100 605 q 371 751 248 751 q 421 746 391 751 q 475 736 451 742 l 688 736 l 700 663 l 559 663 m 279 0 q 201 -74 231 -35 q 171 -146 171 -113 q 221 -211 171 -194 q 397 -229 271 -229 q 502 -220 449 -229 q 597 -194 555 -212 q 615 -155 608 -178 q 622 -109 622 -132 q 573 -24 622 -47 q 403 0 524 0 l 279 0 m 507 518 q 462 629 507 589 q 355 669 417 669 q 296 664 323 669 q 249 649 268 658 q 228 574 235 612 q 222 505 222 536 l 222 479 q 270 372 222 413 q 374 331 318 331 q 432 336 406 331 q 479 351 458 341 q 499 411 491 373 q 507 492 507 448 l 507 518 m 302 950 q 308 986 302 969 q 322 1017 313 1004 q 343 1037 332 1029 q 369 1044 355 1044 q 406 1039 389 1044 q 435 1025 422 1034 q 455 1004 448 1016 q 463 977 463 991 q 457 941 463 958 q 443 911 452 924 q 421 891 433 899 q 396 884 410 884 q 359 889 376 884 q 330 904 342 895 q 310 925 317 913 q 302 950 302 937 z "},"ż":{"ha":656,"x_min":62,"x_max":614,"o":"m 503 75 l 538 203 l 608 196 l 608 0 l 62 0 l 62 64 l 465 653 l 460 661 l 189 661 l 154 532 l 83 540 l 83 736 l 614 736 l 614 680 l 206 83 l 210 75 l 503 75 m 286 950 q 291 986 286 969 q 306 1017 296 1004 q 327 1037 315 1029 q 352 1044 338 1044 q 389 1039 372 1044 q 418 1025 406 1034 q 438 1004 431 1016 q 446 977 446 991 q 440 941 446 958 q 426 911 435 924 q 405 891 416 899 q 379 884 393 884 q 342 889 359 884 q 313 904 326 895 q 293 925 300 913 q 286 950 286 937 z "},"Ċ":{"ha":798,"x_min":68,"x_max":741,"o":"m 68 410 q 172 800 68 668 q 478 932 277 932 q 608 922 543 932 q 724 892 674 912 l 739 709 l 667 694 l 611 827 q 545 840 585 835 q 460 845 505 845 q 349 829 401 845 q 257 785 296 814 q 213 636 230 723 q 197 463 197 549 l 197 373 q 276 150 197 228 q 490 73 356 73 q 621 93 554 73 q 741 143 688 113 l 741 71 q 601 8 677 31 q 450 -15 524 -15 q 164 76 261 -15 q 68 349 68 167 l 68 410 m 386 1084 q 391 1120 386 1103 q 406 1150 397 1137 q 427 1171 415 1163 q 452 1178 439 1178 q 489 1173 472 1178 q 519 1159 506 1168 q 539 1137 532 1149 q 546 1111 546 1125 q 541 1075 546 1092 q 526 1045 535 1058 q 505 1025 517 1032 q 479 1017 493 1017 q 443 1023 460 1017 q 413 1037 426 1028 q 393 1058 400 1046 q 386 1084 386 1070 z "},"Ė":{"ha":808,"x_min":52,"x_max":737,"o":"m 284 436 l 284 87 l 610 87 l 667 218 l 737 203 l 721 0 l 65 0 l 52 66 l 155 90 l 155 828 l 52 851 l 65 918 l 701 918 l 717 714 l 647 699 l 591 830 l 284 830 l 284 524 l 526 524 l 549 606 l 616 593 l 616 366 l 549 353 l 526 436 l 284 436 m 325 1084 q 330 1120 325 1103 q 345 1150 336 1137 q 366 1171 354 1163 q 391 1178 378 1178 q 428 1173 411 1178 q 458 1159 445 1168 q 478 1137 471 1149 q 485 1111 485 1125 q 479 1075 485 1092 q 465 1045 474 1058 q 444 1025 456 1032 q 418 1017 432 1017 q 382 1023 399 1017 q 352 1037 365 1028 q 332 1058 339 1046 q 325 1084 325 1070 z "},"Ġ":{"ha":882,"x_min":69,"x_max":844,"o":"m 741 71 q 597 8 675 31 q 443 -15 519 -15 q 167 77 265 -15 q 69 342 69 168 l 69 403 q 176 796 69 659 q 484 932 283 932 q 616 922 551 932 q 730 894 682 912 l 745 711 l 673 696 l 618 827 q 551 840 592 834 q 469 845 511 845 q 356 829 410 845 q 265 785 303 813 q 216 638 234 722 q 198 463 198 555 l 198 373 q 280 151 198 230 q 477 73 362 73 q 547 79 512 73 q 612 97 581 86 l 612 342 l 508 365 l 522 438 l 830 438 l 844 365 l 741 342 l 741 71 m 397 1084 q 402 1120 397 1103 q 417 1150 408 1137 q 438 1171 426 1163 q 463 1178 450 1178 q 500 1173 483 1178 q 530 1159 517 1168 q 550 1137 543 1149 q 557 1111 557 1125 q 551 1075 557 1092 q 537 1045 546 1058 q 516 1025 528 1032 q 490 1017 504 1017 q 454 1023 471 1017 q 424 1037 437 1028 q 404 1058 411 1046 q 397 1084 397 1070 z "},"İ":{"ha":436,"x_min":49,"x_max":385,"o":"m 153 828 l 49 851 l 62 918 l 371 918 l 385 851 l 281 828 l 281 90 l 385 66 l 371 0 l 62 0 l 49 66 l 153 90 l 153 828 m 141 1084 q 146 1120 141 1103 q 161 1150 152 1137 q 182 1171 170 1163 q 208 1178 194 1178 q 244 1173 227 1178 q 274 1159 261 1168 q 294 1137 287 1149 q 301 1111 301 1125 q 296 1075 301 1092 q 281 1045 290 1058 q 260 1025 272 1032 q 235 1017 248 1017 q 198 1023 215 1017 q 168 1037 181 1028 q 148 1058 155 1046 q 141 1084 141 1070 z "},"Ż":{"ha":766,"x_min":56,"x_max":715,"o":"m 694 918 l 694 833 l 208 97 l 212 87 l 589 87 l 645 218 l 715 203 l 699 0 l 56 0 l 56 85 l 541 821 l 537 830 l 187 830 l 132 699 l 61 714 l 78 918 l 694 918 m 309 1084 q 315 1120 309 1103 q 329 1150 320 1137 q 350 1171 338 1163 q 376 1178 362 1178 q 412 1173 395 1178 q 442 1159 429 1168 q 462 1137 455 1149 q 469 1111 469 1125 q 464 1075 469 1092 q 449 1045 458 1058 q 428 1025 440 1032 q 403 1017 416 1017 q 366 1023 383 1017 q 336 1037 349 1028 q 316 1058 323 1046 q 309 1084 309 1070 z "},"˛":{"ha":521,"x_min":136,"x_max":385,"o":"m 355 0 q 303 -45 326 -20 q 264 -96 281 -70 q 240 -149 248 -122 q 231 -198 231 -175 q 243 -233 231 -224 q 277 -242 256 -242 q 315 -234 296 -242 q 350 -215 334 -225 q 385 -188 368 -203 l 385 -251 q 347 -281 369 -268 q 301 -301 328 -292 q 243 -310 275 -310 q 162 -290 189 -310 q 136 -220 136 -271 q 154 -135 136 -176 q 203 -56 172 -94 q 273 16 233 -18 q 355 79 313 50 l 355 0 z "},"Ą":{"ha":826,"x_min":-5,"x_max":831,"o":"m 660 0 q 609 -45 631 -20 q 570 -96 586 -70 q 545 -149 553 -122 q 536 -198 536 -175 q 549 -233 536 -224 q 582 -242 561 -242 q 621 -234 602 -242 q 655 -215 640 -225 q 690 -188 673 -203 l 690 -251 q 652 -281 674 -268 q 607 -301 633 -292 q 548 -310 581 -310 q 468 -290 494 -310 q 441 -220 441 -271 q 459 -135 441 -176 q 508 -56 477 -94 q 578 16 538 -18 q 638 64 608 41 l 566 275 l 233 275 l 168 86 l 255 66 l 241 0 l 8 0 l -5 66 l 68 86 l 366 918 l 467 918 l 758 86 l 831 66 l 818 0 l 660 0 m 264 363 l 536 363 l 405 749 l 398 749 l 264 363 z "},"Ę":{"ha":808,"x_min":52,"x_max":751,"o":"m 721 0 q 670 -45 692 -20 q 631 -96 647 -70 q 606 -149 614 -122 q 597 -198 597 -175 q 610 -233 597 -224 q 643 -242 622 -242 q 682 -234 663 -242 q 716 -215 701 -225 q 751 -188 734 -203 l 751 -251 q 713 -281 735 -268 q 668 -301 694 -292 q 609 -310 642 -310 q 529 -290 555 -310 q 502 -220 502 -271 q 520 -135 502 -176 q 569 -56 538 -94 q 621 0 592 -27 l 65 0 l 52 66 l 155 90 l 155 828 l 52 851 l 65 918 l 701 918 l 717 714 l 647 699 l 591 830 l 284 830 l 284 524 l 526 524 l 549 606 l 616 593 l 616 366 l 549 353 l 526 436 l 284 436 l 284 87 l 610 87 l 667 218 l 737 203 l 721 0 z "},"ę":{"ha":701,"x_min":65,"x_max":647,"o":"m 187 355 l 187 303 q 250 128 187 189 q 399 66 313 66 q 510 79 456 66 q 611 111 564 91 l 611 45 q 546 -7 575 24 q 496 -73 517 -39 q 465 -140 476 -107 q 454 -198 454 -173 q 466 -233 454 -224 q 499 -242 478 -242 q 538 -234 519 -242 q 572 -215 557 -225 q 608 -188 590 -203 l 608 -251 q 569 -281 591 -268 q 524 -301 550 -292 q 465 -310 498 -310 q 385 -290 412 -310 q 358 -220 358 -271 q 379 -130 358 -176 q 436 -40 401 -84 q 467 -4 451 -22 q 359 -15 412 -15 q 142 61 219 -15 q 65 281 65 137 l 65 337 q 152 641 65 532 q 387 751 238 751 q 586 681 525 751 q 647 436 647 610 l 647 355 l 187 355 m 228 629 q 202 536 213 591 q 189 436 192 482 l 518 436 q 483 614 518 559 q 368 669 447 669 q 290 657 328 669 q 228 629 251 645 z "},"Į":{"ha":436,"x_min":33,"x_max":385,"o":"m 252 0 q 200 -45 223 -20 q 161 -96 178 -70 q 137 -149 145 -122 q 128 -198 128 -175 q 140 -233 128 -224 q 174 -242 153 -242 q 212 -234 193 -242 q 247 -215 231 -225 q 282 -188 264 -203 l 282 -251 q 243 -281 266 -268 q 198 -301 224 -292 q 140 -310 172 -310 q 59 -290 86 -310 q 33 -220 33 -271 q 51 -135 33 -176 q 100 -56 69 -94 q 152 0 123 -27 l 62 0 l 49 66 l 153 90 l 153 828 l 49 851 l 62 918 l 371 918 l 385 851 l 281 828 l 281 90 l 385 66 l 371 0 l 252 0 z "},"į":{"ha":448,"x_min":62,"x_max":401,"o":"m 281 0 q 230 -45 253 -20 q 191 -96 208 -70 q 166 -149 175 -122 q 158 -198 158 -175 q 170 -233 158 -224 q 203 -242 182 -242 q 242 -234 223 -242 q 277 -215 261 -225 q 312 -188 294 -203 l 312 -251 q 273 -281 296 -268 q 228 -301 254 -292 q 170 -310 202 -310 q 89 -290 116 -310 q 62 -220 62 -271 q 81 -135 62 -176 q 130 -56 99 -94 q 182 0 153 -27 l 85 0 l 72 66 l 176 90 l 176 646 l 72 669 l 85 736 l 298 751 l 298 90 l 401 66 l 388 0 l 281 0 m 144 950 q 164 1016 144 988 q 210 1044 184 1044 q 276 1025 249 1044 q 304 977 304 1005 q 284 911 304 939 q 237 884 264 884 q 172 903 199 884 q 144 950 144 923 z "},"Ų":{"ha":921,"x_min":11,"x_max":910,"o":"m 244 370 q 308 146 244 219 q 484 73 372 73 q 584 88 537 73 q 659 124 631 104 q 696 226 682 166 q 711 353 711 286 l 711 828 l 608 851 l 621 918 l 897 918 l 910 851 l 807 828 l 807 369 q 721 78 807 172 q 644 22 689 43 q 570 -26 604 2 q 511 -84 536 -54 q 471 -144 486 -115 q 456 -197 456 -174 q 469 -232 456 -223 q 502 -241 481 -241 q 541 -233 522 -241 q 575 -214 559 -224 q 610 -187 593 -202 l 610 -250 q 572 -280 594 -267 q 527 -300 553 -292 q 468 -309 500 -309 q 388 -290 414 -309 q 361 -219 361 -270 q 379 -134 361 -176 q 433 -54 398 -93 q 474 -14 452 -34 q 456 -15 465 -15 q 201 70 288 -15 q 115 333 115 154 l 115 828 l 11 851 l 24 918 l 334 918 l 347 851 l 244 828 l 244 370 z "},"Ǿ":{"ha":912,"x_min":69,"x_max":843,"o":"m 450 -15 q 364 -9 404 -15 l 319 -156 l 224 -156 l 224 -142 l 272 12 q 165 78 208 35 q 69 356 69 172 l 69 410 q 170 803 69 673 q 463 932 270 932 q 558 926 514 932 l 595 1044 l 690 1044 l 690 1031 l 650 901 q 747 840 707 879 q 843 561 843 747 l 843 508 q 745 119 843 252 q 450 -15 648 -15 m 443 845 q 329 826 382 845 q 245 785 275 808 q 211 645 224 723 q 198 477 198 568 l 198 387 q 274 155 198 237 q 307 124 290 138 l 530 834 q 443 845 490 845 m 714 531 q 643 768 714 691 q 616 793 631 782 l 393 82 q 470 73 429 73 q 582 91 530 73 q 668 133 635 109 q 702 282 690 201 q 714 441 714 363 l 714 531 m 354 1019 l 556 1210 l 686 1203 l 686 1158 l 432 990 l 354 998 l 354 1019 z "},"ǿ":{"ha":755,"x_min":65,"x_max":690,"o":"m 371 -15 q 298 -9 332 -15 l 253 -153 l 168 -153 l 168 -140 l 216 14 q 144 64 175 33 q 65 284 65 143 l 65 347 q 151 643 65 534 q 378 751 237 751 q 445 746 413 751 l 490 889 l 574 889 l 574 876 l 527 724 q 608 671 573 705 q 690 445 690 593 l 690 381 q 605 93 690 201 q 371 -15 519 -15 m 568 422 q 515 602 568 538 q 495 623 506 614 l 325 77 q 391 66 355 66 q 461 77 425 66 q 528 107 497 88 q 558 212 549 151 q 568 341 568 273 l 568 422 m 364 669 q 290 657 327 669 q 228 629 252 646 q 199 525 210 589 q 187 388 187 461 l 187 307 q 245 130 187 193 q 251 124 248 127 l 418 663 q 364 669 393 669 m 330 886 l 467 1133 l 591 1126 l 591 1081 l 401 858 l 330 865 l 330 886 z "},"̦":{"ha":0,"x_min":-256,"x_max":-144,"o":"m -256 -87 l -144 -87 l -144 -115 l -186 -347 l -256 -347 l -256 -87 z "},"Ş":{"ha":723,"x_min":74,"x_max":665,"o":"m 420 517 q 606 380 547 442 q 665 234 665 318 q 577 54 665 122 q 391 -13 505 -3 l 372 -66 q 424 -83 400 -74 q 465 -107 448 -93 q 492 -140 482 -121 q 502 -186 502 -159 q 491 -236 502 -214 q 461 -275 481 -259 q 412 -301 441 -292 q 347 -310 383 -310 q 297 -305 320 -310 q 256 -294 274 -300 q 218 -278 236 -287 l 218 -215 q 257 -229 237 -222 q 296 -238 275 -234 q 340 -242 318 -242 q 365 -241 354 -242 q 382 -238 375 -239 q 397 -233 391 -236 q 401 -222 399 -229 q 405 -209 403 -216 q 406 -193 406 -201 q 380 -150 406 -167 q 297 -119 354 -133 l 274 -82 l 300 -14 q 195 -2 244 -12 q 88 28 128 10 l 74 203 l 153 220 l 209 89 q 265 77 234 81 q 334 73 296 73 q 430 79 385 73 q 515 98 476 86 q 529 143 522 115 q 536 210 536 172 q 496 299 536 253 q 323 426 456 346 q 112 583 151 528 q 74 705 74 639 q 159 868 74 804 q 394 932 244 932 q 508 924 451 932 q 619 897 566 916 l 633 714 l 562 699 l 507 830 q 450 841 479 838 q 390 845 421 845 q 292 838 338 845 q 216 819 247 830 q 206 776 210 799 q 203 728 203 753 q 243 640 203 680 q 420 517 283 600 z "},"ş":{"ha":658,"x_min":80,"x_max":604,"o":"m 387 421 q 566 298 528 349 q 604 184 604 247 q 526 40 604 96 q 362 -13 461 -5 l 343 -66 q 395 -83 372 -74 q 436 -107 419 -93 q 464 -140 454 -121 q 473 -186 473 -159 q 463 -236 473 -214 q 432 -275 452 -259 q 384 -301 412 -292 q 319 -310 355 -310 q 269 -305 292 -310 q 228 -294 245 -300 q 190 -278 208 -287 l 190 -215 q 229 -229 208 -222 q 268 -238 246 -234 q 312 -242 290 -242 q 336 -241 326 -242 q 354 -238 347 -239 q 368 -233 362 -236 q 373 -222 370 -229 q 376 -209 374 -216 q 378 -193 378 -201 q 352 -150 378 -167 q 269 -119 326 -133 l 245 -82 l 272 -13 q 191 -1 229 -9 q 92 33 130 14 l 85 195 l 159 209 l 199 82 q 257 70 225 74 q 321 66 289 66 q 394 71 358 66 q 468 85 431 75 q 478 118 475 100 q 481 153 481 136 q 438 239 481 201 q 270 343 395 277 q 119 449 157 402 q 80 556 80 496 q 151 696 80 641 q 353 751 222 751 q 472 738 414 751 q 571 705 530 726 l 577 541 l 503 528 l 463 656 q 406 666 436 663 q 349 669 375 669 q 279 664 313 669 q 217 650 245 659 q 207 622 211 640 q 202 587 202 605 q 233 518 202 550 q 387 421 264 486 z "},"Ŀ":{"ha":697,"x_min":50,"x_max":684,"o":"m 154 828 l 50 851 l 64 918 l 372 918 l 386 851 l 283 828 l 283 87 l 511 87 l 567 218 l 637 203 l 621 0 l 64 0 l 50 66 l 154 90 l 154 828 m 518 444 q 523 484 518 465 q 536 517 528 503 q 556 539 545 531 q 579 548 567 548 q 621 543 602 548 q 653 530 640 538 q 675 510 667 522 q 684 486 684 498 q 679 446 684 465 q 666 413 674 427 q 646 390 657 399 q 622 382 635 382 q 581 387 600 382 q 548 400 562 391 q 526 419 534 408 q 518 444 518 431 z "},"ŀ":{"ha":537,"x_min":63,"x_max":578,"o":"m 167 955 l 63 978 l 77 1044 l 289 1059 l 289 90 l 393 66 l 379 0 l 77 0 l 63 66 l 167 90 l 167 955 m 412 444 q 417 484 412 465 q 430 517 422 503 q 450 539 439 531 q 473 548 461 548 q 515 543 496 548 q 548 530 534 538 q 570 510 562 522 q 578 486 578 498 q 573 446 578 465 q 560 413 568 427 q 540 390 551 399 q 516 382 529 382 q 475 387 494 382 q 443 400 456 391 q 420 419 429 408 q 412 444 412 431 z "},"Đ":{"ha":924,"x_min":53,"x_max":845,"o":"m 53 514 l 157 514 l 157 828 l 53 851 l 66 918 l 433 918 q 615 891 537 918 q 744 813 692 864 q 820 687 795 762 q 845 519 845 613 l 845 466 q 818 273 845 359 q 741 126 791 187 q 616 33 690 66 q 448 0 543 0 l 66 0 l 53 66 l 157 90 l 157 427 l 53 427 l 53 514 m 286 830 l 286 514 l 482 514 l 482 427 l 286 427 l 286 87 l 429 87 q 504 93 469 87 q 564 104 538 98 q 617 121 593 111 q 667 202 644 156 q 701 297 685 241 q 716 422 716 352 l 716 486 q 697 629 716 566 q 640 738 678 693 q 543 806 602 783 q 406 830 485 830 l 286 830 z "},"đ":{"ha":804,"x_min":66,"x_max":768,"o":"m 664 904 l 768 904 l 768 836 l 664 836 l 664 90 l 768 66 l 754 0 l 595 -15 l 555 105 q 521 66 541 87 q 473 27 500 45 q 409 -3 445 9 q 326 -15 372 -15 q 220 3 268 -15 q 139 58 173 21 q 85 150 104 94 q 66 280 66 205 l 66 343 q 87 511 66 436 q 149 640 109 587 q 251 722 190 693 q 391 751 311 751 q 466 746 427 751 q 542 734 505 741 l 542 836 l 298 836 l 298 904 l 542 904 l 542 955 l 438 978 l 452 1044 l 664 1059 l 664 904 m 189 294 q 203 187 189 231 q 242 117 218 144 q 298 78 267 90 q 363 66 330 66 q 432 80 399 66 q 489 109 465 93 q 542 153 517 128 l 542 651 q 469 663 513 657 q 377 669 426 669 q 312 662 340 669 q 263 646 283 655 q 222 624 240 636 q 205 556 213 594 q 194 478 199 524 q 189 375 189 433 l 189 294 z "},"Ħ":{"ha":989,"x_min":49,"x_max":946,"o":"m 57 736 l 153 736 l 153 828 l 49 851 l 62 918 l 371 918 l 385 851 l 281 828 l 281 736 l 705 736 l 705 828 l 602 851 l 615 918 l 924 918 l 938 851 l 833 828 l 833 736 l 946 736 l 946 648 l 833 648 l 833 90 l 938 66 l 924 0 l 615 0 l 602 66 l 705 90 l 705 440 l 281 440 l 281 90 l 385 66 l 371 0 l 62 0 l 49 66 l 153 90 l 153 648 l 57 648 l 57 736 m 705 528 l 705 648 l 281 648 l 281 528 l 705 528 z "},"ħ":{"ha":898,"x_min":56,"x_max":855,"o":"m 56 66 l 160 90 l 160 816 l 56 816 l 56 897 l 160 897 l 160 955 l 56 978 l 70 1044 l 282 1059 l 282 897 l 526 897 l 526 816 l 282 816 l 282 642 l 292 638 q 391 721 334 692 q 516 751 448 751 q 694 687 637 751 q 751 492 751 623 l 751 90 l 855 66 l 842 0 l 539 0 l 526 66 l 629 90 l 629 469 q 593 623 629 577 q 476 669 557 669 q 372 640 425 669 q 282 568 319 611 l 282 90 l 386 66 l 372 0 l 70 0 l 56 66 z "},"Ł":{"ha":690,"x_min":18,"x_max":637,"o":"m 18 372 l 154 451 l 154 828 l 50 851 l 64 918 l 372 918 l 386 851 l 283 828 l 283 526 l 513 659 l 513 565 l 283 431 l 283 87 l 511 87 l 567 218 l 637 203 l 621 0 l 64 0 l 50 66 l 154 90 l 154 357 l 18 278 l 18 372 z "},"ł":{"ha":435,"x_min":0,"x_max":448,"o":"m 0 464 l 167 559 l 167 955 l 63 978 l 77 1044 l 289 1059 l 289 630 l 448 722 l 448 628 l 289 536 l 289 90 l 393 66 l 379 0 l 77 0 l 63 66 l 167 90 l 167 466 l 0 370 l 0 464 z "},"ú":{"ha":856,"x_min":26,"x_max":825,"o":"m 252 273 q 289 117 252 168 q 416 66 326 66 q 513 90 465 66 q 599 153 561 113 l 599 646 l 475 669 l 488 736 l 721 751 l 721 90 l 825 66 l 811 0 l 652 -15 l 612 106 q 496 13 557 41 q 361 -15 435 -15 q 188 50 247 -15 q 130 243 130 114 l 130 646 l 26 669 l 39 736 l 252 751 l 252 273 m 357 886 l 495 1133 l 618 1126 l 618 1081 l 429 858 l 357 865 l 357 886 z "},"ù":{"ha":856,"x_min":26,"x_max":825,"o":"m 252 273 q 289 117 252 168 q 416 66 326 66 q 513 90 465 66 q 599 153 561 113 l 599 646 l 475 669 l 488 736 l 721 751 l 721 90 l 825 66 l 811 0 l 652 -15 l 612 106 q 496 13 557 41 q 361 -15 435 -15 q 188 50 247 -15 q 130 243 130 114 l 130 646 l 26 669 l 39 736 l 252 751 l 252 273 m 483 865 l 403 858 l 206 1081 l 206 1126 l 325 1133 l 483 886 l 483 865 z "},"ã":{"ha":780,"x_min":73,"x_max":754,"o":"m 637 90 l 754 66 l 741 0 l 568 -15 l 528 105 q 415 13 475 41 q 284 -15 355 -15 q 131 33 189 -15 q 73 161 73 80 q 183 348 73 285 q 515 412 293 412 l 515 476 q 478 624 515 578 q 349 669 441 669 q 299 667 327 669 q 247 659 271 664 l 206 515 l 140 522 l 140 714 q 240 740 180 728 q 361 751 300 751 q 569 689 500 751 q 637 498 637 628 l 637 90 m 515 330 q 334 317 413 330 q 214 281 256 304 q 201 238 206 262 q 195 186 195 214 q 233 98 195 130 q 330 66 270 66 q 431 92 381 66 q 515 153 480 117 l 515 330 m 102 886 q 141 1002 102 963 q 251 1042 181 1042 q 325 1028 288 1042 q 397 997 363 1014 q 460 966 431 980 q 509 952 490 952 q 550 972 535 952 q 566 1034 566 992 l 645 1040 l 645 1008 q 609 895 645 937 q 504 853 572 853 q 432 867 471 853 q 355 898 393 881 q 286 929 317 915 q 235 943 254 943 q 210 940 221 943 q 191 930 199 937 q 180 909 184 922 q 176 876 176 897 l 102 869 l 102 886 z "},"ñ":{"ha":913,"x_min":72,"x_max":871,"o":"m 72 66 l 176 90 l 176 646 l 72 669 l 85 736 l 245 751 l 284 630 q 397 719 334 687 q 530 751 460 751 q 709 687 652 751 q 767 492 767 624 l 767 90 l 871 66 l 857 0 l 555 0 l 541 66 l 645 90 l 645 463 q 611 618 645 566 q 490 669 578 669 q 395 647 445 669 q 298 582 345 625 l 298 90 l 401 66 l 388 0 l 85 0 l 72 66 m 208 886 q 248 1002 208 963 q 357 1042 288 1042 q 432 1028 394 1042 q 504 997 469 1014 q 567 966 538 980 q 616 952 596 952 q 657 972 642 952 q 672 1034 672 992 l 751 1040 l 751 1008 q 715 895 751 937 q 610 853 679 853 q 538 867 577 853 q 461 898 499 881 q 392 929 424 915 q 341 943 360 943 q 316 940 328 943 q 298 930 305 937 q 286 909 290 922 q 282 876 282 897 l 208 869 l 208 886 z "},"ĩ":{"ha":448,"x_min":-58,"x_max":485,"o":"m 298 90 l 401 66 l 388 0 l 85 0 l 72 66 l 176 90 l 176 646 l 72 669 l 85 736 l 298 751 l 298 90 m -58 886 q -19 1002 -58 963 q 91 1042 21 1042 q 165 1028 127 1042 q 237 997 203 1014 q 300 966 271 980 q 349 952 330 952 q 390 972 375 952 q 406 1034 406 992 l 485 1040 l 485 1008 q 449 895 485 937 q 344 853 412 853 q 272 867 311 853 q 195 898 233 881 q 125 929 157 915 q 75 943 94 943 q 50 940 61 943 q 31 930 39 937 q 20 909 24 922 q 16 876 16 897 l -58 869 l -58 886 z "},"ũ":{"ha":856,"x_min":26,"x_max":825,"o":"m 252 273 q 289 117 252 168 q 416 66 326 66 q 513 90 465 66 q 599 153 561 113 l 599 646 l 475 669 l 488 736 l 721 751 l 721 90 l 825 66 l 811 0 l 652 -15 l 612 106 q 496 13 557 41 q 361 -15 435 -15 q 188 50 247 -15 q 130 243 130 114 l 130 646 l 26 669 l 39 736 l 252 751 l 252 273 m 140 886 q 179 1002 140 963 q 289 1042 219 1042 q 363 1028 326 1042 q 435 997 401 1014 q 498 966 469 980 q 547 952 528 952 q 588 972 573 952 q 604 1034 604 992 l 683 1040 l 683 1008 q 647 895 683 937 q 542 853 610 853 q 470 867 509 853 q 393 898 431 881 q 323 929 355 915 q 273 943 292 943 q 248 940 259 943 q 229 930 237 937 q 218 909 222 922 q 214 876 214 897 l 140 869 l 140 886 z "},"ì":{"ha":448,"x_min":8,"x_max":401,"o":"m 298 90 l 401 66 l 388 0 l 85 0 l 72 66 l 176 90 l 176 646 l 72 669 l 85 736 l 298 751 l 298 90 m 285 865 l 205 858 l 8 1081 l 8 1126 l 127 1133 l 285 886 l 285 865 z "},"í":{"ha":448,"x_min":72,"x_max":420,"o":"m 298 90 l 401 66 l 388 0 l 85 0 l 72 66 l 176 90 l 176 646 l 72 669 l 85 736 l 298 751 l 298 90 m 159 886 l 297 1133 l 420 1126 l 420 1081 l 231 858 l 159 865 l 159 886 z "},"ò":{"ha":755,"x_min":65,"x_max":690,"o":"m 371 -15 q 144 64 223 -15 q 65 284 65 143 l 65 347 q 151 643 65 534 q 378 751 237 751 q 608 672 526 751 q 690 445 690 593 l 690 381 q 605 93 690 201 q 371 -15 519 -15 m 568 422 q 515 603 568 538 q 364 669 462 667 q 290 657 327 669 q 228 629 252 646 q 199 525 210 589 q 187 388 187 461 l 187 307 q 246 130 187 193 q 391 66 304 66 q 461 77 425 66 q 528 107 497 88 q 558 212 549 151 q 568 341 568 273 l 568 422 m 455 865 l 375 858 l 178 1081 l 178 1126 l 297 1133 l 455 886 l 455 865 z "},"ó":{"ha":755,"x_min":65,"x_max":690,"o":"m 371 -15 q 144 64 223 -15 q 65 284 65 143 l 65 347 q 151 643 65 534 q 378 751 237 751 q 608 672 526 751 q 690 445 690 593 l 690 381 q 605 93 690 201 q 371 -15 519 -15 m 568 422 q 515 603 568 538 q 364 669 462 667 q 290 657 327 669 q 228 629 252 646 q 199 525 210 589 q 187 388 187 461 l 187 307 q 246 130 187 193 q 391 66 304 66 q 461 77 425 66 q 528 107 497 88 q 558 212 549 151 q 568 341 568 273 l 568 422 m 330 886 l 467 1133 l 591 1126 l 591 1081 l 401 858 l 330 865 l 330 886 z "},"ô":{"ha":755,"x_min":65,"x_max":690,"o":"m 371 -15 q 144 64 223 -15 q 65 284 65 143 l 65 347 q 151 643 65 534 q 378 751 237 751 q 608 672 526 751 q 690 445 690 593 l 690 381 q 605 93 690 201 q 371 -15 519 -15 m 568 422 q 515 603 568 538 q 364 669 462 667 q 290 657 327 669 q 228 629 252 646 q 199 525 210 589 q 187 388 187 461 l 187 307 q 246 130 187 193 q 391 66 304 66 q 461 77 425 66 q 528 107 497 88 q 558 212 549 151 q 568 341 568 273 l 568 422 m 589 865 l 504 858 l 373 1029 l 247 858 l 182 865 l 182 886 l 340 1139 l 431 1133 l 589 886 l 589 865 z "},"õ":{"ha":755,"x_min":65,"x_max":690,"o":"m 371 -15 q 144 64 223 -15 q 65 284 65 143 l 65 347 q 151 643 65 534 q 378 751 237 751 q 608 672 526 751 q 690 445 690 593 l 690 381 q 605 93 690 201 q 371 -15 519 -15 m 568 422 q 515 603 568 538 q 364 669 462 667 q 290 657 327 669 q 228 629 252 646 q 199 525 210 589 q 187 388 187 461 l 187 307 q 246 130 187 193 q 391 66 304 66 q 461 77 425 66 q 528 107 497 88 q 558 212 549 151 q 568 341 568 273 l 568 422 m 112 886 q 152 1002 112 963 q 261 1042 191 1042 q 335 1028 298 1042 q 407 997 373 1014 q 471 966 441 980 q 519 952 500 952 q 561 972 545 952 q 576 1034 576 992 l 655 1040 l 655 1008 q 619 895 655 937 q 514 853 583 853 q 442 867 481 853 q 365 898 403 881 q 296 929 328 915 q 245 943 264 943 q 220 940 231 943 q 201 930 209 937 q 190 909 194 922 q 186 876 186 897 l 112 869 l 112 886 z "},"×":{"ha":692,"x_min":109,"x_max":584,"o":"m 179 640 l 346 473 l 513 640 l 584 570 l 416 402 l 584 235 l 513 165 l 346 332 l 179 165 l 109 235 l 275 402 l 109 570 l 179 640 z "},"÷":{"ha":795,"x_min":109,"x_max":687,"o":"m 109 452 l 687 452 l 687 353 l 109 353 l 109 452 m 330 123 q 335 159 330 142 q 347 189 339 176 q 364 210 354 202 q 385 217 374 217 q 422 213 405 217 q 451 200 439 208 q 471 182 464 193 q 478 161 478 172 q 474 126 478 142 q 462 96 469 109 q 444 76 454 83 q 422 68 434 68 q 386 73 403 68 q 357 85 370 77 q 337 102 345 92 q 330 123 330 112 m 330 642 q 335 678 330 661 q 347 708 339 695 q 364 728 354 721 q 385 736 374 736 q 422 731 405 736 q 451 719 439 727 q 471 701 464 711 q 478 680 478 691 q 474 645 478 661 q 462 615 469 628 q 444 595 454 602 q 422 587 434 587 q 386 592 403 587 q 357 604 370 596 q 337 621 345 611 q 330 642 330 631 z "},"⁄":{"ha":898,"x_min":81,"x_max":817,"o":"m 745 918 l 817 918 l 817 904 l 153 0 l 81 0 l 81 14 l 745 918 z "},"˝":{"ha":721,"x_min":102,"x_max":619,"o":"m 102 886 l 239 1133 l 363 1126 l 363 1081 l 173 858 l 102 865 l 102 886 m 358 886 l 496 1133 l 619 1126 l 619 1081 l 429 858 l 358 865 l 358 886 z "},"ű":{"ha":856,"x_min":26,"x_max":825,"o":"m 252 273 q 289 117 252 168 q 416 66 326 66 q 513 90 465 66 q 599 153 561 113 l 599 646 l 475 669 l 488 736 l 721 751 l 721 90 l 825 66 l 811 0 l 652 -15 l 612 106 q 496 13 557 41 q 361 -15 435 -15 q 188 50 247 -15 q 130 243 130 114 l 130 646 l 26 669 l 39 736 l 252 751 l 252 273 m 224 886 l 361 1133 l 485 1126 l 485 1081 l 295 858 l 224 865 l 224 886 m 480 886 l 618 1133 l 741 1126 l 741 1081 l 551 858 l 480 865 l 480 886 z "},"ő":{"ha":755,"x_min":65,"x_max":713,"o":"m 371 -15 q 144 64 223 -15 q 65 284 65 143 l 65 347 q 151 643 65 534 q 378 751 237 751 q 608 672 526 751 q 690 445 690 593 l 690 381 q 605 93 690 201 q 371 -15 519 -15 m 568 422 q 515 603 568 538 q 364 669 462 667 q 290 657 327 669 q 228 629 252 646 q 199 525 210 589 q 187 388 187 461 l 187 307 q 246 130 187 193 q 391 66 304 66 q 461 77 425 66 q 528 107 497 88 q 558 212 549 151 q 568 341 568 273 l 568 422 m 196 886 l 334 1133 l 457 1126 l 457 1081 l 267 858 l 196 865 l 196 886 m 452 886 l 590 1133 l 713 1126 l 713 1081 l 524 858 l 452 865 l 452 886 z "},"Å":{"ha":826,"x_min":-5,"x_max":831,"o":"m -5 66 l 68 86 l 366 918 l 467 918 l 758 86 l 831 66 l 818 0 l 557 0 l 543 66 l 630 86 l 566 275 l 233 275 l 168 86 l 255 66 l 241 0 l 8 0 l -5 66 m 264 363 l 536 363 l 405 749 l 398 749 l 264 363 m 292 1065 q 303 1127 292 1100 q 332 1173 314 1154 q 375 1200 351 1191 q 427 1210 399 1210 q 474 1204 452 1210 q 512 1185 496 1198 q 538 1153 529 1173 q 548 1108 548 1134 q 537 1043 548 1071 q 509 998 527 1016 q 466 972 490 981 q 414 963 441 963 q 367 969 389 963 q 328 988 345 976 q 302 1020 311 1001 q 292 1065 292 1039 m 360 1086 q 378 1035 360 1054 q 420 1016 396 1016 q 442 1018 432 1016 q 459 1022 452 1019 q 475 1029 467 1025 q 477 1044 476 1036 q 480 1062 479 1052 q 481 1086 481 1073 q 463 1139 481 1120 q 420 1158 445 1158 q 399 1156 409 1158 q 382 1151 390 1154 q 366 1145 374 1148 q 363 1133 364 1140 q 361 1115 361 1126 q 360 1086 360 1104 z "},"Ű":{"ha":921,"x_min":11,"x_max":910,"o":"m 244 370 q 308 146 244 219 q 484 73 372 73 q 584 88 537 73 q 659 124 631 104 q 696 226 682 166 q 711 353 711 286 l 711 828 l 608 851 l 621 918 l 897 918 l 910 851 l 807 828 l 807 369 q 721 78 807 172 q 456 -15 635 -15 q 201 70 288 -15 q 115 333 115 154 l 115 828 l 11 851 l 24 918 l 334 918 l 347 851 l 244 828 l 244 370 m 265 1019 l 467 1210 l 597 1203 l 597 1158 l 343 990 l 265 998 l 265 1019 m 549 1019 l 751 1210 l 882 1203 l 882 1158 l 627 990 l 549 998 l 549 1019 z "},"Ő":{"ha":912,"x_min":69,"x_max":853,"o":"m 450 -15 q 165 78 260 -15 q 69 356 69 172 l 69 410 q 170 803 69 673 q 463 932 270 932 q 747 840 652 932 q 843 561 843 747 l 843 508 q 745 119 843 252 q 450 -15 648 -15 m 714 531 q 643 768 714 691 q 443 845 572 845 q 329 826 382 845 q 245 785 275 808 q 211 645 224 723 q 198 477 198 568 l 198 387 q 274 155 198 237 q 470 73 351 73 q 582 91 530 73 q 668 133 635 109 q 702 282 690 201 q 714 441 714 363 l 714 531 m 237 1019 l 439 1210 l 569 1203 l 569 1158 l 315 990 l 237 998 l 237 1019 m 521 1019 l 723 1210 l 853 1203 l 853 1158 l 599 990 l 521 998 l 521 1019 z "},"̂":{"ha":0,"x_min":-507,"x_max":-100,"o":"m -100 865 l -185 858 l -316 1029 l -442 858 l -507 865 l -507 886 l -349 1139 l -258 1133 l -100 886 l -100 865 z "},"̃":{"ha":0,"x_min":-688,"x_max":-145,"o":"m -688 886 q -649 1002 -688 963 q -539 1042 -609 1042 q -465 1028 -503 1042 q -393 997 -427 1014 q -330 966 -359 980 q -281 952 -300 952 q -240 972 -255 952 q -224 1034 -224 992 l -145 1040 l -145 1008 q -181 895 -145 937 q -286 853 -218 853 q -358 867 -319 853 q -435 898 -397 881 q -505 929 -473 915 q -555 943 -536 943 q -580 940 -569 943 q -599 930 -591 937 q -610 909 -606 922 q -614 876 -614 897 l -688 869 l -688 886 z "},"̄":{"ha":0,"x_min":-597,"x_max":-102,"o":"m -583 999 l -102 999 l -116 918 l -597 918 l -583 999 z "},"̆":{"ha":0,"x_min":-496,"x_max":-81,"o":"m -81 1080 q -96 1007 -81 1043 q -138 943 -111 971 q -203 896 -165 914 q -289 878 -241 878 q -375 896 -336 878 q -440 943 -413 914 q -482 1007 -467 971 q -496 1080 -496 1043 l -431 1086 q -422 1056 -431 1076 q -397 1016 -414 1036 q -353 981 -380 996 q -289 966 -326 966 q -225 981 -252 966 q -181 1016 -198 996 q -155 1056 -163 1036 q -147 1086 -147 1076 l -81 1080 z "},"̇":{"ha":0,"x_min":-242,"x_max":-82,"o":"m -242 950 q -237 986 -242 969 q -222 1017 -231 1004 q -201 1037 -213 1029 q -176 1044 -189 1044 q -139 1039 -156 1044 q -109 1025 -122 1034 q -89 1004 -96 1016 q -82 977 -82 991 q -87 941 -82 958 q -102 911 -93 924 q -123 891 -111 899 q -149 884 -135 884 q -185 889 -168 884 q -215 904 -202 895 q -235 925 -228 913 q -242 950 -242 937 z "},"̊":{"ha":0,"x_min":-321,"x_max":-52,"o":"m -321 974 q -309 1044 -321 1014 q -278 1093 -298 1074 q -233 1123 -259 1113 q -179 1133 -208 1133 q -130 1126 -153 1133 q -89 1105 -106 1119 q -62 1069 -72 1091 q -52 1017 -52 1048 q -62 945 -52 975 q -93 896 -73 915 q -138 867 -112 876 q -193 858 -163 858 q -242 865 -219 858 q -283 886 -266 871 q -311 922 -300 900 q -321 974 -321 944 m -250 996 q -244 959 -250 975 q -230 931 -239 942 q -210 913 -221 920 q -186 907 -198 907 q -163 909 -174 907 q -145 913 -153 911 q -128 920 -136 916 q -125 939 -127 928 q -123 963 -124 949 q -122 996 -122 977 q -127 1033 -122 1016 q -142 1060 -133 1049 q -162 1078 -151 1072 q -186 1084 -174 1084 q -204 1082 -195 1084 q -221 1077 -214 1080 q -237 1071 -229 1074 q -243 1053 -241 1064 q -248 1029 -246 1044 q -250 996 -250 1015 z "},"̋":{"ha":0,"x_min":-585,"x_max":-67,"o":"m -585 886 l -447 1133 l -323 1126 l -323 1081 l -513 858 l -585 865 l -585 886 m -328 886 l -191 1133 l -67 1126 l -67 1081 l -257 858 l -328 865 l -328 886 z "},"̌":{"ha":0,"x_min":-516,"x_max":-110,"o":"m -516 1126 l -431 1133 l -300 962 l -174 1133 l -110 1126 l -110 1104 l -268 851 l -358 858 l -516 1104 l -516 1126 z "},"Ŧ":{"ha":772,"x_min":9,"x_max":763,"o":"m 138 494 l 322 494 l 322 830 l 119 830 l 77 715 l 9 721 l 20 918 l 753 918 l 763 721 l 696 715 l 654 830 l 451 830 l 451 494 l 661 494 l 647 413 l 451 413 l 451 90 l 555 66 l 541 0 l 232 0 l 218 66 l 322 90 l 322 413 l 125 413 l 138 494 z "},"ŧ":{"ha":503,"x_min":-9,"x_max":473,"o":"m 4 452 l 128 452 l 128 647 l 19 669 l 33 736 l 128 736 l 178 935 l 250 921 l 250 736 l 447 736 l 460 669 l 250 647 l 250 452 l 473 452 l 459 371 l 250 371 l 250 210 q 272 102 250 138 q 358 66 293 66 q 406 73 380 66 q 461 93 433 80 l 461 29 q 390 -3 430 9 q 309 -15 349 -15 q 171 34 214 -15 q 128 183 128 83 l 128 371 l -9 371 l 4 452 z "},"ſ":{"ha":499,"x_min":65,"x_max":498,"o":"m 176 809 q 191 925 176 878 q 233 1003 205 973 q 297 1046 260 1033 q 378 1059 334 1059 q 425 1055 403 1059 q 463 1046 446 1051 q 498 1034 481 1041 l 469 945 q 420 959 446 953 q 371 969 398 964 q 318 973 344 973 q 308 936 312 958 q 301 888 304 917 q 298 820 298 860 l 298 0 l 85 0 l 72 66 l 176 90 l 176 646 l 65 669 l 79 736 l 176 736 l 176 809 l 176 809 z "},"ƒ":{"ha":522,"x_min":-37,"x_max":513,"o":"m 313 469 l 456 469 l 456 394 l 313 394 l 313 -32 q 298 -166 313 -113 q 256 -252 283 -220 q 191 -297 229 -283 q 104 -310 152 -310 q 48 -306 74 -310 q 3 -298 22 -302 q -37 -285 -19 -292 l -13 -196 q 46 -210 16 -204 q 103 -220 72 -216 q 163 -224 134 -224 q 177 -184 171 -208 q 186 -132 182 -163 q 191 -58 191 -101 l 191 394 l 47 394 l 47 469 l 191 469 l 191 809 q 205 925 191 878 q 248 1003 220 973 q 312 1046 275 1033 q 393 1059 349 1059 q 439 1055 418 1059 q 477 1046 461 1051 q 513 1034 496 1041 l 484 945 q 435 959 460 953 q 386 969 413 964 q 333 973 359 973 q 323 936 327 958 q 316 888 319 917 q 313 820 313 860 l 313 469 z "},"̧":{"ha":0,"x_min":-590,"x_max":-307,"o":"m -404 25 l -437 -66 q -385 -83 -408 -74 q -343 -107 -361 -93 q -316 -140 -326 -121 q -307 -186 -307 -159 q -317 -236 -307 -214 q -348 -275 -328 -259 q -396 -301 -368 -292 q -461 -310 -425 -310 q -511 -305 -488 -310 q -552 -294 -534 -300 q -590 -278 -572 -287 l -590 -215 q -551 -229 -572 -222 q -512 -238 -534 -234 q -468 -242 -490 -242 q -444 -241 -454 -242 q -426 -238 -433 -239 q -412 -233 -418 -236 q -407 -222 -410 -229 q -404 -209 -406 -216 q -402 -193 -402 -201 q -428 -150 -402 -167 q -511 -119 -454 -133 l -534 -82 l -493 25 l -404 25 z "},"̨":{"ha":0,"x_min":-584,"x_max":-334,"o":"m -365 0 q -416 -45 -393 -20 q -455 -96 -439 -70 q -480 -149 -471 -122 q -488 -198 -488 -175 q -476 -233 -488 -224 q -443 -242 -464 -242 q -404 -234 -423 -242 q -370 -215 -385 -225 q -334 -188 -352 -203 l -334 -251 q -373 -281 -351 -268 q -418 -301 -392 -292 q -477 -310 -444 -310 q -557 -290 -530 -310 q -584 -220 -584 -271 q -566 -135 -584 -176 q -517 -56 -547 -94 q -447 16 -486 -18 q -365 79 -407 50 l -365 0 z "},"±":{"ha":721,"x_min":109,"x_max":612,"o":"m 410 736 l 410 520 l 612 520 l 612 420 l 410 420 l 410 205 l 311 205 l 311 420 l 109 420 l 109 520 l 311 520 l 311 736 l 410 736 m 127 100 l 597 100 l 597 0 l 127 0 l 127 100 z "},"©":{"ha":995,"x_min":81,"x_max":913,"o":"m 309 623 q 323 738 309 689 q 363 820 337 787 q 427 869 390 852 q 511 885 465 885 q 564 881 541 885 q 605 872 588 877 q 640 859 625 866 l 648 728 l 602 719 l 572 812 q 555 816 565 814 q 536 819 547 817 q 510 820 524 820 q 475 817 490 820 q 448 810 459 814 q 426 801 435 806 q 418 760 421 783 q 412 712 414 740 q 410 649 410 684 l 410 603 q 420 543 410 568 q 446 502 430 518 q 481 477 462 485 q 520 469 500 469 q 567 474 545 469 q 607 485 589 479 q 646 500 627 492 l 646 444 q 604 423 627 432 q 558 410 585 416 q 498 404 531 404 q 422 414 457 404 q 362 447 387 425 q 323 503 337 469 q 309 584 309 537 l 309 623 m 176 644 q 201 518 176 576 q 270 415 226 459 q 372 347 313 372 q 498 321 431 321 q 624 347 565 321 q 726 415 682 372 q 795 518 770 459 q 820 644 820 576 q 795 769 820 711 q 726 872 770 828 q 624 941 682 916 q 498 966 565 966 q 372 941 431 966 q 270 872 313 916 q 201 769 226 828 q 176 644 176 711 m 81 644 q 114 806 81 730 q 203 938 147 882 q 336 1027 260 994 q 498 1059 412 1059 q 660 1027 584 1059 q 792 938 736 994 q 881 806 848 882 q 913 644 913 730 q 881 481 913 557 q 792 349 848 406 q 660 260 736 293 q 498 227 584 227 q 387 242 440 227 q 288 284 334 257 q 203 349 241 311 q 138 433 165 387 q 96 533 111 479 q 81 644 81 586 z "},"®":{"ha":995,"x_min":81,"x_max":913,"o":"m 81 644 q 114 806 81 730 q 203 938 147 882 q 336 1027 260 994 q 498 1059 412 1059 q 660 1027 584 1059 q 792 938 736 994 q 881 806 848 882 q 913 644 913 730 q 881 481 913 557 q 792 349 848 406 q 660 260 736 293 q 498 227 584 227 q 387 242 440 227 q 288 284 334 257 q 203 349 241 311 q 138 433 165 387 q 96 533 111 479 q 81 644 81 586 m 176 644 q 201 518 176 576 q 270 415 226 459 q 372 347 313 372 q 498 321 431 321 q 624 347 565 321 q 726 415 682 372 q 795 518 770 459 q 820 644 820 576 q 795 769 820 711 q 726 872 770 828 q 624 941 682 916 q 498 966 565 966 q 372 941 431 966 q 270 872 313 916 q 201 769 226 828 q 176 644 176 711 m 371 813 l 323 825 l 330 862 l 507 862 q 612 834 576 862 q 648 748 648 807 q 628 675 648 703 q 578 629 608 647 l 578 625 l 662 484 l 711 475 l 705 437 l 599 437 l 494 618 l 454 618 l 454 485 l 501 475 l 495 437 l 330 437 l 323 475 l 371 485 l 371 813 m 454 805 l 454 675 l 492 675 q 518 676 507 675 q 538 680 530 678 q 555 686 547 683 q 559 702 557 693 q 563 720 561 709 q 564 742 564 730 q 546 786 564 768 q 485 805 528 805 l 454 805 z "},"Ẁ":{"ha":1355,"x_min":-30,"x_max":1385,"o":"m 273 850 l 172 831 l 399 157 l 410 157 l 642 918 l 772 918 l 998 157 l 1009 157 l 1215 831 l 1112 850 l 1125 918 l 1371 918 l 1385 850 l 1315 832 l 1053 0 l 924 0 l 698 751 l 687 751 l 458 0 l 328 0 l 42 832 l -30 850 l -16 918 l 260 918 l 273 850 m 833 998 l 755 990 l 500 1158 l 500 1203 l 631 1210 l 833 1019 l 833 998 z "},"Ẃ":{"ha":1355,"x_min":-30,"x_max":1385,"o":"m 273 850 l 172 831 l 399 157 l 410 157 l 642 918 l 772 918 l 998 157 l 1009 157 l 1215 831 l 1112 850 l 1125 918 l 1371 918 l 1385 850 l 1315 832 l 1053 0 l 924 0 l 698 751 l 687 751 l 458 0 l 328 0 l 42 832 l -30 850 l -16 918 l 260 918 l 273 850 m 614 1019 l 817 1210 l 947 1203 l 947 1158 l 692 990 l 614 998 l 614 1019 z "},"Ẅ":{"ha":1355,"x_min":-30,"x_max":1385,"o":"m 273 850 l 172 831 l 399 157 l 410 157 l 642 918 l 772 918 l 998 157 l 1009 157 l 1215 831 l 1112 850 l 1125 918 l 1371 918 l 1385 850 l 1315 832 l 1053 0 l 924 0 l 698 751 l 687 751 l 458 0 l 328 0 l 42 832 l -30 850 l -16 918 l 260 918 l 273 850 m 482 1072 q 487 1105 482 1089 q 500 1132 492 1120 q 519 1151 509 1144 q 543 1158 530 1158 q 576 1153 560 1158 q 603 1140 591 1148 q 620 1121 614 1132 q 627 1097 627 1109 q 622 1064 627 1080 q 609 1037 617 1049 q 590 1019 601 1025 q 567 1012 579 1012 q 534 1017 549 1012 q 507 1030 518 1021 q 489 1049 495 1038 q 482 1072 482 1060 m 794 1072 q 799 1105 794 1089 q 812 1132 804 1120 q 831 1151 820 1144 q 854 1158 842 1158 q 887 1153 871 1158 q 914 1140 903 1148 q 932 1121 926 1132 q 939 1097 939 1109 q 934 1064 939 1080 q 921 1037 929 1049 q 901 1019 912 1025 q 878 1012 890 1012 q 845 1017 861 1012 q 818 1030 829 1021 q 801 1049 807 1038 q 794 1072 794 1060 z "},"¬":{"ha":809,"x_min":95,"x_max":701,"o":"m 95 522 l 701 522 l 701 207 l 601 207 l 601 422 l 95 422 l 95 522 z "},"ˉ":{"ha":699,"x_min":102,"x_max":597,"o":"m 115 999 l 597 999 l 583 918 l 102 918 l 115 999 z "},"ȷ":{"ha":386,"x_min":-71,"x_max":279,"o":"m 279 -32 q 265 -166 279 -113 q 223 -252 250 -220 q 157 -297 196 -283 q 71 -310 119 -310 q 15 -306 41 -310 q -30 -298 -11 -302 q -71 -285 -52 -292 l -46 -196 q 13 -210 -18 -204 q 70 -220 39 -216 q 130 -224 101 -224 q 144 -184 138 -208 q 153 -132 149 -163 q 157 -58 157 -101 l 157 646 l 33 669 l 47 736 l 279 751 l 279 -32 z "},"‰":{"ha":1580,"x_min":73,"x_max":1504,"o":"m 822 918 l 941 918 l 941 904 l 286 0 l 167 0 l 167 14 l 822 918 m 73 728 q 89 808 73 770 q 133 873 105 845 q 198 917 161 901 q 277 932 235 932 q 357 917 319 932 q 422 873 394 901 q 466 808 450 845 q 481 728 481 770 q 466 649 481 686 q 422 584 450 612 q 357 540 394 556 q 277 524 319 524 q 198 540 235 524 q 133 584 161 556 q 89 649 105 612 q 73 728 73 686 m 165 728 q 174 672 165 696 q 198 632 183 648 q 234 608 214 616 q 277 600 254 600 q 321 608 300 600 q 356 632 341 616 q 380 672 372 648 q 389 728 389 696 q 380 784 389 760 q 356 824 372 808 q 321 849 341 840 q 277 857 300 857 q 234 849 254 857 q 198 824 214 840 q 174 784 183 808 q 165 728 165 760 m 629 189 q 645 269 629 231 q 689 334 661 306 q 754 377 717 361 q 833 393 791 393 q 913 377 876 393 q 978 334 950 361 q 1022 269 1006 306 q 1038 189 1038 231 q 1022 110 1038 146 q 978 45 1006 73 q 913 1 950 17 q 833 -15 876 -15 q 754 1 791 -15 q 689 45 717 17 q 645 110 661 73 q 629 189 629 146 m 722 189 q 730 133 722 157 q 754 93 739 109 q 790 68 770 77 q 833 60 810 60 q 877 68 857 60 q 912 93 897 77 q 937 133 928 109 q 945 189 945 157 q 937 244 945 220 q 912 285 928 269 q 877 310 897 301 q 833 318 857 318 q 790 310 810 318 q 754 285 770 301 q 730 244 739 269 q 722 189 722 220 m 1096 189 q 1112 269 1096 231 q 1156 334 1128 306 q 1220 377 1183 361 q 1300 393 1257 393 q 1379 377 1342 393 q 1444 334 1417 361 q 1488 269 1472 306 q 1504 189 1504 231 q 1488 110 1504 146 q 1444 45 1472 73 q 1379 1 1417 17 q 1300 -15 1342 -15 q 1220 1 1257 -15 q 1156 45 1183 17 q 1112 110 1128 73 q 1096 189 1096 146 m 1188 189 q 1197 133 1188 157 q 1221 93 1206 109 q 1257 68 1236 77 q 1300 60 1277 60 q 1343 68 1323 60 q 1379 93 1364 77 q 1403 133 1394 109 q 1412 189 1412 157 q 1403 244 1412 220 q 1379 285 1394 269 q 1343 310 1364 301 q 1300 318 1323 318 q 1257 310 1277 318 q 1221 285 1236 301 q 1197 244 1206 269 q 1188 189 1188 220 z "},"₧":{"ha":1746,"x_min":50,"x_max":1692,"o":"m 154 828 l 50 851 l 64 918 l 404 918 q 616 873 538 918 q 709 733 694 828 l 710 736 l 807 736 l 857 935 l 929 921 l 929 736 l 1116 736 l 1129 669 l 929 647 l 929 214 q 936 138 929 167 q 957 93 943 109 q 991 72 970 77 q 1037 66 1011 66 q 1073 70 1055 66 q 1107 79 1092 74 q 1140 93 1124 85 l 1140 29 q 1098 7 1121 16 q 1050 -8 1078 -1 q 987 -15 1022 -15 q 917 -6 949 -15 q 859 24 884 2 q 821 84 835 46 q 807 183 807 123 l 807 647 l 713 665 q 685 554 709 602 q 620 473 660 506 q 528 424 580 441 q 419 408 476 408 l 283 408 l 283 90 l 427 66 l 413 0 l 64 0 l 50 66 l 154 90 l 154 828 m 1476 421 q 1562 373 1522 396 q 1631 323 1602 350 q 1676 262 1659 296 q 1692 183 1692 229 q 1674 94 1692 132 q 1620 33 1655 57 q 1533 -3 1585 8 q 1415 -15 1481 -15 q 1317 -8 1360 -15 q 1244 9 1274 -1 q 1181 33 1208 19 l 1167 189 l 1241 202 l 1287 82 q 1318 74 1301 77 q 1355 68 1333 71 q 1403 66 1376 66 q 1465 70 1437 66 q 1513 76 1493 73 q 1556 86 1537 80 q 1563 104 1560 94 q 1568 125 1566 113 q 1570 153 1570 138 q 1556 204 1570 181 q 1515 249 1542 227 q 1449 293 1489 271 q 1358 343 1409 315 q 1286 385 1320 363 q 1226 431 1252 406 q 1184 489 1200 456 q 1168 566 1168 522 q 1181 636 1168 602 q 1223 695 1193 669 q 1306 735 1254 720 q 1438 751 1358 751 q 1529 744 1489 751 q 1596 728 1569 736 q 1653 705 1629 718 l 1666 548 l 1592 534 l 1545 655 q 1515 662 1531 659 q 1482 667 1501 665 q 1441 669 1463 669 q 1384 667 1409 669 q 1342 661 1360 664 q 1305 652 1321 656 q 1298 634 1301 644 q 1293 613 1295 625 q 1291 587 1291 602 q 1301 544 1291 563 q 1335 506 1312 525 q 1393 467 1358 487 q 1476 421 1428 446 m 283 830 l 283 495 l 391 495 q 461 499 430 495 q 514 508 492 503 q 561 521 541 513 q 571 562 566 539 q 578 605 575 581 q 582 656 582 629 q 569 727 582 695 q 531 782 557 759 q 465 817 505 804 q 371 830 425 830 l 283 830 z "},"₣":{"ha":759,"x_min":14,"x_max":687,"o":"m 295 436 l 295 292 l 450 292 l 450 220 l 295 220 l 295 90 l 432 66 l 418 0 l 76 0 l 62 66 l 166 90 l 166 220 l 14 220 l 14 292 l 166 292 l 166 828 l 62 851 l 76 918 l 671 918 l 687 714 l 617 699 l 561 830 l 295 830 l 295 524 l 512 524 l 535 606 l 602 593 l 602 366 l 535 353 l 512 436 l 295 436 z "},"₤":{"ha":777,"x_min":47,"x_max":696,"o":"m 95 66 l 184 86 q 195 127 190 105 q 202 173 199 147 q 206 230 206 199 q 199 307 206 269 l 101 307 l 87 367 l 180 393 l 165 446 l 153 489 l 60 489 l 47 549 l 133 573 q 126 628 128 601 q 124 688 124 656 q 140 781 124 737 q 192 859 157 825 q 282 912 227 892 q 415 932 337 932 q 515 924 471 932 q 589 904 559 915 q 652 876 625 892 l 652 688 l 581 678 l 532 833 q 497 842 516 838 q 457 848 480 846 q 406 851 435 851 q 352 847 376 851 q 309 837 327 842 q 272 823 288 831 q 259 789 264 808 q 250 750 254 773 q 246 697 246 726 q 248 636 246 666 q 256 576 250 607 l 530 576 l 530 489 l 275 489 l 279 475 q 291 433 286 453 q 301 394 296 413 l 530 394 l 530 307 l 318 307 q 320 280 319 293 q 321 254 321 268 q 317 188 321 218 q 307 135 312 157 q 292 87 300 109 l 569 87 l 625 218 l 696 203 l 679 0 l 109 0 l 95 66 z "},"μ":{"ha":842,"x_min":26,"x_max":811,"o":"m 707 90 l 811 66 l 798 0 q 771 -7 785 -5 q 744 -13 760 -11 q 713 -15 729 -15 q 669 -4 688 -15 q 637 25 650 7 q 614 64 623 43 q 599 106 605 85 q 562 65 583 86 q 513 26 541 43 q 450 -3 485 8 q 370 -15 414 -15 q 316 -9 339 -15 q 275 6 292 -3 q 245 25 257 15 q 225 45 233 36 l 218 41 l 252 -295 l 130 -310 l 130 646 l 26 669 l 39 736 l 252 751 l 252 273 q 263 171 252 211 q 295 108 274 131 q 345 76 315 85 q 409 66 374 66 q 480 80 448 66 q 536 109 512 93 q 585 153 563 128 l 585 646 l 461 669 l 475 736 l 707 751 l 707 90 z "},"−":{"ha":687,"x_min":109,"x_max":578,"o":"m 109 452 l 578 452 l 578 353 l 109 353 l 109 452 z "},"≈":{"ha":855,"x_min":109,"x_max":747,"o":"m 109 481 q 121 548 109 519 q 155 597 134 577 q 207 626 177 616 q 271 636 237 636 q 326 629 296 636 q 388 613 356 623 q 452 591 420 603 q 512 570 484 580 q 562 553 540 560 q 597 547 585 547 q 623 552 610 547 q 645 567 635 557 q 661 592 655 577 q 667 628 667 608 l 747 635 l 747 603 q 735 538 747 567 q 703 489 724 509 q 654 458 683 469 q 592 448 626 448 q 540 454 570 448 q 477 471 510 461 q 409 492 444 481 q 345 514 375 504 q 291 530 315 524 q 255 537 267 537 q 228 534 241 537 q 205 524 215 532 q 189 504 195 517 q 182 471 182 491 l 109 464 l 109 481 m 109 210 q 121 277 109 248 q 155 326 134 306 q 207 355 177 345 q 271 365 237 365 q 326 358 296 365 q 388 341 356 351 q 452 320 420 332 q 512 299 484 309 q 562 282 540 289 q 597 275 585 275 q 623 280 610 275 q 645 296 635 286 q 661 321 655 306 q 667 357 667 336 l 747 363 l 747 332 q 735 267 747 296 q 703 218 724 238 q 654 187 683 198 q 592 176 626 176 q 540 183 570 176 q 477 200 510 190 q 409 221 444 210 q 345 242 375 233 q 291 259 315 252 q 255 266 267 266 q 228 263 241 266 q 205 253 215 260 q 189 233 195 245 q 182 199 182 220 l 109 193 l 109 210 z "},"™":{"ha":1262,"x_min":102,"x_max":1160,"o":"m 590 869 l 538 880 l 545 918 l 714 918 l 849 562 l 852 562 l 982 918 l 1154 918 l 1160 880 l 1109 869 l 1109 507 l 1160 496 l 1154 458 l 981 458 l 975 496 l 1026 507 l 1026 859 l 1023 859 l 873 458 l 808 458 l 652 859 l 649 859 l 649 507 l 697 496 l 694 458 l 545 458 l 538 496 l 590 507 l 590 869 m 386 458 l 213 458 l 206 496 l 258 507 l 258 861 l 165 861 l 137 795 l 102 803 l 111 918 l 489 918 l 497 803 l 462 795 l 434 861 l 341 861 l 341 507 l 393 496 l 386 458 z "},"†":{"ha":714,"x_min":61,"x_max":653,"o":"m 75 736 l 310 722 l 296 1044 l 417 1059 l 404 722 l 653 736 l 640 621 l 404 635 l 417 0 l 296 -15 l 310 635 l 61 621 l 75 736 z "},"‡":{"ha":715,"x_min":61,"x_max":654,"o":"m 640 309 l 404 322 l 418 0 l 297 -15 l 311 322 l 61 309 l 75 423 l 311 410 l 297 525 l 311 635 l 62 621 l 75 736 l 311 722 l 297 1044 l 418 1059 l 404 722 l 654 736 l 640 621 l 404 635 l 418 525 l 404 410 l 653 423 l 640 309 z "},"∕":{"ha":898,"x_min":81,"x_max":817,"o":"m 745 918 l 817 918 l 817 904 l 153 0 l 81 0 l 81 14 l 745 918 z "},"≤":{"ha":765,"x_min":95,"x_max":656,"o":"m 95 558 l 95 623 l 636 877 l 656 877 l 656 783 l 255 594 l 255 587 l 656 399 l 656 304 l 636 304 l 95 558 m 95 174 l 656 174 l 656 75 l 95 75 l 95 174 z "},"≥":{"ha":765,"x_min":109,"x_max":670,"o":"m 129 304 l 109 304 l 109 399 l 510 587 l 510 594 l 109 783 l 109 877 l 129 877 l 670 623 l 670 558 l 129 304 m 109 174 l 670 174 l 670 75 l 109 75 l 109 174 z "},"‹":{"ha":543,"x_min":102,"x_max":427,"o":"m 370 78 l 102 363 l 102 404 l 370 690 l 427 690 l 427 675 l 224 391 l 224 377 l 427 93 l 427 78 l 370 78 z "},"›":{"ha":543,"x_min":115,"x_max":441,"o":"m 115 78 l 115 93 l 319 377 l 319 391 l 115 675 l 115 690 l 173 690 l 441 404 l 441 363 l 173 78 l 115 78 z "},"∙":{"ha":481,"x_min":68,"x_max":387,"o":"m 68 395 q 77 472 68 435 q 103 536 87 509 q 140 581 119 564 q 186 597 162 597 q 265 587 229 597 q 329 562 302 578 q 371 524 355 545 q 387 477 387 502 q 377 401 387 437 q 351 337 368 365 q 313 294 335 310 q 267 277 292 277 q 189 287 225 277 q 125 312 153 296 q 83 350 98 328 q 68 395 68 371 z "},"π":{"ha":1012,"x_min":160,"x_max":964,"o":"m 964 770 q 951 714 960 743 q 923 661 942 685 q 872 622 904 637 q 788 607 840 607 l 767 607 l 767 115 l 893 92 l 880 0 q 858 -7 870 -5 q 834 -13 848 -11 q 808 -15 821 -15 q 744 -4 774 -15 q 692 26 714 6 q 657 77 670 47 q 645 146 645 106 l 645 612 q 561 618 602 615 q 481 623 519 621 q 463 407 476 506 q 431 228 449 307 q 393 92 414 149 q 355 0 373 34 l 232 -15 l 218 46 q 264 124 237 73 q 319 248 292 174 q 368 416 346 321 q 398 628 390 511 q 384 628 391 628 q 370 629 376 629 q 317 626 341 629 q 273 613 293 623 q 238 585 254 603 q 210 536 222 567 l 160 548 q 186 632 170 595 q 228 696 202 670 q 291 737 254 723 q 380 751 328 751 q 441 749 407 751 q 512 745 475 747 q 588 740 549 743 q 665 735 627 737 q 735 731 702 732 q 794 729 768 729 q 834 730 818 729 q 863 732 851 731 q 885 736 876 734 l 911 785 l 964 770 z "},"∫":{"ha":594,"x_min":12,"x_max":562,"o":"m 361 -32 q 347 -166 361 -113 q 305 -252 332 -220 q 239 -297 278 -283 q 153 -310 201 -310 q 97 -306 123 -310 q 52 -298 71 -302 q 12 -285 30 -292 l 36 -196 q 95 -210 64 -204 q 152 -220 121 -216 q 212 -224 183 -224 q 226 -184 220 -208 q 235 -132 231 -163 q 239 -58 239 -101 l 239 985 q 254 1101 239 1053 q 296 1179 269 1149 q 360 1222 323 1208 q 442 1235 397 1235 q 488 1231 467 1235 q 526 1222 510 1227 q 562 1210 545 1217 l 533 1121 q 484 1135 509 1128 q 435 1144 462 1140 q 382 1149 408 1149 q 372 1112 376 1134 q 365 1064 368 1093 q 361 996 361 1036 l 361 -32 z "},"≠":{"ha":761,"x_min":109,"x_max":652,"o":"m 109 315 l 294 315 l 359 522 l 109 522 l 109 629 l 393 629 l 471 880 l 576 880 l 576 866 l 502 629 l 652 629 l 652 522 l 469 522 l 404 315 l 652 315 l 652 208 l 370 208 l 281 -75 l 176 -75 l 176 -62 l 260 208 l 109 208 l 109 315 z "},"ŉ":{"ha":950,"x_min":-67,"x_max":908,"o":"m 109 66 l 213 90 l 213 646 l 109 669 l 123 736 l 282 751 l 321 630 q 435 719 372 687 q 568 751 498 751 q 747 687 689 751 q 804 492 804 624 l 804 90 l 908 66 l 895 0 l 592 0 l 578 66 l 682 90 l 682 463 q 649 618 682 566 q 528 669 615 669 q 432 647 482 669 q 335 582 382 625 l 335 90 l 439 66 l 425 0 l 123 0 l 109 66 m -67 952 q -62 993 -67 974 q -48 1027 -57 1013 q -28 1051 -40 1042 q -4 1059 -17 1059 q 46 1052 20 1059 q 90 1027 73 1044 q 109 993 100 1015 q 117 927 117 970 q 113 867 117 896 q 94 807 108 838 q 53 744 79 777 q -16 675 27 712 l -58 724 q 16 803 -5 769 q 36 863 36 838 q 26 882 36 876 q 1 893 16 889 q -48 917 -29 901 q -67 952 -67 932 z "},"ĸ":{"ha":818,"x_min":72,"x_max":806,"o":"m 72 66 l 176 90 l 176 646 l 72 669 l 85 736 l 298 751 l 298 385 l 304 382 q 357 398 334 382 q 401 439 381 414 q 440 498 422 465 q 479 566 459 532 q 520 634 498 601 q 568 693 542 667 q 627 735 595 719 q 702 751 660 751 q 743 746 724 751 q 776 731 762 741 q 798 709 790 722 q 806 681 806 696 q 801 645 806 663 q 787 614 796 628 q 765 593 778 601 q 736 585 752 585 q 690 594 709 585 q 650 623 671 604 q 620 604 635 623 q 586 554 604 585 q 546 487 568 524 q 500 414 525 450 l 713 88 l 802 66 l 789 0 l 637 0 l 425 326 q 366 287 397 302 q 298 273 334 273 l 298 90 l 401 66 l 388 0 l 85 0 l 72 66 z "},"ẞ":{"ha":927,"x_min":53,"x_max":865,"o":"m 157 828 l 53 851 l 66 918 l 789 918 l 789 854 l 575 568 l 647 517 q 734 453 694 484 q 803 390 774 422 q 848 319 832 357 q 865 234 865 281 q 848 134 865 179 q 799 55 831 88 q 719 3 766 22 q 612 -15 672 -15 q 519 -8 559 -15 q 452 6 479 -2 q 397 28 419 16 l 382 203 l 462 220 l 517 89 q 542 81 528 84 q 570 75 553 77 q 609 73 587 73 q 651 76 632 73 q 685 82 671 79 q 715 92 702 86 q 726 124 721 106 q 732 161 729 140 q 736 210 736 183 q 723 264 736 239 q 685 315 709 290 q 626 367 661 340 q 550 425 592 394 l 448 501 l 448 543 l 664 830 l 286 830 l 286 0 l 66 0 l 53 66 l 157 90 l 157 828 z "},"a":{"ha":780,"x_min":73,"x_max":754,"o":"m 637 90 l 754 66 l 741 0 l 568 -15 l 528 105 q 415 13 475 41 q 284 -15 355 -15 q 131 33 189 -15 q 73 161 73 80 q 183 348 73 285 q 515 412 293 412 l 515 476 q 478 624 515 578 q 349 669 441 669 q 299 667 327 669 q 247 659 271 664 l 206 515 l 140 522 l 140 714 q 240 740 180 728 q 361 751 300 751 q 569 689 500 751 q 637 498 637 628 l 637 90 m 515 330 q 334 317 413 330 q 214 281 256 304 q 201 238 206 262 q 195 186 195 214 q 233 98 195 130 q 330 66 270 66 q 431 92 381 66 q 515 153 480 117 l 515 330 z "},"b":{"ha":761,"x_min":3,"x_max":697,"o":"m 229 642 l 238 638 q 330 721 279 692 q 454 751 381 751 q 634 675 570 751 q 697 452 697 600 l 697 388 q 611 93 697 200 q 383 -15 526 -15 q 244 -1 325 -15 q 106 29 164 14 l 106 955 l 3 978 l 16 1044 l 229 1059 l 229 642 m 575 435 q 533 611 575 553 q 411 669 491 669 q 315 639 364 669 q 229 568 265 609 l 229 85 q 307 72 262 78 q 397 66 352 66 q 475 79 438 66 q 534 109 512 92 q 562 208 548 138 q 575 355 575 277 l 575 435 z "},"c":{"ha":659,"x_min":65,"x_max":608,"o":"m 65 334 q 151 643 65 534 q 388 751 237 751 q 491 741 439 751 q 595 708 543 730 l 608 549 l 533 534 l 486 655 q 439 666 463 662 q 386 669 414 669 q 303 659 344 669 q 228 629 263 649 q 200 520 213 588 q 187 374 187 453 l 187 300 q 250 129 187 192 q 402 66 313 66 q 501 79 451 66 q 602 116 551 92 l 602 51 q 495 3 555 22 q 369 -15 434 -15 q 145 59 226 -15 q 65 271 65 132 l 65 334 z "},"∏":{"ha":1067,"x_min":88,"x_max":979,"o":"m 874 -153 l 745 -153 l 745 830 l 321 830 l 321 -153 l 192 -153 l 192 828 l 88 851 l 102 918 l 965 918 l 979 851 l 874 828 l 874 -153 z "},"∑":{"ha":906,"x_min":81,"x_max":784,"o":"m 82 -59 l 376 381 l 376 388 l 81 857 l 102 918 l 768 918 l 784 714 l 714 699 l 658 830 l 235 830 l 477 444 l 477 374 l 205 -31 l 658 -31 l 714 100 l 784 85 l 768 -153 l 102 -153 l 82 -59 z "},"◊":{"ha":895,"x_min":81,"x_max":813,"o":"m 81 408 l 81 466 l 420 1044 l 499 1044 l 813 493 l 813 435 l 486 -139 l 384 -139 l 81 408 m 709 437 l 709 444 l 443 920 l 185 464 l 185 457 l 452 -36 l 709 437 z "},"":{"ha":180,"x_min":47,"x_max":160,"o":"m 47 -87 l 160 -87 l 160 -115 l 117 -347 l 47 -347 l 47 -87 z "},"":{"ha":1611,"x_min":136,"x_max":1475,"o":"m 136 1031 l 1475 1031 l 1475 -309 l 136 -309 l 136 1031 m 799 -22 q 906 -6 857 -22 q 991 38 955 9 q 1048 107 1027 66 q 1069 198 1069 148 q 1063 253 1069 227 q 1044 302 1057 278 q 1007 349 1030 326 q 950 396 985 372 l 618 633 q 656 669 634 654 q 704 692 678 683 q 757 705 729 701 q 812 709 785 709 q 913 692 870 709 q 989 654 957 675 l 984 595 q 990 578 983 585 q 1006 570 997 572 q 1024 575 1016 569 q 1032 591 1031 582 l 1038 663 q 1036 675 1038 669 q 1027 685 1033 682 q 986 711 1008 698 q 938 734 964 724 q 880 751 911 745 q 808 758 848 758 q 716 745 764 758 q 629 707 669 733 q 564 640 589 681 q 538 541 538 599 q 544 484 538 510 q 564 435 550 458 q 600 388 577 411 q 657 341 623 366 l 989 104 q 950 68 972 83 q 903 44 928 54 q 850 30 878 34 q 794 26 822 25 q 738 32 764 26 q 687 45 711 37 q 642 63 663 54 q 605 82 621 73 l 610 141 q 606 159 612 152 q 589 168 600 166 q 572 162 578 169 q 564 146 565 155 l 557 71 q 563 53 555 59 q 607 26 582 39 q 662 2 631 13 q 726 -15 692 -9 q 799 -22 761 -22 m 922 358 q 974 313 954 334 q 1004 273 994 292 q 1018 235 1015 254 q 1021 198 1021 216 q 1019 169 1021 181 q 1013 144 1017 156 l 686 379 q 636 421 656 401 q 606 461 617 441 q 590 501 595 481 q 586 541 586 521 q 588 569 586 557 q 595 592 591 581 l 922 358 z "},"∞":{"ha":1501,"x_min":119,"x_max":1380,"o":"m 770 439 q 851 529 811 492 q 933 589 892 566 q 1020 623 975 612 q 1118 633 1065 633 q 1223 617 1175 633 q 1306 572 1271 602 q 1360 498 1341 542 q 1380 397 1380 454 q 1355 263 1380 321 q 1286 168 1330 205 q 1185 111 1243 130 q 1061 92 1127 92 q 958 105 1005 92 q 869 143 910 118 q 794 204 829 168 q 730 286 760 240 q 652 198 692 235 q 568 138 612 162 q 475 103 524 115 q 374 92 427 92 q 268 107 315 92 q 188 153 220 123 q 137 228 155 182 q 119 333 119 273 q 149 461 119 406 q 227 555 179 517 q 335 613 275 593 q 456 633 395 633 q 557 620 512 633 q 638 583 602 608 q 707 522 675 558 q 770 439 739 486 m 395 172 q 477 185 439 172 q 549 221 515 197 q 615 278 583 245 q 681 352 647 311 q 618 441 648 404 q 557 504 588 479 q 494 541 527 528 q 422 553 460 553 q 330 532 373 553 q 262 488 287 512 q 249 432 254 465 q 243 363 243 399 q 252 288 243 323 q 279 228 260 253 q 326 187 297 202 q 395 172 355 172 m 1098 553 q 1019 541 1055 553 q 948 506 982 529 q 883 449 914 483 q 819 372 851 416 q 882 284 852 321 q 943 221 913 246 q 1005 184 974 197 q 1074 172 1037 172 q 1165 188 1123 172 q 1236 230 1208 203 q 1251 299 1246 261 q 1257 380 1257 336 q 1248 448 1257 416 q 1220 503 1239 479 q 1171 539 1201 526 q 1098 553 1141 553 z "},"√":{"ha":1158,"x_min":197,"x_max":1022,"o":"m 627 178 l 937 1187 l 1022 1187 l 1022 1173 l 656 -15 l 577 0 l 317 648 l 222 612 l 197 677 l 395 751 l 627 178 z "},"ℓ":{"ha":734,"x_min":81,"x_max":646,"o":"m 224 330 q 203 325 213 326 q 181 324 193 324 q 139 329 157 324 q 108 339 121 334 q 81 354 93 346 l 81 419 q 106 412 92 414 q 134 406 117 408 q 170 404 150 404 q 197 407 183 404 q 224 415 212 409 l 224 698 q 240 787 224 745 q 285 862 256 829 q 357 913 315 895 q 453 932 399 932 q 597 887 547 932 q 646 763 646 841 l 646 743 q 623 649 646 698 q 560 552 600 600 q 465 458 520 504 q 347 374 410 413 l 347 204 q 354 134 347 161 q 375 92 361 106 q 409 72 389 77 q 454 66 429 66 q 491 70 472 66 q 524 79 509 74 q 557 93 542 85 l 557 29 q 515 7 538 16 q 467 -8 495 -1 q 405 -15 439 -15 q 334 -6 367 -15 q 277 24 301 2 q 238 84 252 46 q 224 183 224 123 l 224 330 m 524 733 q 517 786 524 764 q 497 822 510 808 q 467 844 484 837 q 428 851 449 851 q 403 849 414 851 q 383 844 392 847 q 365 838 373 842 q 355 804 359 822 q 349 767 352 788 q 347 722 347 746 l 347 472 q 477 588 430 526 q 524 722 524 650 l 524 733 z "},"∂":{"ha":779,"x_min":20,"x_max":677,"o":"m 655 435 q 607 248 640 332 q 525 106 574 165 q 408 17 475 48 q 260 -15 342 -15 q 143 7 191 -15 q 66 70 95 30 q 29 164 38 109 q 28 284 20 219 l 37 347 q 85 521 52 446 q 166 647 118 596 q 273 725 214 699 q 400 751 333 751 q 468 740 437 751 q 523 713 498 730 q 564 677 547 697 q 591 637 581 656 q 578 769 591 710 q 537 870 566 829 q 465 935 509 912 q 358 958 421 958 q 278 945 315 958 q 213 917 241 932 q 152 876 180 899 l 162 949 q 230 1004 193 979 q 306 1042 262 1025 q 402 1059 349 1059 q 505 1039 460 1059 q 582 983 549 1019 q 636 897 615 947 q 667 786 657 847 q 677 656 677 726 q 666 513 676 587 l 655 435 m 578 465 q 588 557 585 512 q 555 598 574 578 q 509 634 535 618 q 451 660 483 650 q 382 669 419 669 q 323 662 349 669 q 277 646 296 655 q 237 624 255 636 q 210 565 222 600 q 186 491 198 535 q 165 388 174 448 l 154 307 q 154 201 145 246 q 182 125 162 155 q 232 81 203 96 q 294 66 262 66 q 394 94 348 66 q 476 166 440 121 q 535 271 511 212 q 568 393 559 330 l 578 465 z "},"℮":{"ha":826,"x_min":54,"x_max":765,"o":"m 197 334 l 197 161 q 252 114 220 135 q 322 81 281 96 q 421 66 364 66 q 477 71 450 66 q 530 83 505 75 q 578 100 555 90 q 621 119 602 109 q 707 172 667 142 l 747 120 q 657 52 707 82 q 610 27 635 39 q 554 6 584 16 q 491 -9 524 -3 q 421 -15 458 -15 q 284 4 351 -15 q 167 65 218 22 q 85 176 116 107 q 54 346 54 245 q 82 519 54 444 q 159 646 110 594 q 275 724 208 697 q 420 751 342 751 q 567 727 503 751 q 675 656 631 703 q 742 540 719 609 q 765 382 765 471 l 765 334 l 197 334 m 197 416 l 623 416 l 623 574 q 576 622 605 601 q 513 654 552 640 q 416 669 473 669 q 315 654 357 669 q 248 622 274 640 q 197 574 216 601 l 197 416 z "},"Ⓟ":{"ha":1208,"x_min":61,"x_max":1147,"o":"m 61 390 q 80 534 61 465 q 135 664 100 604 q 220 773 171 724 q 330 858 270 823 q 460 913 391 894 q 604 932 529 932 q 748 913 679 932 q 878 858 818 894 q 988 773 939 823 q 1073 664 1038 724 q 1128 534 1109 604 q 1147 390 1147 465 q 1128 246 1147 315 q 1073 116 1109 176 q 988 6 1038 56 q 878 -79 939 -43 q 748 -134 818 -115 q 604 -153 679 -153 q 460 -134 530 -153 q 330 -79 391 -115 q 220 6 270 -43 q 135 116 171 56 q 80 245 100 176 q 61 390 61 315 m 148 390 q 164 267 148 326 q 210 157 180 208 q 281 64 240 106 q 374 -7 323 22 q 483 -54 425 -37 q 604 -70 541 -70 q 726 -54 667 -70 q 835 -7 784 -37 q 927 64 886 22 q 998 157 968 106 q 1044 267 1028 208 q 1061 390 1061 326 q 1044 512 1061 454 q 998 622 1028 571 q 927 715 968 673 q 835 787 886 757 q 726 833 784 817 q 604 849 667 849 q 483 833 541 849 q 374 787 425 817 q 281 715 323 757 q 210 622 240 673 q 164 512 180 571 q 148 390 148 454 m 467 629 l 397 644 l 407 690 l 635 690 q 790 652 736 690 q 844 532 844 614 q 828 452 844 487 q 784 394 812 417 q 721 358 757 370 q 646 347 685 347 l 553 347 l 553 133 l 650 117 l 642 72 l 407 72 l 397 117 l 467 133 l 467 629 m 553 629 l 553 405 l 627 405 q 673 408 652 405 q 709 414 694 410 q 741 422 727 417 q 747 450 745 435 q 752 479 750 463 q 755 513 755 495 q 720 597 755 565 q 613 629 686 629 l 553 629 z "},"æ":{"ha":1099,"x_min":66,"x_max":1056,"o":"m 66 161 q 91 266 66 219 q 168 345 115 312 q 303 394 220 377 q 501 412 385 412 l 501 476 q 496 547 501 515 q 486 602 492 579 q 472 648 479 628 q 413 663 446 657 q 334 669 380 669 q 299 668 315 669 q 269 664 282 666 q 240 659 253 661 l 199 515 l 133 522 l 133 714 q 191 732 158 724 q 255 745 218 739 q 338 751 293 751 q 489 726 428 751 q 585 643 551 701 q 682 724 625 696 q 810 751 739 751 q 928 731 881 751 q 1004 672 975 711 q 1044 574 1032 633 q 1056 436 1056 515 l 1056 355 l 623 355 l 623 303 q 643 191 623 236 q 692 118 663 146 q 756 78 722 90 q 822 66 791 66 q 897 73 862 66 q 960 88 932 80 q 1020 111 992 98 l 1020 45 q 954 15 991 28 q 878 -6 922 3 q 781 -15 834 -15 q 702 -7 739 -15 q 633 17 665 1 q 575 59 601 34 q 533 121 550 85 q 500 80 522 104 q 448 36 479 57 q 372 0 416 15 q 271 -15 328 -15 q 189 -3 227 -15 q 124 31 152 8 q 82 85 97 53 q 66 161 66 118 m 317 66 q 389 80 355 66 q 449 110 423 93 q 493 144 475 127 q 515 167 510 161 q 501 281 501 216 l 501 330 q 362 323 418 330 q 271 306 306 315 q 208 281 231 295 q 198 256 202 270 q 192 226 195 243 q 189 186 189 208 q 199 131 189 154 q 228 94 210 109 q 269 73 246 80 q 317 66 292 66 m 664 629 q 648 578 655 606 q 635 517 641 553 q 625 436 629 482 l 927 436 q 920 538 927 494 q 897 611 913 582 q 855 655 881 640 q 791 669 829 669 q 739 663 762 669 q 699 649 716 656 q 664 629 680 640 z "},"à":{"ha":780,"x_min":73,"x_max":754,"o":"m 637 90 l 754 66 l 741 0 l 568 -15 l 528 105 q 415 13 475 41 q 284 -15 355 -15 q 131 33 189 -15 q 73 161 73 80 q 183 348 73 285 q 515 412 293 412 l 515 476 q 478 624 515 578 q 349 669 441 669 q 299 667 327 669 q 247 659 271 664 l 206 515 l 140 522 l 140 714 q 240 740 180 728 q 361 751 300 751 q 569 689 500 751 q 637 498 637 628 l 637 90 m 515 330 q 334 317 413 330 q 214 281 256 304 q 201 238 206 262 q 195 186 195 214 q 233 98 195 130 q 330 66 270 66 q 431 92 381 66 q 515 153 480 117 l 515 330 m 444 865 l 364 858 l 168 1081 l 168 1126 l 286 1133 l 444 886 l 444 865 z "},"̀":{"ha":0,"x_min":-492,"x_max":-216,"o":"m -216 865 l -296 858 l -492 1081 l -492 1126 l -374 1133 l -216 886 l -216 865 z "},"́":{"ha":0,"x_min":-444,"x_max":-183,"o":"m -444 886 l -307 1133 l -183 1126 l -183 1081 l -373 858 l -444 865 l -444 886 z "},"á":{"ha":780,"x_min":73,"x_max":754,"o":"m 637 90 l 754 66 l 741 0 l 568 -15 l 528 105 q 415 13 475 41 q 284 -15 355 -15 q 131 33 189 -15 q 73 161 73 80 q 183 348 73 285 q 515 412 293 412 l 515 476 q 478 624 515 578 q 349 669 441 669 q 299 667 327 669 q 247 659 271 664 l 206 515 l 140 522 l 140 714 q 240 740 180 728 q 361 751 300 751 q 569 689 500 751 q 637 498 637 628 l 637 90 m 515 330 q 334 317 413 330 q 214 281 256 304 q 201 238 206 262 q 195 186 195 214 q 233 98 195 130 q 330 66 270 66 q 431 92 381 66 q 515 153 480 117 l 515 330 m 319 886 l 456 1133 l 580 1126 l 580 1081 l 390 858 l 319 865 l 319 886 z "},"̈":{"ha":0,"x_min":-443,"x_max":-27,"o":"m -443 939 q -438 971 -443 956 q -425 999 -433 987 q -406 1017 -416 1010 q -382 1024 -395 1024 q -349 1019 -365 1024 q -322 1006 -334 1015 q -305 986 -311 998 q -298 963 -298 975 q -303 931 -298 946 q -316 904 -308 916 q -335 885 -324 892 q -358 878 -346 878 q -391 883 -376 878 q -418 896 -407 888 q -436 916 -430 905 q -443 939 -443 926 m -172 939 q -167 971 -172 956 q -154 999 -162 987 q -135 1017 -146 1010 q -112 1024 -124 1024 q -79 1019 -94 1024 q -52 1006 -63 1015 q -34 986 -40 998 q -27 963 -27 975 q -32 931 -27 946 q -45 904 -37 916 q -64 885 -54 892 q -87 878 -75 878 q -121 883 -105 878 q -148 896 -136 888 q -165 916 -159 905 q -172 939 -172 926 z "},"ö":{"ha":755,"x_min":65,"x_max":690,"o":"m 371 -15 q 144 64 223 -15 q 65 284 65 143 l 65 347 q 151 643 65 534 q 378 751 237 751 q 608 672 526 751 q 690 445 690 593 l 690 381 q 605 93 690 201 q 371 -15 519 -15 m 568 422 q 515 603 568 538 q 364 669 462 667 q 290 657 327 669 q 228 629 252 646 q 199 525 210 589 q 187 388 187 461 l 187 307 q 246 130 187 193 q 391 66 304 66 q 461 77 425 66 q 528 107 497 88 q 558 212 549 151 q 568 341 568 273 l 568 422 m 168 939 q 173 971 168 956 q 186 999 178 987 q 205 1017 195 1010 q 229 1024 216 1024 q 262 1019 246 1024 q 289 1006 277 1015 q 306 986 300 998 q 313 963 313 975 q 308 931 313 946 q 295 904 303 916 q 276 885 287 892 q 253 878 265 878 q 220 883 235 878 q 193 896 204 888 q 175 916 181 905 q 168 939 168 926 m 439 939 q 444 971 439 956 q 457 999 449 987 q 476 1017 465 1010 q 499 1024 487 1024 q 532 1019 517 1024 q 559 1006 548 1015 q 577 986 571 998 q 584 963 584 975 q 579 931 584 946 q 566 904 574 916 q 547 885 557 892 q 524 878 536 878 q 490 883 506 878 q 464 896 475 888 q 446 916 452 905 q 439 939 439 926 z "},"′":{"ha":330,"x_min":81,"x_max":248,"o":"m 136 918 l 248 918 l 248 889 l 151 617 l 81 617 l 136 918 z "},"″":{"ha":500,"x_min":81,"x_max":418,"o":"m 136 918 l 248 918 l 248 889 l 151 617 l 81 617 l 136 918 m 306 918 l 418 918 l 418 889 l 321 617 l 252 617 l 306 918 z "},"ș":{"ha":658,"x_min":80,"x_max":604,"o":"m 387 421 q 566 298 528 349 q 604 184 604 247 q 526 40 604 96 q 320 -15 448 -15 q 191 -1 251 -15 q 92 33 130 14 l 85 195 l 159 209 l 199 82 q 257 70 225 74 q 321 66 289 66 q 394 71 358 66 q 468 85 431 75 q 478 118 475 100 q 481 153 481 136 q 438 239 481 201 q 270 343 395 277 q 119 449 157 402 q 80 556 80 496 q 151 696 80 641 q 353 751 222 751 q 472 738 414 751 q 571 705 530 726 l 577 541 l 503 528 l 463 656 q 406 666 436 663 q 349 669 375 669 q 279 664 313 669 q 217 650 245 659 q 207 622 211 640 q 202 587 202 605 q 233 518 202 550 q 387 421 264 486 m 279 -87 l 392 -87 l 392 -115 l 349 -347 l 279 -347 l 279 -87 z "},"Ț":{"ha":772,"x_min":9,"x_max":763,"o":"m 322 830 l 119 830 l 77 715 l 9 721 l 20 918 l 753 918 l 763 721 l 696 715 l 654 830 l 451 830 l 451 90 l 555 66 l 541 0 l 232 0 l 218 66 l 322 90 l 322 830 m 334 -87 l 447 -87 l 447 -115 l 404 -347 l 334 -347 l 334 -87 z "},"ț":{"ha":503,"x_min":19,"x_max":461,"o":"m 447 736 l 460 669 l 250 647 l 250 210 q 272 102 250 138 q 358 66 293 66 q 406 73 380 66 q 461 93 433 80 l 461 29 q 390 -3 430 9 q 309 -15 349 -15 q 171 34 214 -15 q 128 183 128 83 l 128 647 l 19 669 l 33 736 l 128 736 l 178 935 l 250 921 l 250 736 l 447 736 m 254 -87 l 367 -87 l 367 -115 l 324 -347 l 254 -347 l 254 -87 z "},"Ņ":{"ha":1039,"x_min":49,"x_max":1001,"o":"m 153 828 l 49 851 l 62 918 l 347 918 l 791 92 l 802 92 l 802 828 l 698 851 l 711 918 l 987 918 l 1001 851 l 898 828 l 898 0 l 703 0 l 258 826 l 248 826 l 248 90 l 351 66 l 337 0 l 62 0 l 49 66 l 153 90 l 153 828 m 450 -87 l 563 -87 l 563 -115 l 520 -347 l 450 -347 l 450 -87 z "},"ņ":{"ha":913,"x_min":72,"x_max":871,"o":"m 72 66 l 176 90 l 176 646 l 72 669 l 85 736 l 245 751 l 284 630 q 397 719 334 687 q 530 751 460 751 q 709 687 652 751 q 767 492 767 624 l 767 90 l 871 66 l 857 0 l 555 0 l 541 66 l 645 90 l 645 463 q 611 618 645 566 q 490 669 578 669 q 395 647 445 669 q 298 582 345 625 l 298 90 l 401 66 l 388 0 l 85 0 l 72 66 m 406 -87 l 519 -87 l 519 -115 l 476 -347 l 406 -347 l 406 -87 z "},"Ŗ":{"ha":817,"x_min":49,"x_max":819,"o":"m 153 828 l 49 851 l 62 918 l 396 918 q 612 860 537 918 q 686 685 686 803 q 646 531 686 597 q 536 433 606 466 l 532 420 l 720 90 l 819 66 l 805 0 l 636 0 l 406 408 l 281 408 l 281 90 l 385 66 l 371 0 l 62 0 l 49 66 l 153 90 l 153 828 m 281 830 l 281 495 l 365 495 q 450 501 407 495 q 535 522 493 507 q 549 588 543 552 q 555 657 555 624 q 503 784 555 738 q 350 830 451 830 l 281 830 m 369 -87 l 481 -87 l 481 -115 l 439 -347 l 369 -347 l 369 -87 z "},"ŗ":{"ha":600,"x_min":72,"x_max":564,"o":"m 176 646 l 72 669 l 85 736 l 245 751 l 284 630 q 360 721 317 691 q 463 751 404 751 q 517 743 490 751 q 564 722 544 736 l 547 530 l 471 530 l 453 656 q 422 661 440 661 q 353 636 388 661 q 298 582 319 612 l 298 90 l 424 66 l 410 0 l 85 0 l 72 66 l 176 90 l 176 646 m 181 -87 l 294 -87 l 294 -115 l 251 -347 l 181 -347 l 181 -87 z "},"Ļ":{"ha":690,"x_min":50,"x_max":637,"o":"m 154 828 l 50 851 l 64 918 l 372 918 l 386 851 l 283 828 l 283 87 l 511 87 l 567 218 l 637 203 l 621 0 l 64 0 l 50 66 l 154 90 l 154 828 m 286 -87 l 398 -87 l 398 -115 l 355 -347 l 286 -347 l 286 -87 z "},"ļ":{"ha":435,"x_min":63,"x_max":393,"o":"m 167 955 l 63 978 l 77 1044 l 289 1059 l 289 90 l 393 66 l 379 0 l 77 0 l 63 66 l 167 90 l 167 955 m 165 -87 l 277 -87 l 277 -115 l 235 -347 l 165 -347 l 165 -87 z "},"Ķ":{"ha":884,"x_min":49,"x_max":890,"o":"m 49 66 l 153 90 l 153 828 l 49 851 l 62 918 l 371 918 l 385 851 l 281 828 l 281 450 l 291 446 l 660 836 l 585 850 l 599 918 l 844 918 l 858 851 l 775 828 l 481 519 l 791 90 l 890 66 l 876 0 l 711 0 l 399 433 l 281 309 l 281 90 l 385 66 l 371 0 l 62 0 l 49 66 m 391 -87 l 503 -87 l 503 -115 l 460 -347 l 391 -347 l 391 -87 z "},"ķ":{"ha":804,"x_min":57,"x_max":787,"o":"m 57 66 l 161 90 l 161 955 l 57 978 l 71 1044 l 283 1059 l 283 389 l 292 385 l 583 656 l 521 669 l 534 736 l 753 736 l 766 669 l 707 656 l 464 436 l 696 90 l 787 66 l 774 0 l 623 0 l 380 361 l 283 273 l 283 90 l 387 66 l 373 0 l 71 0 l 57 66 m 372 -87 l 484 -87 l 484 -115 l 441 -347 l 372 -347 l 372 -87 z "},"Ģ":{"ha":882,"x_min":69,"x_max":844,"o":"m 741 71 q 597 8 675 31 q 443 -15 519 -15 q 167 77 265 -15 q 69 342 69 168 l 69 403 q 176 796 69 659 q 484 932 283 932 q 616 922 551 932 q 730 894 682 912 l 745 711 l 673 696 l 618 827 q 551 840 592 834 q 469 845 511 845 q 356 829 410 845 q 265 785 303 813 q 216 638 234 722 q 198 463 198 555 l 198 373 q 280 151 198 230 q 477 73 362 73 q 547 79 512 73 q 612 97 581 86 l 612 342 l 508 365 l 522 438 l 830 438 l 844 365 l 741 342 l 741 71 m 394 -87 l 507 -87 l 507 -115 l 464 -347 l 394 -347 l 394 -87 z "},"ģ":{"ha":729,"x_min":62,"x_max":717,"o":"m 559 663 l 556 656 q 607 597 585 637 q 629 515 629 558 l 629 498 q 554 317 629 385 q 357 250 480 250 q 277 258 313 250 q 217 194 240 224 q 195 145 195 163 q 207 118 195 127 q 243 109 220 109 l 395 109 q 636 62 556 109 q 717 -85 717 15 q 623 -253 717 -195 q 356 -310 529 -310 q 134 -278 205 -310 q 62 -176 62 -246 q 99 -84 62 -130 q 204 6 136 -38 q 127 41 155 16 q 100 109 100 67 q 132 193 100 149 q 217 277 164 237 q 129 353 159 305 q 100 454 100 400 l 100 472 q 174 678 100 605 q 371 751 248 751 q 421 746 391 751 q 475 736 451 742 l 688 736 l 700 663 l 559 663 m 279 0 q 201 -74 231 -35 q 171 -146 171 -113 q 221 -211 171 -194 q 397 -229 271 -229 q 502 -220 449 -229 q 597 -194 555 -212 q 615 -155 608 -178 q 622 -109 622 -132 q 573 -24 622 -47 q 403 0 524 0 l 279 0 m 507 518 q 462 629 507 589 q 355 669 417 669 q 296 664 323 669 q 249 649 268 658 q 228 574 235 612 q 222 505 222 536 l 222 479 q 270 372 222 413 q 374 331 318 331 q 432 336 406 331 q 479 351 458 341 q 499 411 491 373 q 507 492 507 448 l 507 518 m 418 858 l 306 858 l 306 886 l 349 1118 l 418 1118 l 418 858 z "},"Ǧ":{"ha":882,"x_min":69,"x_max":844,"o":"m 741 71 q 597 8 675 31 q 443 -15 519 -15 q 167 77 265 -15 q 69 342 69 168 l 69 403 q 176 796 69 659 q 484 932 283 932 q 616 922 551 932 q 730 894 682 912 l 745 711 l 673 696 l 618 827 q 551 840 592 834 q 469 845 511 845 q 356 829 410 845 q 265 785 303 813 q 216 638 234 722 q 198 463 198 555 l 198 373 q 280 151 198 230 q 477 73 362 73 q 547 79 512 73 q 612 97 581 86 l 612 342 l 508 365 l 522 438 l 830 438 l 844 365 l 741 342 l 741 71 m 239 1210 l 323 1217 l 485 1086 l 642 1217 l 706 1210 l 706 1188 l 514 990 l 424 997 l 239 1188 l 239 1210 z "},"Ḋ":{"ha":924,"x_min":53,"x_max":845,"o":"m 157 828 l 53 851 l 66 918 l 433 918 q 741 815 637 918 q 845 519 845 712 l 845 466 q 740 125 845 250 q 448 0 635 0 l 66 0 l 53 66 l 157 90 l 157 828 m 286 830 l 286 87 l 429 87 q 529 96 481 87 q 617 121 576 104 q 688 253 659 173 q 716 422 716 333 l 716 486 q 638 740 716 649 q 406 830 559 830 l 286 830 m 317 1084 q 322 1120 317 1103 q 337 1150 328 1137 q 358 1171 346 1163 q 383 1178 370 1178 q 420 1173 403 1178 q 450 1159 437 1168 q 470 1137 463 1149 q 477 1111 477 1125 q 471 1075 477 1092 q 457 1045 466 1058 q 436 1025 448 1032 q 410 1017 424 1017 q 374 1023 391 1017 q 344 1037 357 1028 q 324 1058 331 1046 q 317 1084 317 1070 z "},"Ǵ":{"ha":882,"x_min":69,"x_max":844,"o":"m 741 71 q 597 8 675 31 q 443 -15 519 -15 q 167 77 265 -15 q 69 342 69 168 l 69 403 q 176 796 69 659 q 484 932 283 932 q 616 922 551 932 q 730 894 682 912 l 745 711 l 673 696 l 618 827 q 551 840 592 834 q 469 845 511 845 q 356 829 410 845 q 265 785 303 813 q 216 638 234 722 q 198 463 198 555 l 198 373 q 280 151 198 230 q 477 73 362 73 q 547 79 512 73 q 612 97 581 86 l 612 342 l 508 365 l 522 438 l 830 438 l 844 365 l 741 342 l 741 71 m 375 1019 l 577 1210 l 707 1203 l 707 1158 l 453 990 l 375 998 l 375 1019 z "},"Ẇ":{"ha":1355,"x_min":-30,"x_max":1385,"o":"m 273 850 l 172 831 l 399 157 l 410 157 l 642 918 l 772 918 l 998 157 l 1009 157 l 1215 831 l 1112 850 l 1125 918 l 1371 918 l 1385 850 l 1315 832 l 1053 0 l 924 0 l 698 751 l 687 751 l 458 0 l 328 0 l 42 832 l -30 850 l -16 918 l 260 918 l 273 850 m 636 1084 q 642 1120 636 1103 q 656 1150 647 1137 q 677 1171 665 1163 q 703 1178 689 1178 q 739 1173 722 1178 q 769 1159 756 1168 q 789 1137 782 1149 q 796 1111 796 1125 q 791 1075 796 1092 q 776 1045 785 1058 q 755 1025 767 1032 q 730 1017 743 1017 q 693 1023 710 1017 q 663 1037 676 1028 q 643 1058 650 1046 q 636 1084 636 1070 z "},"Ỳ":{"ha":761,"x_min":-35,"x_max":796,"o":"m 324 392 l 42 831 l -35 850 l -22 918 l 256 918 l 270 850 l 180 831 l 398 490 l 409 490 l 615 831 l 530 850 l 544 918 l 783 918 l 796 850 l 721 831 l 453 391 l 453 90 l 556 66 l 543 0 l 234 0 l 220 66 l 324 90 l 324 392 m 526 998 l 448 990 l 193 1158 l 193 1203 l 323 1210 l 526 1019 l 526 998 z "},"Ẑ":{"ha":766,"x_min":56,"x_max":715,"o":"m 694 918 l 694 833 l 208 97 l 212 87 l 589 87 l 645 218 l 715 203 l 699 0 l 56 0 l 56 85 l 541 821 l 537 830 l 187 830 l 132 699 l 61 714 l 78 918 l 694 918 m 625 997 l 541 990 l 379 1120 l 222 990 l 158 997 l 158 1019 l 350 1217 l 440 1210 l 625 1019 l 625 997 z "},"ǵ":{"ha":729,"x_min":62,"x_max":717,"o":"m 559 663 l 556 656 q 607 597 585 637 q 629 515 629 558 l 629 498 q 554 317 629 385 q 357 250 480 250 q 277 258 313 250 q 217 194 240 224 q 195 145 195 163 q 207 118 195 127 q 243 109 220 109 l 395 109 q 636 62 556 109 q 717 -85 717 15 q 623 -253 717 -195 q 356 -310 529 -310 q 134 -278 205 -310 q 62 -176 62 -246 q 99 -84 62 -130 q 204 6 136 -38 q 127 41 155 16 q 100 109 100 67 q 132 193 100 149 q 217 277 164 237 q 129 353 159 305 q 100 454 100 400 l 100 472 q 174 678 100 605 q 371 751 248 751 q 421 746 391 751 q 475 736 451 742 l 688 736 l 700 663 l 559 663 m 279 0 q 201 -74 231 -35 q 171 -146 171 -113 q 221 -211 171 -194 q 397 -229 271 -229 q 502 -220 449 -229 q 597 -194 555 -212 q 615 -155 608 -178 q 622 -109 622 -132 q 573 -24 622 -47 q 403 0 524 0 l 279 0 m 507 518 q 462 629 507 589 q 355 669 417 669 q 296 664 323 669 q 249 649 268 658 q 228 574 235 612 q 222 505 222 536 l 222 479 q 270 372 222 413 q 374 331 318 331 q 432 336 406 331 q 479 351 458 341 q 499 411 491 373 q 507 492 507 448 l 507 518 m 320 886 l 458 1133 l 581 1126 l 581 1081 l 391 858 l 320 865 l 320 886 z "},"ǧ":{"ha":729,"x_min":62,"x_max":717,"o":"m 559 663 l 556 656 q 607 597 585 637 q 629 515 629 558 l 629 498 q 554 317 629 385 q 357 250 480 250 q 277 258 313 250 q 217 194 240 224 q 195 145 195 163 q 207 118 195 127 q 243 109 220 109 l 395 109 q 636 62 556 109 q 717 -85 717 15 q 623 -253 717 -195 q 356 -310 529 -310 q 134 -278 205 -310 q 62 -176 62 -246 q 99 -84 62 -130 q 204 6 136 -38 q 127 41 155 16 q 100 109 100 67 q 132 193 100 149 q 217 277 164 237 q 129 353 159 305 q 100 454 100 400 l 100 472 q 174 678 100 605 q 371 751 248 751 q 421 746 391 751 q 475 736 451 742 l 688 736 l 700 663 l 559 663 m 279 0 q 201 -74 231 -35 q 171 -146 171 -113 q 221 -211 171 -194 q 397 -229 271 -229 q 502 -220 449 -229 q 597 -194 555 -212 q 615 -155 608 -178 q 622 -109 622 -132 q 573 -24 622 -47 q 403 0 524 0 l 279 0 m 507 518 q 462 629 507 589 q 355 669 417 669 q 296 664 323 669 q 249 649 268 658 q 228 574 235 612 q 222 505 222 536 l 222 479 q 270 372 222 413 q 374 331 318 331 q 432 336 406 331 q 479 351 458 341 q 499 411 491 373 q 507 492 507 448 l 507 518 m 175 1126 l 260 1133 l 391 962 l 517 1133 l 581 1126 l 581 1104 l 423 851 l 333 858 l 175 1104 l 175 1126 z "},"ǰ":{"ha":386,"x_min":-71,"x_max":393,"o":"m 279 -32 q 265 -166 279 -113 q 223 -252 250 -220 q 157 -297 196 -283 q 71 -310 119 -310 q 15 -306 41 -310 q -30 -298 -11 -302 q -71 -285 -52 -292 l -46 -196 q 13 -210 -18 -204 q 70 -220 39 -216 q 130 -224 101 -224 q 144 -184 138 -208 q 153 -132 149 -163 q 157 -58 157 -101 l 157 646 l 33 669 l 47 736 l 279 751 l 279 -32 m -14 1126 l 71 1133 l 202 962 l 328 1133 l 393 1126 l 393 1104 l 235 851 l 144 858 l -14 1104 l -14 1126 z "}}}
